# Tiled2Unity generated file. Do not modify by hand.
# Wavefront file for 'FriendsHouse_mesh_0005.obj'

# Vertices (Count = 12)
v -9.6 -2.4 0
v -10.4 -2.4 0
v -10.4 -1.6 0
v -9.6 -1.6 0
v -9.6 -3.2 0
v -10.4 -3.2 0
v -10.4 -2.4 0
v -9.6 -2.4 0
v -8.8 -5.6 0
v -9.6 -5.6 0
v -9.6 -4.8 0
v -8.8 -4.8 0

# Texture cooridinates (Count = 10)
vt 0.75 0.9375
vt 0.8125 0.9375
vt 0.8125 1
vt 0.75 1
vt 0.75 0.875
vt 0.8125 0.875
vt 0.3125 0.8125
vt 0.375 0.8125
vt 0.375 0.875
vt 0.3125 0.875

# Normal
vn 0 0 -1

# Mesh description
g FriendsHouse_mesh_0005

# Faces
f 1/1/1 2/2/1 3/3/1 4/4/1
f 5/5/1 6/6/1 7/2/1 8/1/1
f 9/7/1 10/8/1 11/9/1 12/10/1

