# Tiled2Unity generated file. Do not modify by hand.
# Wavefront file for 'FriendsHouse_mesh_0002.obj'

# Vertices (Count = 1028)
v 0 -0.8 0
v -0.8 -0.8 0
v -0.8 0 0
v 0 0 0
v -0.8 -0.8 0
v -1.6 -0.8 0
v -1.6 0 0
v -0.8 0 0
v -1.6 -0.8 0
v -2.4 -0.8 0
v -2.4 0 0
v -1.6 0 0
v -2.4 -0.8 0
v -3.2 -0.8 0
v -3.2 0 0
v -2.4 0 0
v -3.2 -0.8 0
v -4 -0.8 0
v -4 0 0
v -3.2 0 0
v -4 -0.8 0
v -4.8 -0.8 0
v -4.8 0 0
v -4 0 0
v -4.8 -0.8 0
v -5.6 -0.8 0
v -5.6 0 0
v -4.8 0 0
v -5.6 -0.8 0
v -6.4 -0.8 0
v -6.4 0 0
v -5.6 0 0
v -6.4 -0.8 0
v -7.2 -0.8 0
v -7.2 0 0
v -6.4 0 0
v -7.2 -0.8 0
v -8 -0.8 0
v -8 0 0
v -7.2 0 0
v -8 -0.8 0
v -8.8 -0.8 0
v -8.8 0 0
v -8 0 0
v -8.8 -0.8 0
v -9.6 -0.8 0
v -9.6 0 0
v -8.8 0 0
v -9.6 -0.8 0
v -10.4 -0.8 0
v -10.4 0 0
v -9.6 0 0
v -10.4 -0.8 0
v -11.2 -0.8 0
v -11.2 0 0
v -10.4 0 0
v -11.2 -0.8 0
v -12 -0.8 0
v -12 0 0
v -11.2 0 0
v -12 -0.8 0
v -12.8 -0.8 0
v -12.8 0 0
v -12 0 0
v -12.8 -0.8 0
v -13.6 -0.8 0
v -13.6 0 0
v -12.8 0 0
v -13.6 -0.8 0
v -14.4 -0.8 0
v -14.4 0 0
v -13.6 0 0
v -14.4 -0.8 0
v -15.2 -0.8 0
v -15.2 0 0
v -14.4 0 0
v -15.2 -0.8 0
v -16 -0.8 0
v -16 0 0
v -15.2 0 0
v -16 -0.8 0
v -16.8 -0.8 0
v -16.8 0 0
v -16 0 0
v -16.8 -0.8 0
v -17.6 -0.8 0
v -17.6 0 0
v -16.8 0 0
v -17.6 -0.8 0
v -18.4 -0.8 0
v -18.4 0 0
v -17.6 0 0
v 0 -1.6 0
v -0.8 -1.6 0
v -0.8 -0.8 0
v 0 -0.8 0
v -0.8 -1.6 0
v -1.6 -1.6 0
v -1.6 -0.8 0
v -0.8 -0.8 0
v -1.6 -1.6 0
v -2.4 -1.6 0
v -2.4 -0.8 0
v -1.6 -0.8 0
v -2.4 -1.6 0
v -3.2 -1.6 0
v -3.2 -0.8 0
v -2.4 -0.8 0
v -3.2 -1.6 0
v -4 -1.6 0
v -4 -0.8 0
v -3.2 -0.8 0
v -4 -1.6 0
v -4.8 -1.6 0
v -4.8 -0.8 0
v -4 -0.8 0
v -4.8 -1.6 0
v -5.6 -1.6 0
v -5.6 -0.8 0
v -4.8 -0.8 0
v -12.8 -1.6 0
v -13.6 -1.6 0
v -13.6 -0.8 0
v -12.8 -0.8 0
v -13.6 -1.6 0
v -14.4 -1.6 0
v -14.4 -0.8 0
v -13.6 -0.8 0
v -14.4 -1.6 0
v -15.2 -1.6 0
v -15.2 -0.8 0
v -14.4 -0.8 0
v -15.2 -1.6 0
v -16 -1.6 0
v -16 -0.8 0
v -15.2 -0.8 0
v -16 -1.6 0
v -16.8 -1.6 0
v -16.8 -0.8 0
v -16 -0.8 0
v -16.8 -1.6 0
v -17.6 -1.6 0
v -17.6 -0.8 0
v -16.8 -0.8 0
v -17.6 -1.6 0
v -18.4 -1.6 0
v -18.4 -0.8 0
v -17.6 -0.8 0
v 0 -2.4 0
v -0.8 -2.4 0
v -0.8 -1.6 0
v 0 -1.6 0
v -0.8 -2.4 0
v -1.6 -2.4 0
v -1.6 -1.6 0
v -0.8 -1.6 0
v -1.6 -2.4 0
v -2.4 -2.4 0
v -2.4 -1.6 0
v -1.6 -1.6 0
v -2.4 -2.4 0
v -3.2 -2.4 0
v -3.2 -1.6 0
v -2.4 -1.6 0
v -3.2 -2.4 0
v -4 -2.4 0
v -4 -1.6 0
v -3.2 -1.6 0
v -4 -2.4 0
v -4.8 -2.4 0
v -4.8 -1.6 0
v -4 -1.6 0
v -4.8 -2.4 0
v -5.6 -2.4 0
v -5.6 -1.6 0
v -4.8 -1.6 0
v -12.8 -2.4 0
v -13.6 -2.4 0
v -13.6 -1.6 0
v -12.8 -1.6 0
v -13.6 -2.4 0
v -14.4 -2.4 0
v -14.4 -1.6 0
v -13.6 -1.6 0
v -14.4 -2.4 0
v -15.2 -2.4 0
v -15.2 -1.6 0
v -14.4 -1.6 0
v -15.2 -2.4 0
v -16 -2.4 0
v -16 -1.6 0
v -15.2 -1.6 0
v -16 -2.4 0
v -16.8 -2.4 0
v -16.8 -1.6 0
v -16 -1.6 0
v -16.8 -2.4 0
v -17.6 -2.4 0
v -17.6 -1.6 0
v -16.8 -1.6 0
v -17.6 -2.4 0
v -18.4 -2.4 0
v -18.4 -1.6 0
v -17.6 -1.6 0
v 0 -3.2 0
v -0.8 -3.2 0
v -0.8 -2.4 0
v 0 -2.4 0
v -0.8 -3.2 0
v -1.6 -3.2 0
v -1.6 -2.4 0
v -0.8 -2.4 0
v -1.6 -3.2 0
v -2.4 -3.2 0
v -2.4 -2.4 0
v -1.6 -2.4 0
v -2.4 -3.2 0
v -3.2 -3.2 0
v -3.2 -2.4 0
v -2.4 -2.4 0
v -3.2 -3.2 0
v -4 -3.2 0
v -4 -2.4 0
v -3.2 -2.4 0
v -4 -3.2 0
v -4.8 -3.2 0
v -4.8 -2.4 0
v -4 -2.4 0
v -4.8 -3.2 0
v -5.6 -3.2 0
v -5.6 -2.4 0
v -4.8 -2.4 0
v -5.6 -3.2 0
v -6.4 -3.2 0
v -6.4 -2.4 0
v -5.6 -2.4 0
v -6.4 -3.2 0
v -7.2 -3.2 0
v -7.2 -2.4 0
v -6.4 -2.4 0
v -7.2 -3.2 0
v -8 -3.2 0
v -8 -2.4 0
v -7.2 -2.4 0
v -8 -3.2 0
v -8.8 -3.2 0
v -8.8 -2.4 0
v -8 -2.4 0
v -8.8 -3.2 0
v -9.6 -3.2 0
v -9.6 -2.4 0
v -8.8 -2.4 0
v -9.6 -3.2 0
v -10.4 -3.2 0
v -10.4 -2.4 0
v -9.6 -2.4 0
v -10.4 -3.2 0
v -11.2 -3.2 0
v -11.2 -2.4 0
v -10.4 -2.4 0
v -11.2 -3.2 0
v -12 -3.2 0
v -12 -2.4 0
v -11.2 -2.4 0
v -12 -3.2 0
v -12.8 -3.2 0
v -12.8 -2.4 0
v -12 -2.4 0
v -12.8 -3.2 0
v -13.6 -3.2 0
v -13.6 -2.4 0
v -12.8 -2.4 0
v -13.6 -3.2 0
v -14.4 -3.2 0
v -14.4 -2.4 0
v -13.6 -2.4 0
v -14.4 -3.2 0
v -15.2 -3.2 0
v -15.2 -2.4 0
v -14.4 -2.4 0
v -15.2 -3.2 0
v -16 -3.2 0
v -16 -2.4 0
v -15.2 -2.4 0
v -16 -3.2 0
v -16.8 -3.2 0
v -16.8 -2.4 0
v -16 -2.4 0
v -16.8 -3.2 0
v -17.6 -3.2 0
v -17.6 -2.4 0
v -16.8 -2.4 0
v -17.6 -3.2 0
v -18.4 -3.2 0
v -18.4 -2.4 0
v -17.6 -2.4 0
v 0 -4 0
v -0.8 -4 0
v -0.8 -3.2 0
v 0 -3.2 0
v -0.8 -4 0
v -1.6 -4 0
v -1.6 -3.2 0
v -0.8 -3.2 0
v -1.6 -4 0
v -2.4 -4 0
v -2.4 -3.2 0
v -1.6 -3.2 0
v -2.4 -4 0
v -3.2 -4 0
v -3.2 -3.2 0
v -2.4 -3.2 0
v -3.2 -4 0
v -4 -4 0
v -4 -3.2 0
v -3.2 -3.2 0
v -4 -4 0
v -4.8 -4 0
v -4.8 -3.2 0
v -4 -3.2 0
v -4.8 -4 0
v -5.6 -4 0
v -5.6 -3.2 0
v -4.8 -3.2 0
v -5.6 -4 0
v -6.4 -4 0
v -6.4 -3.2 0
v -5.6 -3.2 0
v -6.4 -4 0
v -7.2 -4 0
v -7.2 -3.2 0
v -6.4 -3.2 0
v -7.2 -4 0
v -8 -4 0
v -8 -3.2 0
v -7.2 -3.2 0
v -8 -4 0
v -8.8 -4 0
v -8.8 -3.2 0
v -8 -3.2 0
v -8.8 -4 0
v -9.6 -4 0
v -9.6 -3.2 0
v -8.8 -3.2 0
v -9.6 -4 0
v -10.4 -4 0
v -10.4 -3.2 0
v -9.6 -3.2 0
v -10.4 -4 0
v -11.2 -4 0
v -11.2 -3.2 0
v -10.4 -3.2 0
v -11.2 -4 0
v -12 -4 0
v -12 -3.2 0
v -11.2 -3.2 0
v -12 -4 0
v -12.8 -4 0
v -12.8 -3.2 0
v -12 -3.2 0
v -12.8 -4 0
v -13.6 -4 0
v -13.6 -3.2 0
v -12.8 -3.2 0
v -13.6 -4 0
v -14.4 -4 0
v -14.4 -3.2 0
v -13.6 -3.2 0
v -14.4 -4 0
v -15.2 -4 0
v -15.2 -3.2 0
v -14.4 -3.2 0
v -15.2 -4 0
v -16 -4 0
v -16 -3.2 0
v -15.2 -3.2 0
v -16 -4 0
v -16.8 -4 0
v -16.8 -3.2 0
v -16 -3.2 0
v -16.8 -4 0
v -17.6 -4 0
v -17.6 -3.2 0
v -16.8 -3.2 0
v -17.6 -4 0
v -18.4 -4 0
v -18.4 -3.2 0
v -17.6 -3.2 0
v 0 -4.8 0
v -0.8 -4.8 0
v -0.8 -4 0
v 0 -4 0
v -0.8 -4.8 0
v -1.6 -4.8 0
v -1.6 -4 0
v -0.8 -4 0
v -1.6 -4.8 0
v -2.4 -4.8 0
v -2.4 -4 0
v -1.6 -4 0
v -2.4 -4.8 0
v -3.2 -4.8 0
v -3.2 -4 0
v -2.4 -4 0
v -3.2 -4.8 0
v -4 -4.8 0
v -4 -4 0
v -3.2 -4 0
v -4 -4.8 0
v -4.8 -4.8 0
v -4.8 -4 0
v -4 -4 0
v -4.8 -4.8 0
v -5.6 -4.8 0
v -5.6 -4 0
v -4.8 -4 0
v -5.6 -4.8 0
v -6.4 -4.8 0
v -6.4 -4 0
v -5.6 -4 0
v -6.4 -4.8 0
v -7.2 -4.8 0
v -7.2 -4 0
v -6.4 -4 0
v -7.2 -4.8 0
v -8 -4.8 0
v -8 -4 0
v -7.2 -4 0
v -8 -4.8 0
v -8.8 -4.8 0
v -8.8 -4 0
v -8 -4 0
v -8.8 -4.8 0
v -9.6 -4.8 0
v -9.6 -4 0
v -8.8 -4 0
v -9.6 -4.8 0
v -10.4 -4.8 0
v -10.4 -4 0
v -9.6 -4 0
v -10.4 -4.8 0
v -11.2 -4.8 0
v -11.2 -4 0
v -10.4 -4 0
v -11.2 -4.8 0
v -12 -4.8 0
v -12 -4 0
v -11.2 -4 0
v -12 -4.8 0
v -12.8 -4.8 0
v -12.8 -4 0
v -12 -4 0
v -12.8 -4.8 0
v -13.6 -4.8 0
v -13.6 -4 0
v -12.8 -4 0
v -13.6 -4.8 0
v -14.4 -4.8 0
v -14.4 -4 0
v -13.6 -4 0
v -14.4 -4.8 0
v -15.2 -4.8 0
v -15.2 -4 0
v -14.4 -4 0
v -15.2 -4.8 0
v -16 -4.8 0
v -16 -4 0
v -15.2 -4 0
v -16 -4.8 0
v -16.8 -4.8 0
v -16.8 -4 0
v -16 -4 0
v -16.8 -4.8 0
v -17.6 -4.8 0
v -17.6 -4 0
v -16.8 -4 0
v -17.6 -4.8 0
v -18.4 -4.8 0
v -18.4 -4 0
v -17.6 -4 0
v 0 -5.6 0
v -0.8 -5.6 0
v -0.8 -4.8 0
v 0 -4.8 0
v -0.8 -5.6 0
v -1.6 -5.6 0
v -1.6 -4.8 0
v -0.8 -4.8 0
v -1.6 -5.6 0
v -2.4 -5.6 0
v -2.4 -4.8 0
v -1.6 -4.8 0
v -2.4 -5.6 0
v -3.2 -5.6 0
v -3.2 -4.8 0
v -2.4 -4.8 0
v -3.2 -5.6 0
v -4 -5.6 0
v -4 -4.8 0
v -3.2 -4.8 0
v -4 -5.6 0
v -4.8 -5.6 0
v -4.8 -4.8 0
v -4 -4.8 0
v -4.8 -5.6 0
v -5.6 -5.6 0
v -5.6 -4.8 0
v -4.8 -4.8 0
v -5.6 -5.6 0
v -6.4 -5.6 0
v -6.4 -4.8 0
v -5.6 -4.8 0
v -6.4 -5.6 0
v -7.2 -5.6 0
v -7.2 -4.8 0
v -6.4 -4.8 0
v -7.2 -5.6 0
v -8 -5.6 0
v -8 -4.8 0
v -7.2 -4.8 0
v -8 -5.6 0
v -8.8 -5.6 0
v -8.8 -4.8 0
v -8 -4.8 0
v -8.8 -5.6 0
v -9.6 -5.6 0
v -9.6 -4.8 0
v -8.8 -4.8 0
v -9.6 -5.6 0
v -10.4 -5.6 0
v -10.4 -4.8 0
v -9.6 -4.8 0
v -10.4 -5.6 0
v -11.2 -5.6 0
v -11.2 -4.8 0
v -10.4 -4.8 0
v -11.2 -5.6 0
v -12 -5.6 0
v -12 -4.8 0
v -11.2 -4.8 0
v -12 -5.6 0
v -12.8 -5.6 0
v -12.8 -4.8 0
v -12 -4.8 0
v -12.8 -5.6 0
v -13.6 -5.6 0
v -13.6 -4.8 0
v -12.8 -4.8 0
v -13.6 -5.6 0
v -14.4 -5.6 0
v -14.4 -4.8 0
v -13.6 -4.8 0
v -14.4 -5.6 0
v -15.2 -5.6 0
v -15.2 -4.8 0
v -14.4 -4.8 0
v -15.2 -5.6 0
v -16 -5.6 0
v -16 -4.8 0
v -15.2 -4.8 0
v -16 -5.6 0
v -16.8 -5.6 0
v -16.8 -4.8 0
v -16 -4.8 0
v -16.8 -5.6 0
v -17.6 -5.6 0
v -17.6 -4.8 0
v -16.8 -4.8 0
v -17.6 -5.6 0
v -18.4 -5.6 0
v -18.4 -4.8 0
v -17.6 -4.8 0
v 0 -6.4 0
v -0.8 -6.4 0
v -0.8 -5.6 0
v 0 -5.6 0
v -5.6 -6.4 0
v -6.4 -6.4 0
v -6.4 -5.6 0
v -5.6 -5.6 0
v -6.4 -6.4 0
v -7.2 -6.4 0
v -7.2 -5.6 0
v -6.4 -5.6 0
v -7.2 -6.4 0
v -8 -6.4 0
v -8 -5.6 0
v -7.2 -5.6 0
v -8 -6.4 0
v -8.8 -6.4 0
v -8.8 -5.6 0
v -8 -5.6 0
v -8.8 -6.4 0
v -9.6 -6.4 0
v -9.6 -5.6 0
v -8.8 -5.6 0
v -9.6 -6.4 0
v -10.4 -6.4 0
v -10.4 -5.6 0
v -9.6 -5.6 0
v -10.4 -6.4 0
v -11.2 -6.4 0
v -11.2 -5.6 0
v -10.4 -5.6 0
v -11.2 -6.4 0
v -12 -6.4 0
v -12 -5.6 0
v -11.2 -5.6 0
v -12 -6.4 0
v -12.8 -6.4 0
v -12.8 -5.6 0
v -12 -5.6 0
v -17.6 -6.4 0
v -18.4 -6.4 0
v -18.4 -5.6 0
v -17.6 -5.6 0
v 0 -7.2 0
v -0.8 -7.2 0
v -0.8 -6.4 0
v 0 -6.4 0
v -5.6 -7.2 0
v -6.4 -7.2 0
v -6.4 -6.4 0
v -5.6 -6.4 0
v -6.4 -7.2 0
v -7.2 -7.2 0
v -7.2 -6.4 0
v -6.4 -6.4 0
v -7.2 -7.2 0
v -8 -7.2 0
v -8 -6.4 0
v -7.2 -6.4 0
v -8 -7.2 0
v -8.8 -7.2 0
v -8.8 -6.4 0
v -8 -6.4 0
v -8.8 -7.2 0
v -9.6 -7.2 0
v -9.6 -6.4 0
v -8.8 -6.4 0
v -9.6 -7.2 0
v -10.4 -7.2 0
v -10.4 -6.4 0
v -9.6 -6.4 0
v -10.4 -7.2 0
v -11.2 -7.2 0
v -11.2 -6.4 0
v -10.4 -6.4 0
v -11.2 -7.2 0
v -12 -7.2 0
v -12 -6.4 0
v -11.2 -6.4 0
v -12 -7.2 0
v -12.8 -7.2 0
v -12.8 -6.4 0
v -12 -6.4 0
v -17.6 -7.2 0
v -18.4 -7.2 0
v -18.4 -6.4 0
v -17.6 -6.4 0
v 0 -8 0
v -0.8 -8 0
v -0.8 -7.2 0
v 0 -7.2 0
v -0.8 -8 0
v -1.6 -8 0
v -1.6 -7.2 0
v -0.8 -7.2 0
v -1.6 -8 0
v -2.4 -8 0
v -2.4 -7.2 0
v -1.6 -7.2 0
v -2.4 -8 0
v -3.2 -8 0
v -3.2 -7.2 0
v -2.4 -7.2 0
v -3.2 -8 0
v -4 -8 0
v -4 -7.2 0
v -3.2 -7.2 0
v -4 -8 0
v -4.8 -8 0
v -4.8 -7.2 0
v -4 -7.2 0
v -4.8 -8 0
v -5.6 -8 0
v -5.6 -7.2 0
v -4.8 -7.2 0
v -5.6 -8 0
v -6.4 -8 0
v -6.4 -7.2 0
v -5.6 -7.2 0
v -6.4 -8 0
v -7.2 -8 0
v -7.2 -7.2 0
v -6.4 -7.2 0
v -7.2 -8 0
v -8 -8 0
v -8 -7.2 0
v -7.2 -7.2 0
v -8 -8 0
v -8.8 -8 0
v -8.8 -7.2 0
v -8 -7.2 0
v -8.8 -8 0
v -9.6 -8 0
v -9.6 -7.2 0
v -8.8 -7.2 0
v -9.6 -8 0
v -10.4 -8 0
v -10.4 -7.2 0
v -9.6 -7.2 0
v -10.4 -8 0
v -11.2 -8 0
v -11.2 -7.2 0
v -10.4 -7.2 0
v -11.2 -8 0
v -12 -8 0
v -12 -7.2 0
v -11.2 -7.2 0
v -12 -8 0
v -12.8 -8 0
v -12.8 -7.2 0
v -12 -7.2 0
v -12.8 -8 0
v -13.6 -8 0
v -13.6 -7.2 0
v -12.8 -7.2 0
v -13.6 -8 0
v -14.4 -8 0
v -14.4 -7.2 0
v -13.6 -7.2 0
v -14.4 -8 0
v -15.2 -8 0
v -15.2 -7.2 0
v -14.4 -7.2 0
v -15.2 -8 0
v -16 -8 0
v -16 -7.2 0
v -15.2 -7.2 0
v -16 -8 0
v -16.8 -8 0
v -16.8 -7.2 0
v -16 -7.2 0
v -16.8 -8 0
v -17.6 -8 0
v -17.6 -7.2 0
v -16.8 -7.2 0
v -17.6 -8 0
v -18.4 -8 0
v -18.4 -7.2 0
v -17.6 -7.2 0
v 0 -8.8 0
v -0.8 -8.8 0
v -0.8 -8 0
v 0 -8 0
v -0.8 -8.8 0
v -1.6 -8.8 0
v -1.6 -8 0
v -0.8 -8 0
v -1.6 -8.8 0
v -2.4 -8.8 0
v -2.4 -8 0
v -1.6 -8 0
v -2.4 -8.8 0
v -3.2 -8.8 0
v -3.2 -8 0
v -2.4 -8 0
v -3.2 -8.8 0
v -4 -8.8 0
v -4 -8 0
v -3.2 -8 0
v -4 -8.8 0
v -4.8 -8.8 0
v -4.8 -8 0
v -4 -8 0
v -4.8 -8.8 0
v -5.6 -8.8 0
v -5.6 -8 0
v -4.8 -8 0
v -5.6 -8.8 0
v -6.4 -8.8 0
v -6.4 -8 0
v -5.6 -8 0
v -6.4 -8.8 0
v -7.2 -8.8 0
v -7.2 -8 0
v -6.4 -8 0
v -7.2 -8.8 0
v -8 -8.8 0
v -8 -8 0
v -7.2 -8 0
v -8 -8.8 0
v -8.8 -8.8 0
v -8.8 -8 0
v -8 -8 0
v -8.8 -8.8 0
v -9.6 -8.8 0
v -9.6 -8 0
v -8.8 -8 0
v -9.6 -8.8 0
v -10.4 -8.8 0
v -10.4 -8 0
v -9.6 -8 0
v -10.4 -8.8 0
v -11.2 -8.8 0
v -11.2 -8 0
v -10.4 -8 0
v -11.2 -8.8 0
v -12 -8.8 0
v -12 -8 0
v -11.2 -8 0
v -12 -8.8 0
v -12.8 -8.8 0
v -12.8 -8 0
v -12 -8 0
v -12.8 -8.8 0
v -13.6 -8.8 0
v -13.6 -8 0
v -12.8 -8 0
v -13.6 -8.8 0
v -14.4 -8.8 0
v -14.4 -8 0
v -13.6 -8 0
v -14.4 -8.8 0
v -15.2 -8.8 0
v -15.2 -8 0
v -14.4 -8 0
v -15.2 -8.8 0
v -16 -8.8 0
v -16 -8 0
v -15.2 -8 0
v -16 -8.8 0
v -16.8 -8.8 0
v -16.8 -8 0
v -16 -8 0
v -16.8 -8.8 0
v -17.6 -8.8 0
v -17.6 -8 0
v -16.8 -8 0
v -17.6 -8.8 0
v -18.4 -8.8 0
v -18.4 -8 0
v -17.6 -8 0
v 0 -9.6 0
v -0.8 -9.6 0
v -0.8 -8.8 0
v 0 -8.8 0
v -0.8 -9.6 0
v -1.6 -9.6 0
v -1.6 -8.8 0
v -0.8 -8.8 0
v -1.6 -9.6 0
v -2.4 -9.6 0
v -2.4 -8.8 0
v -1.6 -8.8 0
v -2.4 -9.6 0
v -3.2 -9.6 0
v -3.2 -8.8 0
v -2.4 -8.8 0
v -3.2 -9.6 0
v -4 -9.6 0
v -4 -8.8 0
v -3.2 -8.8 0
v -4 -9.6 0
v -4.8 -9.6 0
v -4.8 -8.8 0
v -4 -8.8 0
v -4.8 -9.6 0
v -5.6 -9.6 0
v -5.6 -8.8 0
v -4.8 -8.8 0
v -5.6 -9.6 0
v -6.4 -9.6 0
v -6.4 -8.8 0
v -5.6 -8.8 0
v -6.4 -9.6 0
v -7.2 -9.6 0
v -7.2 -8.8 0
v -6.4 -8.8 0
v -7.2 -9.6 0
v -8 -9.6 0
v -8 -8.8 0
v -7.2 -8.8 0
v -8 -9.6 0
v -8.8 -9.6 0
v -8.8 -8.8 0
v -8 -8.8 0
v -8.8 -9.6 0
v -9.6 -9.6 0
v -9.6 -8.8 0
v -8.8 -8.8 0
v -9.6 -9.6 0
v -10.4 -9.6 0
v -10.4 -8.8 0
v -9.6 -8.8 0
v -10.4 -9.6 0
v -11.2 -9.6 0
v -11.2 -8.8 0
v -10.4 -8.8 0
v -11.2 -9.6 0
v -12 -9.6 0
v -12 -8.8 0
v -11.2 -8.8 0
v -12 -9.6 0
v -12.8 -9.6 0
v -12.8 -8.8 0
v -12 -8.8 0
v -12.8 -9.6 0
v -13.6 -9.6 0
v -13.6 -8.8 0
v -12.8 -8.8 0
v -13.6 -9.6 0
v -14.4 -9.6 0
v -14.4 -8.8 0
v -13.6 -8.8 0
v -14.4 -9.6 0
v -15.2 -9.6 0
v -15.2 -8.8 0
v -14.4 -8.8 0
v -15.2 -9.6 0
v -16 -9.6 0
v -16 -8.8 0
v -15.2 -8.8 0
v -16 -9.6 0
v -16.8 -9.6 0
v -16.8 -8.8 0
v -16 -8.8 0
v -16.8 -9.6 0
v -17.6 -9.6 0
v -17.6 -8.8 0
v -16.8 -8.8 0
v -17.6 -9.6 0
v -18.4 -9.6 0
v -18.4 -8.8 0
v -17.6 -8.8 0
v 0 -10.4 0
v -0.8 -10.4 0
v -0.8 -9.6 0
v 0 -9.6 0
v -0.8 -10.4 0
v -1.6 -10.4 0
v -1.6 -9.6 0
v -0.8 -9.6 0
v -1.6 -10.4 0
v -2.4 -10.4 0
v -2.4 -9.6 0
v -1.6 -9.6 0
v -2.4 -10.4 0
v -3.2 -10.4 0
v -3.2 -9.6 0
v -2.4 -9.6 0
v -3.2 -10.4 0
v -4 -10.4 0
v -4 -9.6 0
v -3.2 -9.6 0
v -4 -10.4 0
v -4.8 -10.4 0
v -4.8 -9.6 0
v -4 -9.6 0
v -4.8 -10.4 0
v -5.6 -10.4 0
v -5.6 -9.6 0
v -4.8 -9.6 0
v -5.6 -10.4 0
v -6.4 -10.4 0
v -6.4 -9.6 0
v -5.6 -9.6 0
v -6.4 -10.4 0
v -7.2 -10.4 0
v -7.2 -9.6 0
v -6.4 -9.6 0
v -7.2 -10.4 0
v -8 -10.4 0
v -8 -9.6 0
v -7.2 -9.6 0
v -8 -10.4 0
v -8.8 -10.4 0
v -8.8 -9.6 0
v -8 -9.6 0
v -8.8 -10.4 0
v -9.6 -10.4 0
v -9.6 -9.6 0
v -8.8 -9.6 0
v -9.6 -10.4 0
v -10.4 -10.4 0
v -10.4 -9.6 0
v -9.6 -9.6 0
v -10.4 -10.4 0
v -11.2 -10.4 0
v -11.2 -9.6 0
v -10.4 -9.6 0
v -11.2 -10.4 0
v -12 -10.4 0
v -12 -9.6 0
v -11.2 -9.6 0
v -12 -10.4 0
v -12.8 -10.4 0
v -12.8 -9.6 0
v -12 -9.6 0
v -12.8 -10.4 0
v -13.6 -10.4 0
v -13.6 -9.6 0
v -12.8 -9.6 0
v -13.6 -10.4 0
v -14.4 -10.4 0
v -14.4 -9.6 0
v -13.6 -9.6 0
v -14.4 -10.4 0
v -15.2 -10.4 0
v -15.2 -9.6 0
v -14.4 -9.6 0
v -15.2 -10.4 0
v -16 -10.4 0
v -16 -9.6 0
v -15.2 -9.6 0
v -16 -10.4 0
v -16.8 -10.4 0
v -16.8 -9.6 0
v -16 -9.6 0
v -16.8 -10.4 0
v -17.6 -10.4 0
v -17.6 -9.6 0
v -16.8 -9.6 0
v -17.6 -10.4 0
v -18.4 -10.4 0
v -18.4 -9.6 0
v -17.6 -9.6 0

# Texture cooridinates (Count = 31)
vt 0.0625 0.8125
vt 0.125 0.8125
vt 0.125 0.875
vt 0.0625 0.875
vt 0.1875 0.8125
vt 0.25 0.8125
vt 0.25 0.875
vt 0.1875 0.875
vt 0 0.8125
vt 0 0.875
vt 0.3125 0.875
vt 0.3125 0.9375
vt 0.25 0.9375
vt 0.1875 0.9375
vt 0.125 0.9375
vt 0 0.6875
vt 0.0625 0.6875
vt 0.0625 0.75
vt 0 0.75
vt 0 0.625
vt 0.0625 0.625
vt 0.3125 0.8125
vt 0.125 0.6875
vt 0.125 0.75
vt 0.125 0.625
vt 0.0625 0.9375
vt 0.25 1
vt 0.1875 1
vt 0.3125 1
vt 0.125 1
vt 0 0.9375

# Normal
vn 0 0 -1

# Mesh description
g FriendsHouse_mesh_0002

# Faces
f 1/1/1 2/2/1 3/3/1 4/4/1
f 5/5/1 6/6/1 7/7/1 8/8/1
f 9/5/1 10/6/1 11/7/1 12/8/1
f 13/5/1 14/6/1 15/7/1 16/8/1
f 17/5/1 18/6/1 19/7/1 20/8/1
f 21/5/1 22/6/1 23/7/1 24/8/1
f 25/5/1 26/6/1 27/7/1 28/8/1
f 29/5/1 30/6/1 31/7/1 32/8/1
f 33/5/1 34/6/1 35/7/1 36/8/1
f 37/5/1 38/6/1 39/7/1 40/8/1
f 41/5/1 42/6/1 43/7/1 44/8/1
f 45/5/1 46/6/1 47/7/1 48/8/1
f 49/5/1 50/6/1 51/7/1 52/8/1
f 53/5/1 54/6/1 55/7/1 56/8/1
f 57/5/1 58/6/1 59/7/1 60/8/1
f 61/5/1 62/6/1 63/7/1 64/8/1
f 65/5/1 66/6/1 67/7/1 68/8/1
f 69/5/1 70/6/1 71/7/1 72/8/1
f 73/5/1 74/6/1 75/7/1 76/8/1
f 77/5/1 78/6/1 79/7/1 80/8/1
f 81/5/1 82/6/1 83/7/1 84/8/1
f 85/5/1 86/6/1 87/7/1 88/8/1
f 89/9/1 90/1/1 91/4/1 92/10/1
f 93/7/1 94/11/1 95/12/1 96/13/1
f 97/8/1 98/7/1 99/13/1 100/14/1
f 101/8/1 102/7/1 103/13/1 104/14/1
f 105/8/1 106/7/1 107/13/1 108/14/1
f 109/8/1 110/7/1 111/13/1 112/14/1
f 113/8/1 114/7/1 115/13/1 116/14/1
f 117/7/1 118/11/1 119/12/1 120/13/1
f 121/11/1 122/7/1 123/13/1 124/12/1
f 125/7/1 126/8/1 127/14/1 128/13/1
f 129/7/1 130/8/1 131/14/1 132/13/1
f 133/7/1 134/8/1 135/14/1 136/13/1
f 137/7/1 138/8/1 139/14/1 140/13/1
f 141/7/1 142/8/1 143/14/1 144/13/1
f 145/3/1 146/8/1 147/14/1 148/15/1
f 149/7/1 150/11/1 151/12/1 152/13/1
f 153/8/1 154/7/1 155/13/1 156/14/1
f 157/8/1 158/7/1 159/13/1 160/14/1
f 161/8/1 162/7/1 163/13/1 164/14/1
f 165/8/1 166/7/1 167/13/1 168/14/1
f 169/8/1 170/7/1 171/13/1 172/14/1
f 173/7/1 174/11/1 175/12/1 176/13/1
f 177/11/1 178/7/1 179/13/1 180/12/1
f 181/7/1 182/8/1 183/14/1 184/13/1
f 185/7/1 186/8/1 187/14/1 188/13/1
f 189/7/1 190/8/1 191/14/1 192/13/1
f 193/7/1 194/8/1 195/14/1 196/13/1
f 197/7/1 198/8/1 199/14/1 200/13/1
f 201/3/1 202/8/1 203/14/1 204/15/1
f 205/7/1 206/11/1 207/12/1 208/13/1
f 209/8/1 210/7/1 211/13/1 212/14/1
f 213/8/1 214/7/1 215/13/1 216/14/1
f 217/8/1 218/7/1 219/13/1 220/14/1
f 221/8/1 222/7/1 223/13/1 224/14/1
f 225/8/1 226/7/1 227/13/1 228/14/1
f 229/7/1 230/11/1 231/12/1 232/13/1
f 233/16/1 234/17/1 235/18/1 236/19/1
f 237/16/1 238/17/1 239/18/1 240/19/1
f 241/16/1 242/17/1 243/18/1 244/19/1
f 245/16/1 246/17/1 247/18/1 248/19/1
f 249/20/1 250/21/1 251/17/1 252/16/1
f 253/16/1 254/17/1 255/18/1 256/19/1
f 257/16/1 258/17/1 259/18/1 260/19/1
f 261/16/1 262/17/1 263/18/1 264/19/1
f 265/16/1 266/17/1 267/18/1 268/19/1
f 269/11/1 270/7/1 271/13/1 272/12/1
f 273/7/1 274/8/1 275/14/1 276/13/1
f 277/7/1 278/8/1 279/14/1 280/13/1
f 281/7/1 282/8/1 283/14/1 284/13/1
f 285/7/1 286/8/1 287/14/1 288/13/1
f 289/7/1 290/8/1 291/14/1 292/13/1
f 293/3/1 294/8/1 295/14/1 296/15/1
f 297/7/1 298/11/1 299/12/1 300/13/1
f 301/8/1 302/7/1 303/13/1 304/14/1
f 305/8/1 306/7/1 307/13/1 308/14/1
f 309/8/1 310/7/1 311/13/1 312/14/1
f 313/8/1 314/7/1 315/13/1 316/14/1
f 317/8/1 318/7/1 319/13/1 320/14/1
f 321/7/1 322/11/1 323/12/1 324/13/1
f 325/16/1 326/17/1 327/18/1 328/19/1
f 329/16/1 330/17/1 331/18/1 332/19/1
f 333/16/1 334/17/1 335/18/1 336/19/1
f 337/16/1 338/17/1 339/18/1 340/19/1
f 341/16/1 342/17/1 343/18/1 344/19/1
f 345/16/1 346/17/1 347/18/1 348/19/1
f 349/16/1 350/17/1 351/18/1 352/19/1
f 353/16/1 354/17/1 355/18/1 356/19/1
f 357/20/1 358/21/1 359/17/1 360/16/1
f 361/11/1 362/7/1 363/13/1 364/12/1
f 365/7/1 366/8/1 367/14/1 368/13/1
f 369/7/1 370/8/1 371/14/1 372/13/1
f 373/7/1 374/8/1 375/14/1 376/13/1
f 377/7/1 378/8/1 379/14/1 380/13/1
f 381/7/1 382/8/1 383/14/1 384/13/1
f 385/3/1 386/8/1 387/14/1 388/15/1
f 389/7/1 390/11/1 391/12/1 392/13/1
f 393/8/1 394/7/1 395/13/1 396/14/1
f 397/8/1 398/7/1 399/13/1 400/14/1
f 401/8/1 402/7/1 403/13/1 404/14/1
f 405/8/1 406/7/1 407/13/1 408/14/1
f 409/8/1 410/7/1 411/13/1 412/14/1
f 413/7/1 414/11/1 415/12/1 416/13/1
f 417/16/1 418/17/1 419/18/1 420/19/1
f 421/16/1 422/17/1 423/18/1 424/19/1
f 425/16/1 426/17/1 427/18/1 428/19/1
f 429/16/1 430/17/1 431/18/1 432/19/1
f 433/16/1 434/17/1 435/18/1 436/19/1
f 437/16/1 438/17/1 439/18/1 440/19/1
f 441/16/1 442/17/1 443/18/1 444/19/1
f 445/16/1 446/17/1 447/18/1 448/19/1
f 449/16/1 450/17/1 451/18/1 452/19/1
f 453/11/1 454/7/1 455/13/1 456/12/1
f 457/7/1 458/8/1 459/14/1 460/13/1
f 461/7/1 462/8/1 463/14/1 464/13/1
f 465/7/1 466/8/1 467/14/1 468/13/1
f 469/7/1 470/8/1 471/14/1 472/13/1
f 473/7/1 474/8/1 475/14/1 476/13/1
f 477/3/1 478/8/1 479/14/1 480/15/1
f 481/7/1 482/11/1 483/12/1 484/13/1
f 485/5/1 486/6/1 487/7/1 488/8/1
f 489/5/1 490/6/1 491/7/1 492/8/1
f 493/5/1 494/6/1 495/7/1 496/8/1
f 497/5/1 498/6/1 499/7/1 500/8/1
f 501/5/1 502/6/1 503/7/1 504/8/1
f 505/6/1 506/22/1 507/11/1 508/7/1
f 509/16/1 510/17/1 511/18/1 512/19/1
f 513/20/1 514/21/1 515/17/1 516/16/1
f 517/16/1 518/17/1 519/18/1 520/19/1
f 521/16/1 522/17/1 523/18/1 524/19/1
f 525/16/1 526/17/1 527/18/1 528/19/1
f 529/16/1 530/17/1 531/18/1 532/19/1
f 533/16/1 534/17/1 535/18/1 536/19/1
f 537/16/1 538/17/1 539/18/1 540/19/1
f 541/16/1 542/17/1 543/18/1 544/19/1
f 545/22/1 546/6/1 547/7/1 548/11/1
f 549/6/1 550/5/1 551/8/1 552/7/1
f 553/6/1 554/5/1 555/8/1 556/7/1
f 557/6/1 558/5/1 559/8/1 560/7/1
f 561/6/1 562/5/1 563/8/1 564/7/1
f 565/6/1 566/5/1 567/8/1 568/7/1
f 569/3/1 570/8/1 571/14/1 572/15/1
f 573/7/1 574/11/1 575/12/1 576/13/1
f 577/16/1 578/17/1 579/18/1 580/19/1
f 581/16/1 582/17/1 583/18/1 584/19/1
f 585/16/1 586/17/1 587/18/1 588/19/1
f 589/16/1 590/17/1 591/18/1 592/19/1
f 593/20/1 594/21/1 595/17/1 596/16/1
f 597/16/1 598/17/1 599/18/1 600/19/1
f 601/16/1 602/17/1 603/18/1 604/19/1
f 605/16/1 606/17/1 607/18/1 608/19/1
f 609/16/1 610/17/1 611/18/1 612/19/1
f 613/3/1 614/8/1 615/14/1 616/15/1
f 617/7/1 618/11/1 619/12/1 620/13/1
f 621/16/1 622/17/1 623/18/1 624/19/1
f 625/16/1 626/17/1 627/18/1 628/19/1
f 629/16/1 630/17/1 631/18/1 632/19/1
f 633/16/1 634/17/1 635/18/1 636/19/1
f 637/16/1 638/17/1 639/18/1 640/19/1
f 641/16/1 642/17/1 643/18/1 644/19/1
f 645/16/1 646/17/1 647/18/1 648/19/1
f 649/16/1 650/17/1 651/18/1 652/19/1
f 653/20/1 654/21/1 655/17/1 656/16/1
f 657/3/1 658/8/1 659/14/1 660/15/1
f 661/7/1 662/11/1 663/12/1 664/13/1
f 665/17/1 666/23/1 667/24/1 668/18/1
f 669/17/1 670/23/1 671/24/1 672/18/1
f 673/17/1 674/23/1 675/24/1 676/18/1
f 677/17/1 678/23/1 679/24/1 680/18/1
f 681/17/1 682/23/1 683/24/1 684/18/1
f 685/17/1 686/23/1 687/24/1 688/18/1
f 689/17/1 690/23/1 691/24/1 692/18/1
f 693/17/1 694/23/1 695/24/1 696/18/1
f 697/17/1 698/23/1 699/24/1 700/18/1
f 701/17/1 702/23/1 703/24/1 704/18/1
f 705/17/1 706/23/1 707/24/1 708/18/1
f 709/17/1 710/23/1 711/24/1 712/18/1
f 713/17/1 714/23/1 715/24/1 716/18/1
f 717/17/1 718/23/1 719/24/1 720/18/1
f 721/17/1 722/23/1 723/24/1 724/18/1
f 725/17/1 726/23/1 727/24/1 728/18/1
f 729/21/1 730/25/1 731/23/1 732/17/1
f 733/17/1 734/23/1 735/24/1 736/18/1
f 737/17/1 738/23/1 739/24/1 740/18/1
f 741/17/1 742/23/1 743/24/1 744/18/1
f 745/17/1 746/23/1 747/24/1 748/18/1
f 749/3/1 750/8/1 751/14/1 752/15/1
f 753/7/1 754/11/1 755/12/1 756/13/1
f 757/17/1 758/23/1 759/24/1 760/18/1
f 761/17/1 762/23/1 763/24/1 764/18/1
f 765/17/1 766/23/1 767/24/1 768/18/1
f 769/21/1 770/25/1 771/23/1 772/17/1
f 773/17/1 774/23/1 775/24/1 776/18/1
f 777/17/1 778/23/1 779/24/1 780/18/1
f 781/17/1 782/23/1 783/24/1 784/18/1
f 785/17/1 786/23/1 787/24/1 788/18/1
f 789/21/1 790/25/1 791/23/1 792/17/1
f 793/17/1 794/23/1 795/24/1 796/18/1
f 797/17/1 798/23/1 799/24/1 800/18/1
f 801/17/1 802/23/1 803/24/1 804/18/1
f 805/17/1 806/23/1 807/24/1 808/18/1
f 809/17/1 810/23/1 811/24/1 812/18/1
f 813/17/1 814/23/1 815/24/1 816/18/1
f 817/17/1 818/23/1 819/24/1 820/18/1
f 821/17/1 822/23/1 823/24/1 824/18/1
f 825/17/1 826/23/1 827/24/1 828/18/1
f 829/17/1 830/23/1 831/24/1 832/18/1
f 833/17/1 834/23/1 835/24/1 836/18/1
f 837/17/1 838/23/1 839/24/1 840/18/1
f 841/3/1 842/8/1 843/14/1 844/15/1
f 845/7/1 846/11/1 847/12/1 848/13/1
f 849/17/1 850/23/1 851/24/1 852/18/1
f 853/17/1 854/23/1 855/24/1 856/18/1
f 857/17/1 858/23/1 859/24/1 860/18/1
f 861/17/1 862/23/1 863/24/1 864/18/1
f 865/17/1 866/23/1 867/24/1 868/18/1
f 869/17/1 870/23/1 871/24/1 872/18/1
f 873/17/1 874/23/1 875/24/1 876/18/1
f 877/17/1 878/23/1 879/24/1 880/18/1
f 881/17/1 882/23/1 883/24/1 884/18/1
f 885/17/1 886/23/1 887/24/1 888/18/1
f 889/17/1 890/23/1 891/24/1 892/18/1
f 893/21/1 894/25/1 895/23/1 896/17/1
f 897/17/1 898/23/1 899/24/1 900/18/1
f 901/17/1 902/23/1 903/24/1 904/18/1
f 905/17/1 906/23/1 907/24/1 908/18/1
f 909/17/1 910/23/1 911/24/1 912/18/1
f 913/17/1 914/23/1 915/24/1 916/18/1
f 917/17/1 918/23/1 919/24/1 920/18/1
f 921/17/1 922/23/1 923/24/1 924/18/1
f 925/21/1 926/25/1 927/23/1 928/17/1
f 929/17/1 930/23/1 931/24/1 932/18/1
f 933/3/1 934/8/1 935/14/1 936/15/1
f 937/4/1 938/3/1 939/15/1 940/26/1
f 941/14/1 942/13/1 943/27/1 944/28/1
f 945/14/1 946/13/1 947/27/1 948/28/1
f 949/14/1 950/13/1 951/27/1 952/28/1
f 953/14/1 954/13/1 955/27/1 956/28/1
f 957/14/1 958/13/1 959/27/1 960/28/1
f 961/14/1 962/13/1 963/27/1 964/28/1
f 965/14/1 966/13/1 967/27/1 968/28/1
f 969/14/1 970/13/1 971/27/1 972/28/1
f 973/14/1 974/13/1 975/27/1 976/28/1
f 977/13/1 978/12/1 979/29/1 980/27/1
f 981/17/1 982/23/1 983/24/1 984/18/1
f 985/15/1 986/14/1 987/28/1 988/30/1
f 989/14/1 990/13/1 991/27/1 992/28/1
f 993/14/1 994/13/1 995/27/1 996/28/1
f 997/14/1 998/13/1 999/27/1 1000/28/1
f 1001/14/1 1002/13/1 1003/27/1 1004/28/1
f 1005/14/1 1006/13/1 1007/27/1 1008/28/1
f 1009/14/1 1010/13/1 1011/27/1 1012/28/1
f 1013/14/1 1014/13/1 1015/27/1 1016/28/1
f 1017/14/1 1018/13/1 1019/27/1 1020/28/1
f 1021/14/1 1022/13/1 1023/27/1 1024/28/1
f 1025/10/1 1026/4/1 1027/26/1 1028/31/1

