# Tiled2Unity generated file. Do not modify by hand.
# Wavefront file for 'OverworldSimple_mesh_0039.obj'

# Vertices (Count = 444)
v -139.2 -119.2 0
v -140 -119.2 0
v -140 -118.4 0
v -139.2 -118.4 0
v -140 -119.2 0
v -140.8 -119.2 0
v -140.8 -118.4 0
v -140 -118.4 0
v -140.8 -119.2 0
v -141.6 -119.2 0
v -141.6 -118.4 0
v -140.8 -118.4 0
v -141.6 -119.2 0
v -142.4 -119.2 0
v -142.4 -118.4 0
v -141.6 -118.4 0
v -142.4 -119.2 0
v -143.2 -119.2 0
v -143.2 -118.4 0
v -142.4 -118.4 0
v -138.4 -120 0
v -139.2 -120 0
v -139.2 -119.2 0
v -138.4 -119.2 0
v -139.2 -120 0
v -140 -120 0
v -140 -119.2 0
v -139.2 -119.2 0
v -140 -120 0
v -140.8 -120 0
v -140.8 -119.2 0
v -140 -119.2 0
v -140.8 -120 0
v -141.6 -120 0
v -141.6 -119.2 0
v -140.8 -119.2 0
v -141.6 -120 0
v -142.4 -120 0
v -142.4 -119.2 0
v -141.6 -119.2 0
v -142.4 -120 0
v -143.2 -120 0
v -143.2 -119.2 0
v -142.4 -119.2 0
v -143.2 -120 0
v -144 -120 0
v -144 -119.2 0
v -143.2 -119.2 0
v -136.8 -122.4 0
v -137.6 -122.4 0
v -137.6 -121.6 0
v -136.8 -121.6 0
v -137.6 -122.4 0
v -138.4 -122.4 0
v -138.4 -121.6 0
v -137.6 -121.6 0
v -136.8 -123.2 0
v -137.6 -123.2 0
v -137.6 -122.4 0
v -136.8 -122.4 0
v -137.6 -123.2 0
v -138.4 -123.2 0
v -138.4 -122.4 0
v -137.6 -122.4 0
v -139.2 -123.2 0
v -140 -123.2 0
v -140 -122.4 0
v -139.2 -122.4 0
v -140 -123.2 0
v -140.8 -123.2 0
v -140.8 -122.4 0
v -140 -122.4 0
v -140.8 -123.2 0
v -141.6 -123.2 0
v -141.6 -122.4 0
v -140.8 -122.4 0
v -141.6 -123.2 0
v -142.4 -123.2 0
v -142.4 -122.4 0
v -141.6 -122.4 0
v -142.4 -123.2 0
v -143.2 -123.2 0
v -143.2 -122.4 0
v -142.4 -122.4 0
v -144 -123.2 0
v -144.8 -123.2 0
v -144.8 -122.4 0
v -144 -122.4 0
v -144.8 -123.2 0
v -145.6 -123.2 0
v -145.6 -122.4 0
v -144.8 -122.4 0
v -136.8 -124 0
v -137.6 -124 0
v -137.6 -123.2 0
v -136.8 -123.2 0
v -137.6 -124 0
v -138.4 -124 0
v -138.4 -123.2 0
v -137.6 -123.2 0
v -138.4 -124 0
v -139.2 -124 0
v -139.2 -123.2 0
v -138.4 -123.2 0
v -139.2 -124 0
v -140 -124 0
v -140 -123.2 0
v -139.2 -123.2 0
v -140 -124 0
v -140.8 -124 0
v -140.8 -123.2 0
v -140 -123.2 0
v -140.8 -124 0
v -141.6 -124 0
v -141.6 -123.2 0
v -140.8 -123.2 0
v -141.6 -124 0
v -142.4 -124 0
v -142.4 -123.2 0
v -141.6 -123.2 0
v -142.4 -124 0
v -143.2 -124 0
v -143.2 -123.2 0
v -142.4 -123.2 0
v -143.2 -124 0
v -144 -124 0
v -144 -123.2 0
v -143.2 -123.2 0
v -144 -124 0
v -144.8 -124 0
v -144.8 -123.2 0
v -144 -123.2 0
v -144.8 -124 0
v -145.6 -124 0
v -145.6 -123.2 0
v -144.8 -123.2 0
v -136.8 -124.8 0
v -137.6 -124.8 0
v -137.6 -124 0
v -136.8 -124 0
v -137.6 -124.8 0
v -138.4 -124.8 0
v -138.4 -124 0
v -137.6 -124 0
v -138.4 -124.8 0
v -139.2 -124.8 0
v -139.2 -124 0
v -138.4 -124 0
v -139.2 -124.8 0
v -140 -124.8 0
v -140 -124 0
v -139.2 -124 0
v -140 -124.8 0
v -140.8 -124.8 0
v -140.8 -124 0
v -140 -124 0
v -140.8 -124.8 0
v -141.6 -124.8 0
v -141.6 -124 0
v -140.8 -124 0
v -141.6 -124.8 0
v -142.4 -124.8 0
v -142.4 -124 0
v -141.6 -124 0
v -142.4 -124.8 0
v -143.2 -124.8 0
v -143.2 -124 0
v -142.4 -124 0
v -143.2 -124.8 0
v -144 -124.8 0
v -144 -124 0
v -143.2 -124 0
v -144 -124.8 0
v -144.8 -124.8 0
v -144.8 -124 0
v -144 -124 0
v -144.8 -124.8 0
v -145.6 -124.8 0
v -145.6 -124 0
v -144.8 -124 0
v -136.8 -125.6 0
v -137.6 -125.6 0
v -137.6 -124.8 0
v -136.8 -124.8 0
v -137.6 -125.6 0
v -138.4 -125.6 0
v -138.4 -124.8 0
v -137.6 -124.8 0
v -138.4 -125.6 0
v -139.2 -125.6 0
v -139.2 -124.8 0
v -138.4 -124.8 0
v -139.2 -125.6 0
v -140 -125.6 0
v -140 -124.8 0
v -139.2 -124.8 0
v -140 -125.6 0
v -140.8 -125.6 0
v -140.8 -124.8 0
v -140 -124.8 0
v -140.8 -125.6 0
v -141.6 -125.6 0
v -141.6 -124.8 0
v -140.8 -124.8 0
v -141.6 -125.6 0
v -142.4 -125.6 0
v -142.4 -124.8 0
v -141.6 -124.8 0
v -142.4 -125.6 0
v -143.2 -125.6 0
v -143.2 -124.8 0
v -142.4 -124.8 0
v -143.2 -125.6 0
v -144 -125.6 0
v -144 -124.8 0
v -143.2 -124.8 0
v -144 -125.6 0
v -144.8 -125.6 0
v -144.8 -124.8 0
v -144 -124.8 0
v -144.8 -125.6 0
v -145.6 -125.6 0
v -145.6 -124.8 0
v -144.8 -124.8 0
v -136.8 -126.4 0
v -137.6 -126.4 0
v -137.6 -125.6 0
v -136.8 -125.6 0
v -137.6 -126.4 0
v -138.4 -126.4 0
v -138.4 -125.6 0
v -137.6 -125.6 0
v -138.4 -126.4 0
v -139.2 -126.4 0
v -139.2 -125.6 0
v -138.4 -125.6 0
v -139.2 -126.4 0
v -140 -126.4 0
v -140 -125.6 0
v -139.2 -125.6 0
v -140 -126.4 0
v -140.8 -126.4 0
v -140.8 -125.6 0
v -140 -125.6 0
v -140.8 -126.4 0
v -141.6 -126.4 0
v -141.6 -125.6 0
v -140.8 -125.6 0
v -141.6 -126.4 0
v -142.4 -126.4 0
v -142.4 -125.6 0
v -141.6 -125.6 0
v -142.4 -126.4 0
v -143.2 -126.4 0
v -143.2 -125.6 0
v -142.4 -125.6 0
v -143.2 -126.4 0
v -144 -126.4 0
v -144 -125.6 0
v -143.2 -125.6 0
v -144 -126.4 0
v -144.8 -126.4 0
v -144.8 -125.6 0
v -144 -125.6 0
v -144.8 -126.4 0
v -145.6 -126.4 0
v -145.6 -125.6 0
v -144.8 -125.6 0
v -136.8 -127.2 0
v -137.6 -127.2 0
v -137.6 -126.4 0
v -136.8 -126.4 0
v -137.6 -127.2 0
v -138.4 -127.2 0
v -138.4 -126.4 0
v -137.6 -126.4 0
v -138.4 -127.2 0
v -139.2 -127.2 0
v -139.2 -126.4 0
v -138.4 -126.4 0
v -139.2 -127.2 0
v -140 -127.2 0
v -140 -126.4 0
v -139.2 -126.4 0
v -140 -127.2 0
v -140.8 -127.2 0
v -140.8 -126.4 0
v -140 -126.4 0
v -140.8 -127.2 0
v -141.6 -127.2 0
v -141.6 -126.4 0
v -140.8 -126.4 0
v -141.6 -127.2 0
v -142.4 -127.2 0
v -142.4 -126.4 0
v -141.6 -126.4 0
v -142.4 -127.2 0
v -143.2 -127.2 0
v -143.2 -126.4 0
v -142.4 -126.4 0
v -143.2 -127.2 0
v -144 -127.2 0
v -144 -126.4 0
v -143.2 -126.4 0
v -144 -127.2 0
v -144.8 -127.2 0
v -144.8 -126.4 0
v -144 -126.4 0
v -144.8 -127.2 0
v -145.6 -127.2 0
v -145.6 -126.4 0
v -144.8 -126.4 0
v -136.8 -128 0
v -137.6 -128 0
v -137.6 -127.2 0
v -136.8 -127.2 0
v -137.6 -128 0
v -138.4 -128 0
v -138.4 -127.2 0
v -137.6 -127.2 0
v -138.4 -128 0
v -139.2 -128 0
v -139.2 -127.2 0
v -138.4 -127.2 0
v -139.2 -128 0
v -140 -128 0
v -140 -127.2 0
v -139.2 -127.2 0
v -140 -128 0
v -140.8 -128 0
v -140.8 -127.2 0
v -140 -127.2 0
v -140.8 -128 0
v -141.6 -128 0
v -141.6 -127.2 0
v -140.8 -127.2 0
v -141.6 -128 0
v -142.4 -128 0
v -142.4 -127.2 0
v -141.6 -127.2 0
v -142.4 -128 0
v -143.2 -128 0
v -143.2 -127.2 0
v -142.4 -127.2 0
v -143.2 -128 0
v -144 -128 0
v -144 -127.2 0
v -143.2 -127.2 0
v -144 -128 0
v -144.8 -128 0
v -144.8 -127.2 0
v -144 -127.2 0
v -144.8 -128 0
v -145.6 -128 0
v -145.6 -127.2 0
v -144.8 -127.2 0
v -136.8 -128.8 0
v -137.6 -128.8 0
v -137.6 -128 0
v -136.8 -128 0
v -137.6 -128.8 0
v -138.4 -128.8 0
v -138.4 -128 0
v -137.6 -128 0
v -138.4 -128.8 0
v -139.2 -128.8 0
v -139.2 -128 0
v -138.4 -128 0
v -139.2 -128.8 0
v -140 -128.8 0
v -140 -128 0
v -139.2 -128 0
v -140 -128.8 0
v -140.8 -128.8 0
v -140.8 -128 0
v -140 -128 0
v -140.8 -128.8 0
v -141.6 -128.8 0
v -141.6 -128 0
v -140.8 -128 0
v -141.6 -128.8 0
v -142.4 -128.8 0
v -142.4 -128 0
v -141.6 -128 0
v -142.4 -128.8 0
v -143.2 -128.8 0
v -143.2 -128 0
v -142.4 -128 0
v -143.2 -128.8 0
v -144 -128.8 0
v -144 -128 0
v -143.2 -128 0
v -144 -128.8 0
v -144.8 -128.8 0
v -144.8 -128 0
v -144 -128 0
v -144.8 -128.8 0
v -145.6 -128.8 0
v -145.6 -128 0
v -144.8 -128 0
v -136.8 -129.6 0
v -137.6 -129.6 0
v -137.6 -128.8 0
v -136.8 -128.8 0
v -137.6 -129.6 0
v -138.4 -129.6 0
v -138.4 -128.8 0
v -137.6 -128.8 0
v -138.4 -129.6 0
v -139.2 -129.6 0
v -139.2 -128.8 0
v -138.4 -128.8 0
v -139.2 -129.6 0
v -140 -129.6 0
v -140 -128.8 0
v -139.2 -128.8 0
v -140 -129.6 0
v -140.8 -129.6 0
v -140.8 -128.8 0
v -140 -128.8 0
v -140.8 -129.6 0
v -141.6 -129.6 0
v -141.6 -128.8 0
v -140.8 -128.8 0
v -141.6 -129.6 0
v -142.4 -129.6 0
v -142.4 -128.8 0
v -141.6 -128.8 0
v -142.4 -129.6 0
v -143.2 -129.6 0
v -143.2 -128.8 0
v -142.4 -128.8 0
v -143.2 -129.6 0
v -144 -129.6 0
v -144 -128.8 0
v -143.2 -128.8 0
v -144 -129.6 0
v -144.8 -129.6 0
v -144.8 -128.8 0
v -144 -128.8 0
v -144.8 -129.6 0
v -145.6 -129.6 0
v -145.6 -128.8 0
v -144.8 -128.8 0

# Texture cooridinates (Count = 83)
vt 0.03125 0.1875
vt 0.0625 0.1875
vt 0.0625 0.21875
vt 0.03125 0.21875
vt 0.1875 0.65625
vt 0.21875 0.65625
vt 0.21875 0.6875
vt 0.1875 0.6875
vt 0.09375 0.1875
vt 0.09375 0.21875
vt 0 0.15625
vt 0.03125 0.15625
vt 0 0.1875
vt 0.0625 0.15625
vt 0 0.5625
vt 0.03125 0.5625
vt 0.03125 0.59375
vt 0 0.59375
vt 0.09375 0.15625
vt 0.125 0.15625
vt 0.125 0.1875
vt 0 0.375
vt 0.03125 0.375
vt 0.03125 0.40625
vt 0 0.40625
vt 0.0625 0.375
vt 0.0625 0.40625
vt 0 0.34375
vt 0.03125 0.34375
vt 0.0625 0.34375
vt 0.09375 0.34375
vt 0.09375 0.375
vt 0.125 0.34375
vt 0.125 0.375
vt 0 0.3125
vt 0.03125 0.3125
vt 0.0625 0.3125
vt 0.09375 0.3125
vt 0.125 0.3125
vt 0 0.4375
vt 0.03125 0.4375
vt 0.03125 0.46875
vt 0 0.46875
vt 0.0625 0.4375
vt 0.0625 0.46875
vt 0.125 0.53125
vt 0.15625 0.53125
vt 0.15625 0.5625
vt 0.125 0.5625
vt 0.09375 0.53125
vt 0.09375 0.5625
vt 0.0625 0.5625
vt 0.0625 0.59375
vt 0.125 0.59375
vt 0.15625 0.59375
vt 0.15625 0.625
vt 0.125 0.625
vt 0.09375 0.59375
vt 0.09375 0.625
vt 0.0625 0.625
vt 0.09375 0.96875
vt 0.125 0.96875
vt 0.125 1
vt 0.09375 1
vt 0.0625 0.96875
vt 0.0625 1
vt 0.15625 0.96875
vt 0.1875 0.96875
vt 0.1875 1
vt 0.15625 1
vt 0 0.53125
vt 0.03125 0.53125
vt 0.0625 0.53125
vt 0.0625 0.9375
vt 0.09375 0.9375
vt 0.09375 0.40625
vt 0.125 0.40625
vt 0 0.5
vt 0.03125 0.5
vt 0.0625 0.5
vt 0.09375 0.5
vt 0.0625 0.90625
vt 0.09375 0.90625

# Normal
vn 0 0 -1

# Mesh description
g OverworldSimple_mesh_0039

# Faces
f 1/1/1 2/2/1 3/3/1 4/4/1
f 5/5/1 6/6/1 7/7/1 8/8/1
f 9/5/1 10/6/1 11/7/1 12/8/1
f 13/5/1 14/6/1 15/7/1 16/8/1
f 17/2/1 18/9/1 19/10/1 20/3/1
f 21/11/1 22/12/1 23/1/1 24/13/1
f 25/12/1 26/14/1 27/2/1 28/1/1
f 29/15/1 30/16/1 31/17/1 32/18/1
f 33/15/1 34/16/1 35/17/1 36/18/1
f 37/15/1 38/16/1 39/17/1 40/18/1
f 41/14/1 42/19/1 43/9/1 44/2/1
f 45/19/1 46/20/1 47/21/1 48/9/1
f 49/22/1 50/23/1 51/24/1 52/25/1
f 53/23/1 54/26/1 55/27/1 56/24/1
f 57/28/1 58/29/1 59/23/1 60/22/1
f 61/29/1 62/30/1 63/26/1 64/23/1
f 65/1/1 66/2/1 67/3/1 68/4/1
f 69/5/1 70/6/1 71/7/1 72/8/1
f 73/5/1 74/6/1 75/7/1 76/8/1
f 77/5/1 78/6/1 79/7/1 80/8/1
f 81/2/1 82/9/1 83/10/1 84/3/1
f 85/30/1 86/31/1 87/32/1 88/26/1
f 89/31/1 90/33/1 91/34/1 92/32/1
f 93/35/1 94/36/1 95/29/1 96/28/1
f 97/36/1 98/37/1 99/30/1 100/29/1
f 101/11/1 102/12/1 103/1/1 104/13/1
f 105/12/1 106/14/1 107/2/1 108/1/1
f 109/15/1 110/16/1 111/17/1 112/18/1
f 113/15/1 114/16/1 115/17/1 116/18/1
f 117/15/1 118/16/1 119/17/1 120/18/1
f 121/14/1 122/19/1 123/9/1 124/2/1
f 125/19/1 126/20/1 127/21/1 128/9/1
f 129/37/1 130/38/1 131/31/1 132/30/1
f 133/38/1 134/39/1 135/33/1 136/31/1
f 137/40/1 138/41/1 139/42/1 140/43/1
f 141/41/1 142/44/1 143/45/1 144/42/1
f 145/46/1 146/47/1 147/48/1 148/49/1
f 149/46/1 150/47/1 151/48/1 152/49/1
f 153/46/1 154/47/1 155/48/1 156/49/1
f 157/46/1 158/47/1 159/48/1 160/49/1
f 161/46/1 162/47/1 163/48/1 164/49/1
f 165/46/1 166/47/1 167/48/1 168/49/1
f 169/50/1 170/46/1 171/49/1 172/51/1
f 173/40/1 174/41/1 175/42/1 176/43/1
f 177/41/1 178/44/1 179/45/1 180/42/1
f 181/40/1 182/41/1 183/42/1 184/43/1
f 185/41/1 186/44/1 187/45/1 188/42/1
f 189/16/1 190/52/1 191/53/1 192/17/1
f 193/16/1 194/52/1 195/53/1 196/17/1
f 197/16/1 198/52/1 199/53/1 200/17/1
f 201/16/1 202/52/1 203/53/1 204/17/1
f 205/16/1 206/52/1 207/53/1 208/17/1
f 209/16/1 210/52/1 211/53/1 212/17/1
f 213/16/1 214/52/1 215/53/1 216/17/1
f 217/40/1 218/41/1 219/42/1 220/43/1
f 221/41/1 222/44/1 223/45/1 224/42/1
f 225/40/1 226/41/1 227/42/1 228/43/1
f 229/41/1 230/44/1 231/45/1 232/42/1
f 233/16/1 234/52/1 235/53/1 236/17/1
f 237/16/1 238/52/1 239/53/1 240/17/1
f 241/16/1 242/52/1 243/53/1 244/17/1
f 245/16/1 246/52/1 247/53/1 248/17/1
f 249/16/1 250/52/1 251/53/1 252/17/1
f 253/16/1 254/52/1 255/53/1 256/17/1
f 257/16/1 258/52/1 259/53/1 260/17/1
f 261/40/1 262/41/1 263/42/1 264/43/1
f 265/41/1 266/44/1 267/45/1 268/42/1
f 269/40/1 270/41/1 271/42/1 272/43/1
f 273/41/1 274/44/1 275/45/1 276/42/1
f 277/54/1 278/55/1 279/56/1 280/57/1
f 281/53/1 282/58/1 283/59/1 284/60/1
f 285/16/1 286/52/1 287/53/1 288/17/1
f 289/16/1 290/52/1 291/53/1 292/17/1
f 293/16/1 294/52/1 295/53/1 296/17/1
f 297/53/1 298/58/1 299/59/1 300/60/1
f 301/54/1 302/55/1 303/56/1 304/57/1
f 305/40/1 306/41/1 307/42/1 308/43/1
f 309/41/1 310/44/1 311/45/1 312/42/1
f 313/40/1 314/41/1 315/42/1 316/43/1
f 317/41/1 318/44/1 319/45/1 320/42/1
f 321/61/1 322/62/1 323/63/1 324/64/1
f 325/61/1 326/62/1 327/63/1 328/64/1
f 329/61/1 330/62/1 331/63/1 332/64/1
f 333/65/1 334/61/1 335/64/1 336/66/1
f 337/67/1 338/68/1 339/69/1 340/70/1
f 341/67/1 342/68/1 343/69/1 344/70/1
f 345/67/1 346/68/1 347/69/1 348/70/1
f 349/40/1 350/41/1 351/42/1 352/43/1
f 353/41/1 354/44/1 355/45/1 356/42/1
f 357/40/1 358/41/1 359/42/1 360/43/1
f 361/41/1 362/44/1 363/45/1 364/42/1
f 365/71/1 366/72/1 367/16/1 368/15/1
f 369/72/1 370/73/1 371/52/1 372/16/1
f 373/73/1 374/50/1 375/51/1 376/52/1
f 377/74/1 378/75/1 379/61/1 380/65/1
f 381/71/1 382/72/1 383/16/1 384/15/1
f 385/72/1 386/73/1 387/52/1 388/16/1
f 389/73/1 390/50/1 391/51/1 392/52/1
f 393/40/1 394/41/1 395/42/1 396/43/1
f 397/41/1 398/44/1 399/45/1 400/42/1
f 401/26/1 402/32/1 403/76/1 404/27/1
f 405/32/1 406/34/1 407/77/1 408/76/1
f 409/78/1 410/79/1 411/72/1 412/71/1
f 413/79/1 414/80/1 415/73/1 416/72/1
f 417/80/1 418/81/1 419/50/1 420/73/1
f 421/82/1 422/83/1 423/75/1 424/74/1
f 425/78/1 426/79/1 427/72/1 428/71/1
f 429/79/1 430/80/1 431/73/1 432/72/1
f 433/80/1 434/81/1 435/50/1 436/73/1
f 437/26/1 438/32/1 439/76/1 440/27/1
f 441/32/1 442/34/1 443/77/1 444/76/1

