# Tiled2Unity generated file. Do not modify by hand.
# Wavefront file for 'OverworldSimple_mesh_0036.obj'

# Vertices (Count = 348)
v -172.8 -22.4 0
v -173.6 -22.4 0
v -173.6 -21.6 0
v -172.8 -21.6 0
v -173.6 -22.4 0
v -174.4 -22.4 0
v -174.4 -21.6 0
v -173.6 -21.6 0
v -174.4 -22.4 0
v -175.2 -22.4 0
v -175.2 -21.6 0
v -174.4 -21.6 0
v -175.2 -22.4 0
v -176 -22.4 0
v -176 -21.6 0
v -175.2 -21.6 0
v -176 -22.4 0
v -176.8 -22.4 0
v -176.8 -21.6 0
v -176 -21.6 0
v -176.8 -22.4 0
v -177.6 -22.4 0
v -177.6 -21.6 0
v -176.8 -21.6 0
v -177.6 -22.4 0
v -178.4 -22.4 0
v -178.4 -21.6 0
v -177.6 -21.6 0
v -178.4 -22.4 0
v -179.2 -22.4 0
v -179.2 -21.6 0
v -178.4 -21.6 0
v -179.2 -22.4 0
v -180 -22.4 0
v -180 -21.6 0
v -179.2 -21.6 0
v -180 -22.4 0
v -180.8 -22.4 0
v -180.8 -21.6 0
v -180 -21.6 0
v -180.8 -22.4 0
v -181.6 -22.4 0
v -181.6 -21.6 0
v -180.8 -21.6 0
v -181.6 -22.4 0
v -182.4 -22.4 0
v -182.4 -21.6 0
v -181.6 -21.6 0
v -182.4 -22.4 0
v -183.2 -22.4 0
v -183.2 -21.6 0
v -182.4 -21.6 0
v -172.8 -23.2 0
v -173.6 -23.2 0
v -173.6 -22.4 0
v -172.8 -22.4 0
v -173.6 -23.2 0
v -174.4 -23.2 0
v -174.4 -22.4 0
v -173.6 -22.4 0
v -174.4 -23.2 0
v -175.2 -23.2 0
v -175.2 -22.4 0
v -174.4 -22.4 0
v -175.2 -23.2 0
v -176 -23.2 0
v -176 -22.4 0
v -175.2 -22.4 0
v -176 -23.2 0
v -176.8 -23.2 0
v -176.8 -22.4 0
v -176 -22.4 0
v -176.8 -23.2 0
v -177.6 -23.2 0
v -177.6 -22.4 0
v -176.8 -22.4 0
v -177.6 -23.2 0
v -178.4 -23.2 0
v -178.4 -22.4 0
v -177.6 -22.4 0
v -178.4 -23.2 0
v -179.2 -23.2 0
v -179.2 -22.4 0
v -178.4 -22.4 0
v -179.2 -23.2 0
v -180 -23.2 0
v -180 -22.4 0
v -179.2 -22.4 0
v -180 -23.2 0
v -180.8 -23.2 0
v -180.8 -22.4 0
v -180 -22.4 0
v -180.8 -23.2 0
v -181.6 -23.2 0
v -181.6 -22.4 0
v -180.8 -22.4 0
v -181.6 -23.2 0
v -182.4 -23.2 0
v -182.4 -22.4 0
v -181.6 -22.4 0
v -182.4 -23.2 0
v -183.2 -23.2 0
v -183.2 -22.4 0
v -182.4 -22.4 0
v -172.8 -24 0
v -173.6 -24 0
v -173.6 -23.2 0
v -172.8 -23.2 0
v -173.6 -24 0
v -174.4 -24 0
v -174.4 -23.2 0
v -173.6 -23.2 0
v -174.4 -24 0
v -175.2 -24 0
v -175.2 -23.2 0
v -174.4 -23.2 0
v -175.2 -24 0
v -176 -24 0
v -176 -23.2 0
v -175.2 -23.2 0
v -176 -24 0
v -176.8 -24 0
v -176.8 -23.2 0
v -176 -23.2 0
v -176.8 -24 0
v -177.6 -24 0
v -177.6 -23.2 0
v -176.8 -23.2 0
v -177.6 -24 0
v -178.4 -24 0
v -178.4 -23.2 0
v -177.6 -23.2 0
v -178.4 -24 0
v -179.2 -24 0
v -179.2 -23.2 0
v -178.4 -23.2 0
v -179.2 -24 0
v -180 -24 0
v -180 -23.2 0
v -179.2 -23.2 0
v -180 -24 0
v -180.8 -24 0
v -180.8 -23.2 0
v -180 -23.2 0
v -180.8 -24 0
v -181.6 -24 0
v -181.6 -23.2 0
v -180.8 -23.2 0
v -181.6 -24 0
v -182.4 -24 0
v -182.4 -23.2 0
v -181.6 -23.2 0
v -182.4 -24 0
v -183.2 -24 0
v -183.2 -23.2 0
v -182.4 -23.2 0
v -172.8 -24.8 0
v -173.6 -24.8 0
v -173.6 -24 0
v -172.8 -24 0
v -173.6 -24.8 0
v -174.4 -24.8 0
v -174.4 -24 0
v -173.6 -24 0
v -174.4 -24.8 0
v -175.2 -24.8 0
v -175.2 -24 0
v -174.4 -24 0
v -175.2 -24.8 0
v -176 -24.8 0
v -176 -24 0
v -175.2 -24 0
v -176 -24.8 0
v -176.8 -24.8 0
v -176.8 -24 0
v -176 -24 0
v -176.8 -24.8 0
v -177.6 -24.8 0
v -177.6 -24 0
v -176.8 -24 0
v -177.6 -24.8 0
v -178.4 -24.8 0
v -178.4 -24 0
v -177.6 -24 0
v -178.4 -24.8 0
v -179.2 -24.8 0
v -179.2 -24 0
v -178.4 -24 0
v -179.2 -24.8 0
v -180 -24.8 0
v -180 -24 0
v -179.2 -24 0
v -180 -24.8 0
v -180.8 -24.8 0
v -180.8 -24 0
v -180 -24 0
v -180.8 -24.8 0
v -181.6 -24.8 0
v -181.6 -24 0
v -180.8 -24 0
v -181.6 -24.8 0
v -182.4 -24.8 0
v -182.4 -24 0
v -181.6 -24 0
v -182.4 -24.8 0
v -183.2 -24.8 0
v -183.2 -24 0
v -182.4 -24 0
v -172.8 -25.6 0
v -173.6 -25.6 0
v -173.6 -24.8 0
v -172.8 -24.8 0
v -173.6 -25.6 0
v -174.4 -25.6 0
v -174.4 -24.8 0
v -173.6 -24.8 0
v -174.4 -25.6 0
v -175.2 -25.6 0
v -175.2 -24.8 0
v -174.4 -24.8 0
v -175.2 -25.6 0
v -176 -25.6 0
v -176 -24.8 0
v -175.2 -24.8 0
v -176 -25.6 0
v -176.8 -25.6 0
v -176.8 -24.8 0
v -176 -24.8 0
v -176.8 -25.6 0
v -177.6 -25.6 0
v -177.6 -24.8 0
v -176.8 -24.8 0
v -177.6 -25.6 0
v -178.4 -25.6 0
v -178.4 -24.8 0
v -177.6 -24.8 0
v -178.4 -25.6 0
v -179.2 -25.6 0
v -179.2 -24.8 0
v -178.4 -24.8 0
v -179.2 -25.6 0
v -180 -25.6 0
v -180 -24.8 0
v -179.2 -24.8 0
v -180 -25.6 0
v -180.8 -25.6 0
v -180.8 -24.8 0
v -180 -24.8 0
v -180.8 -25.6 0
v -181.6 -25.6 0
v -181.6 -24.8 0
v -180.8 -24.8 0
v -181.6 -25.6 0
v -182.4 -25.6 0
v -182.4 -24.8 0
v -181.6 -24.8 0
v -182.4 -25.6 0
v -183.2 -25.6 0
v -183.2 -24.8 0
v -182.4 -24.8 0
v -172.8 -26.4 0
v -173.6 -26.4 0
v -173.6 -25.6 0
v -172.8 -25.6 0
v -173.6 -26.4 0
v -174.4 -26.4 0
v -174.4 -25.6 0
v -173.6 -25.6 0
v -174.4 -26.4 0
v -175.2 -26.4 0
v -175.2 -25.6 0
v -174.4 -25.6 0
v -175.2 -26.4 0
v -176 -26.4 0
v -176 -25.6 0
v -175.2 -25.6 0
v -176 -26.4 0
v -176.8 -26.4 0
v -176.8 -25.6 0
v -176 -25.6 0
v -176.8 -26.4 0
v -177.6 -26.4 0
v -177.6 -25.6 0
v -176.8 -25.6 0
v -177.6 -26.4 0
v -178.4 -26.4 0
v -178.4 -25.6 0
v -177.6 -25.6 0
v -178.4 -26.4 0
v -179.2 -26.4 0
v -179.2 -25.6 0
v -178.4 -25.6 0
v -179.2 -26.4 0
v -180 -26.4 0
v -180 -25.6 0
v -179.2 -25.6 0
v -180 -26.4 0
v -180.8 -26.4 0
v -180.8 -25.6 0
v -180 -25.6 0
v -180.8 -26.4 0
v -181.6 -26.4 0
v -181.6 -25.6 0
v -180.8 -25.6 0
v -181.6 -26.4 0
v -182.4 -26.4 0
v -182.4 -25.6 0
v -181.6 -25.6 0
v -182.4 -26.4 0
v -183.2 -26.4 0
v -183.2 -25.6 0
v -182.4 -25.6 0
v -153.6 -107.2 0
v -154.4 -107.2 0
v -154.4 -106.4 0
v -153.6 -106.4 0
v -154.4 -107.2 0
v -155.2 -107.2 0
v -155.2 -106.4 0
v -154.4 -106.4 0
v -155.2 -107.2 0
v -156 -107.2 0
v -156 -106.4 0
v -155.2 -106.4 0
v -153.6 -108 0
v -154.4 -108 0
v -154.4 -107.2 0
v -153.6 -107.2 0
v -154.4 -108 0
v -155.2 -108 0
v -155.2 -107.2 0
v -154.4 -107.2 0
v -155.2 -108 0
v -156 -108 0
v -156 -107.2 0
v -155.2 -107.2 0
v -153.6 -108.8 0
v -154.4 -108.8 0
v -154.4 -108 0
v -153.6 -108 0
v -154.4 -108.8 0
v -155.2 -108.8 0
v -155.2 -108 0
v -154.4 -108 0
v -155.2 -108.8 0
v -156 -108.8 0
v -156 -108 0
v -155.2 -108 0

# Texture cooridinates (Count = 31)
vt 0.65 0.8888889
vt 0.7 0.8888889
vt 0.7 1
vt 0.65 1
vt 0.75 0.8888889
vt 0.75 1
vt 0.8 0.8888889
vt 0.8 1
vt 0.65 0.7777778
vt 0.7 0.7777778
vt 0.1 0.5555556
vt 0.15 0.5555556
vt 0.15 0.6666667
vt 0.1 0.6666667
vt 0.75 0.7777778
vt 0.8 0.7777778
vt 0.65 0.6666667
vt 0.7 0.6666667
vt 0.75 0.6666667
vt 0.9 0.8888889
vt 0.95 0.8888889
vt 0.95 1
vt 0.9 1
vt 0.8 0.6666667
vt 0.65 0.5555556
vt 0.7 0.5555556
vt 0.75 0.5555556
vt 0.95 0.7777778
vt 1 0.7777778
vt 1 0.8888889
vt 0.8 0.5555556

# Normal
vn 0 0 -1

# Mesh description
g OverworldSimple_mesh_0036

# Faces
f 1/1/1 2/2/1 3/3/1 4/4/1
f 5/2/1 6/5/1 7/6/1 8/3/1
f 9/2/1 10/5/1 11/6/1 12/3/1
f 13/2/1 14/5/1 15/6/1 16/3/1
f 17/2/1 18/5/1 19/6/1 20/3/1
f 21/2/1 22/5/1 23/6/1 24/3/1
f 25/2/1 26/5/1 27/6/1 28/3/1
f 29/2/1 30/5/1 31/6/1 32/3/1
f 33/2/1 34/5/1 35/6/1 36/3/1
f 37/2/1 38/5/1 39/6/1 40/3/1
f 41/2/1 42/5/1 43/6/1 44/3/1
f 45/2/1 46/5/1 47/6/1 48/3/1
f 49/5/1 50/7/1 51/8/1 52/6/1
f 53/9/1 54/10/1 55/2/1 56/1/1
f 57/11/1 58/12/1 59/13/1 60/14/1
f 61/11/1 62/12/1 63/13/1 64/14/1
f 65/11/1 66/12/1 67/13/1 68/14/1
f 69/11/1 70/12/1 71/13/1 72/14/1
f 73/11/1 74/12/1 75/13/1 76/14/1
f 77/11/1 78/12/1 79/13/1 80/14/1
f 81/11/1 82/12/1 83/13/1 84/14/1
f 85/11/1 86/12/1 87/13/1 88/14/1
f 89/11/1 90/12/1 91/13/1 92/14/1
f 93/11/1 94/12/1 95/13/1 96/14/1
f 97/11/1 98/12/1 99/13/1 100/14/1
f 101/15/1 102/16/1 103/7/1 104/5/1
f 105/9/1 106/10/1 107/2/1 108/1/1
f 109/11/1 110/12/1 111/13/1 112/14/1
f 113/11/1 114/12/1 115/13/1 116/14/1
f 117/11/1 118/12/1 119/13/1 120/14/1
f 121/11/1 122/12/1 123/13/1 124/14/1
f 125/11/1 126/12/1 127/13/1 128/14/1
f 129/11/1 130/12/1 131/13/1 132/14/1
f 133/11/1 134/12/1 135/13/1 136/14/1
f 137/11/1 138/12/1 139/13/1 140/14/1
f 141/11/1 142/12/1 143/13/1 144/14/1
f 145/11/1 146/12/1 147/13/1 148/14/1
f 149/11/1 150/12/1 151/13/1 152/14/1
f 153/15/1 154/16/1 155/7/1 156/5/1
f 157/9/1 158/10/1 159/2/1 160/1/1
f 161/11/1 162/12/1 163/13/1 164/14/1
f 165/11/1 166/12/1 167/13/1 168/14/1
f 169/11/1 170/12/1 171/13/1 172/14/1
f 173/11/1 174/12/1 175/13/1 176/14/1
f 177/11/1 178/12/1 179/13/1 180/14/1
f 181/11/1 182/12/1 183/13/1 184/14/1
f 185/11/1 186/12/1 187/13/1 188/14/1
f 189/11/1 190/12/1 191/13/1 192/14/1
f 193/11/1 194/12/1 195/13/1 196/14/1
f 197/11/1 198/12/1 199/13/1 200/14/1
f 201/11/1 202/12/1 203/13/1 204/14/1
f 205/15/1 206/16/1 207/7/1 208/5/1
f 209/17/1 210/18/1 211/10/1 212/9/1
f 213/18/1 214/19/1 215/15/1 216/10/1
f 217/18/1 218/19/1 219/15/1 220/10/1
f 221/18/1 222/19/1 223/15/1 224/10/1
f 225/18/1 226/19/1 227/15/1 228/10/1
f 229/18/1 230/19/1 231/15/1 232/10/1
f 233/20/1 234/21/1 235/22/1 236/23/1
f 237/18/1 238/19/1 239/15/1 240/10/1
f 241/18/1 242/19/1 243/15/1 244/10/1
f 245/18/1 246/19/1 247/15/1 248/10/1
f 249/18/1 250/19/1 251/15/1 252/10/1
f 253/18/1 254/19/1 255/15/1 256/10/1
f 257/19/1 258/24/1 259/16/1 260/15/1
f 261/25/1 262/26/1 263/18/1 264/17/1
f 265/26/1 266/27/1 267/19/1 268/18/1
f 269/26/1 270/27/1 271/19/1 272/18/1
f 273/26/1 274/27/1 275/19/1 276/18/1
f 277/26/1 278/27/1 279/19/1 280/18/1
f 281/26/1 282/27/1 283/19/1 284/18/1
f 285/28/1 286/29/1 287/30/1 288/21/1
f 289/26/1 290/27/1 291/19/1 292/18/1
f 293/26/1 294/27/1 295/19/1 296/18/1
f 297/26/1 298/27/1 299/19/1 300/18/1
f 301/26/1 302/27/1 303/19/1 304/18/1
f 305/26/1 306/27/1 307/19/1 308/18/1
f 309/27/1 310/31/1 311/24/1 312/19/1
f 313/1/1 314/2/1 315/3/1 316/4/1
f 317/2/1 318/5/1 319/6/1 320/3/1
f 321/5/1 322/7/1 323/8/1 324/6/1
f 325/17/1 326/18/1 327/10/1 328/9/1
f 329/20/1 330/21/1 331/22/1 332/23/1
f 333/19/1 334/24/1 335/16/1 336/15/1
f 337/25/1 338/26/1 339/18/1 340/17/1
f 341/26/1 342/27/1 343/19/1 344/18/1
f 345/27/1 346/31/1 347/24/1 348/19/1

