# Tiled2Unity generated file. Do not modify by hand.
# Wavefront file for 'OverworldSimple_mesh_0026.obj'

# Vertices (Count = 156)
v -127.2 -112.8 0
v -128 -112.8 0
v -128 -112 0
v -127.2 -112 0
v -128 -112.8 0
v -128.8 -112.8 0
v -128.8 -112 0
v -128 -112 0
v -128.8 -112.8 0
v -129.6 -112.8 0
v -129.6 -112 0
v -128.8 -112 0
v -129.6 -112.8 0
v -130.4 -112.8 0
v -130.4 -112 0
v -129.6 -112 0
v -130.4 -112.8 0
v -131.2 -112.8 0
v -131.2 -112 0
v -130.4 -112 0
v -131.2 -112.8 0
v -132 -112.8 0
v -132 -112 0
v -131.2 -112 0
v -132 -112.8 0
v -132.8 -112.8 0
v -132.8 -112 0
v -132 -112 0
v -132.8 -112.8 0
v -133.6 -112.8 0
v -133.6 -112 0
v -132.8 -112 0
v -133.6 -112.8 0
v -134.4 -112.8 0
v -134.4 -112 0
v -133.6 -112 0
v -134.4 -112.8 0
v -135.2 -112.8 0
v -135.2 -112 0
v -134.4 -112 0
v -135.2 -112.8 0
v -136 -112.8 0
v -136 -112 0
v -135.2 -112 0
v -136 -112.8 0
v -136.8 -112.8 0
v -136.8 -112 0
v -136 -112 0
v -136.8 -112.8 0
v -137.6 -112.8 0
v -137.6 -112 0
v -136.8 -112 0
v -127.2 -113.6 0
v -128 -113.6 0
v -128 -112.8 0
v -127.2 -112.8 0
v -128 -113.6 0
v -128.8 -113.6 0
v -128.8 -112.8 0
v -128 -112.8 0
v -128.8 -113.6 0
v -129.6 -113.6 0
v -129.6 -112.8 0
v -128.8 -112.8 0
v -129.6 -113.6 0
v -130.4 -113.6 0
v -130.4 -112.8 0
v -129.6 -112.8 0
v -130.4 -113.6 0
v -131.2 -113.6 0
v -131.2 -112.8 0
v -130.4 -112.8 0
v -131.2 -113.6 0
v -132 -113.6 0
v -132 -112.8 0
v -131.2 -112.8 0
v -132 -113.6 0
v -132.8 -113.6 0
v -132.8 -112.8 0
v -132 -112.8 0
v -132.8 -113.6 0
v -133.6 -113.6 0
v -133.6 -112.8 0
v -132.8 -112.8 0
v -133.6 -113.6 0
v -134.4 -113.6 0
v -134.4 -112.8 0
v -133.6 -112.8 0
v -134.4 -113.6 0
v -135.2 -113.6 0
v -135.2 -112.8 0
v -134.4 -112.8 0
v -135.2 -113.6 0
v -136 -113.6 0
v -136 -112.8 0
v -135.2 -112.8 0
v -136 -113.6 0
v -136.8 -113.6 0
v -136.8 -112.8 0
v -136 -112.8 0
v -136.8 -113.6 0
v -137.6 -113.6 0
v -137.6 -112.8 0
v -136.8 -112.8 0
v -127.2 -114.4 0
v -128 -114.4 0
v -128 -113.6 0
v -127.2 -113.6 0
v -128 -114.4 0
v -128.8 -114.4 0
v -128.8 -113.6 0
v -128 -113.6 0
v -128.8 -114.4 0
v -129.6 -114.4 0
v -129.6 -113.6 0
v -128.8 -113.6 0
v -129.6 -114.4 0
v -130.4 -114.4 0
v -130.4 -113.6 0
v -129.6 -113.6 0
v -130.4 -114.4 0
v -131.2 -114.4 0
v -131.2 -113.6 0
v -130.4 -113.6 0
v -131.2 -114.4 0
v -132 -114.4 0
v -132 -113.6 0
v -131.2 -113.6 0
v -132 -114.4 0
v -132.8 -114.4 0
v -132.8 -113.6 0
v -132 -113.6 0
v -132.8 -114.4 0
v -133.6 -114.4 0
v -133.6 -113.6 0
v -132.8 -113.6 0
v -133.6 -114.4 0
v -134.4 -114.4 0
v -134.4 -113.6 0
v -133.6 -113.6 0
v -134.4 -114.4 0
v -135.2 -114.4 0
v -135.2 -113.6 0
v -134.4 -113.6 0
v -135.2 -114.4 0
v -136 -114.4 0
v -136 -113.6 0
v -135.2 -113.6 0
v -136 -114.4 0
v -136.8 -114.4 0
v -136.8 -113.6 0
v -136 -113.6 0
v -136.8 -114.4 0
v -137.6 -114.4 0
v -137.6 -113.6 0
v -136.8 -113.6 0

# Texture cooridinates (Count = 24)
vt 0.0625 0.9
vt 0.125 0.9
vt 0.125 1
vt 0.0625 1
vt 0.125 0.7
vt 0.1875 0.7
vt 0.1875 0.8
vt 0.125 0.8
vt 0.25 0.7
vt 0.25 0.8
vt 0.3125 0.7
vt 0.3125 0.8
vt 0.375 0.7
vt 0.375 0.8
vt 0.4375 0.7
vt 0.4375 0.8
vt 0.5 0.7
vt 0.5625 0.7
vt 0.5625 0.8
vt 0.5 0.8
vt 0 0.5
vt 0.0625 0.5
vt 0.0625 0.6
vt 0 0.6

# Normal
vn 0 0 -1

# Mesh description
g OverworldSimple_mesh_0026

# Faces
f 1/1/1 2/2/1 3/3/1 4/4/1
f 5/5/1 6/6/1 7/7/1 8/8/1
f 9/5/1 10/6/1 11/7/1 12/8/1
f 13/5/1 14/6/1 15/7/1 16/8/1
f 17/6/1 18/9/1 19/10/1 20/7/1
f 21/9/1 22/11/1 23/12/1 24/10/1
f 25/11/1 26/13/1 27/14/1 28/12/1
f 29/9/1 30/11/1 31/12/1 32/10/1
f 33/11/1 34/13/1 35/14/1 36/12/1
f 37/13/1 38/15/1 39/16/1 40/14/1
f 41/13/1 42/15/1 43/16/1 44/14/1
f 45/5/1 46/6/1 47/7/1 48/8/1
f 49/17/1 50/18/1 51/19/1 52/20/1
f 53/21/1 54/22/1 55/23/1 56/24/1
f 57/21/1 58/22/1 59/23/1 60/24/1
f 61/21/1 62/22/1 63/23/1 64/24/1
f 65/21/1 66/22/1 67/23/1 68/24/1
f 69/21/1 70/22/1 71/23/1 72/24/1
f 73/21/1 74/22/1 75/23/1 76/24/1
f 77/21/1 78/22/1 79/23/1 80/24/1
f 81/21/1 82/22/1 83/23/1 84/24/1
f 85/21/1 86/22/1 87/23/1 88/24/1
f 89/21/1 90/22/1 91/23/1 92/24/1
f 93/21/1 94/22/1 95/23/1 96/24/1
f 97/21/1 98/22/1 99/23/1 100/24/1
f 101/21/1 102/22/1 103/23/1 104/24/1
f 105/21/1 106/22/1 107/23/1 108/24/1
f 109/21/1 110/22/1 111/23/1 112/24/1
f 113/21/1 114/22/1 115/23/1 116/24/1
f 117/21/1 118/22/1 119/23/1 120/24/1
f 121/21/1 122/22/1 123/23/1 124/24/1
f 125/21/1 126/22/1 127/23/1 128/24/1
f 129/21/1 130/22/1 131/23/1 132/24/1
f 133/21/1 134/22/1 135/23/1 136/24/1
f 137/21/1 138/22/1 139/23/1 140/24/1
f 141/21/1 142/22/1 143/23/1 144/24/1
f 145/21/1 146/22/1 147/23/1 148/24/1
f 149/21/1 150/22/1 151/23/1 152/24/1
f 153/21/1 154/22/1 155/23/1 156/24/1

