# Tiled2Unity generated file. Do not modify by hand.
# Wavefront file for 'OverworldSimple_mesh_0038.obj'

# Vertices (Count = 280)
v -96 -160.8 0
v -96.8 -160.8 0
v -96.8 -160 0
v -96 -160 0
v -96.8 -160.8 0
v -97.6 -160.8 0
v -97.6 -160 0
v -96.8 -160 0
v -97.6 -160.8 0
v -98.4 -160.8 0
v -98.4 -160 0
v -97.6 -160 0
v -98.4 -160.8 0
v -99.2 -160.8 0
v -99.2 -160 0
v -98.4 -160 0
v -99.2 -160.8 0
v -100 -160.8 0
v -100 -160 0
v -99.2 -160 0
v -96 -161.6 0
v -96.8 -161.6 0
v -96.8 -160.8 0
v -96 -160.8 0
v -96.8 -161.6 0
v -97.6 -161.6 0
v -97.6 -160.8 0
v -96.8 -160.8 0
v -97.6 -161.6 0
v -98.4 -161.6 0
v -98.4 -160.8 0
v -97.6 -160.8 0
v -98.4 -161.6 0
v -99.2 -161.6 0
v -99.2 -160.8 0
v -98.4 -160.8 0
v -99.2 -161.6 0
v -100 -161.6 0
v -100 -160.8 0
v -99.2 -160.8 0
v -96 -162.4 0
v -96.8 -162.4 0
v -96.8 -161.6 0
v -96 -161.6 0
v -96.8 -162.4 0
v -97.6 -162.4 0
v -97.6 -161.6 0
v -96.8 -161.6 0
v -97.6 -162.4 0
v -98.4 -162.4 0
v -98.4 -161.6 0
v -97.6 -161.6 0
v -98.4 -162.4 0
v -99.2 -162.4 0
v -99.2 -161.6 0
v -98.4 -161.6 0
v -99.2 -162.4 0
v -100 -162.4 0
v -100 -161.6 0
v -99.2 -161.6 0
v -96 -163.2 0
v -96.8 -163.2 0
v -96.8 -162.4 0
v -96 -162.4 0
v -96.8 -163.2 0
v -97.6 -163.2 0
v -97.6 -162.4 0
v -96.8 -162.4 0
v -97.6 -163.2 0
v -98.4 -163.2 0
v -98.4 -162.4 0
v -97.6 -162.4 0
v -98.4 -163.2 0
v -99.2 -163.2 0
v -99.2 -162.4 0
v -98.4 -162.4 0
v -99.2 -163.2 0
v -100 -163.2 0
v -100 -162.4 0
v -99.2 -162.4 0
v -79.2 -164 0
v -80 -164 0
v -80 -163.2 0
v -79.2 -163.2 0
v -80 -164 0
v -80.8 -164 0
v -80.8 -163.2 0
v -80 -163.2 0
v -80.8 -164 0
v -81.6 -164 0
v -81.6 -163.2 0
v -80.8 -163.2 0
v -81.6 -164 0
v -82.4 -164 0
v -82.4 -163.2 0
v -81.6 -163.2 0
v -82.4 -164 0
v -83.2 -164 0
v -83.2 -163.2 0
v -82.4 -163.2 0
v -96 -164 0
v -96.8 -164 0
v -96.8 -163.2 0
v -96 -163.2 0
v -96.8 -164 0
v -97.6 -164 0
v -97.6 -163.2 0
v -96.8 -163.2 0
v -97.6 -164 0
v -98.4 -164 0
v -98.4 -163.2 0
v -97.6 -163.2 0
v -98.4 -164 0
v -99.2 -164 0
v -99.2 -163.2 0
v -98.4 -163.2 0
v -99.2 -164 0
v -100 -164 0
v -100 -163.2 0
v -99.2 -163.2 0
v -79.2 -164.8 0
v -80 -164.8 0
v -80 -164 0
v -79.2 -164 0
v -80 -164.8 0
v -80.8 -164.8 0
v -80.8 -164 0
v -80 -164 0
v -80.8 -164.8 0
v -81.6 -164.8 0
v -81.6 -164 0
v -80.8 -164 0
v -81.6 -164.8 0
v -82.4 -164.8 0
v -82.4 -164 0
v -81.6 -164 0
v -82.4 -164.8 0
v -83.2 -164.8 0
v -83.2 -164 0
v -82.4 -164 0
v -96 -164.8 0
v -96.8 -164.8 0
v -96.8 -164 0
v -96 -164 0
v -96.8 -164.8 0
v -97.6 -164.8 0
v -97.6 -164 0
v -96.8 -164 0
v -97.6 -164.8 0
v -98.4 -164.8 0
v -98.4 -164 0
v -97.6 -164 0
v -98.4 -164.8 0
v -99.2 -164.8 0
v -99.2 -164 0
v -98.4 -164 0
v -99.2 -164.8 0
v -100 -164.8 0
v -100 -164 0
v -99.2 -164 0
v -79.2 -165.6 0
v -80 -165.6 0
v -80 -164.8 0
v -79.2 -164.8 0
v -80 -165.6 0
v -80.8 -165.6 0
v -80.8 -164.8 0
v -80 -164.8 0
v -80.8 -165.6 0
v -81.6 -165.6 0
v -81.6 -164.8 0
v -80.8 -164.8 0
v -81.6 -165.6 0
v -82.4 -165.6 0
v -82.4 -164.8 0
v -81.6 -164.8 0
v -82.4 -165.6 0
v -83.2 -165.6 0
v -83.2 -164.8 0
v -82.4 -164.8 0
v -96 -165.6 0
v -96.8 -165.6 0
v -96.8 -164.8 0
v -96 -164.8 0
v -96.8 -165.6 0
v -97.6 -165.6 0
v -97.6 -164.8 0
v -96.8 -164.8 0
v -97.6 -165.6 0
v -98.4 -165.6 0
v -98.4 -164.8 0
v -97.6 -164.8 0
v -98.4 -165.6 0
v -99.2 -165.6 0
v -99.2 -164.8 0
v -98.4 -164.8 0
v -99.2 -165.6 0
v -100 -165.6 0
v -100 -164.8 0
v -99.2 -164.8 0
v -79.2 -166.4 0
v -80 -166.4 0
v -80 -165.6 0
v -79.2 -165.6 0
v -80 -166.4 0
v -80.8 -166.4 0
v -80.8 -165.6 0
v -80 -165.6 0
v -80.8 -166.4 0
v -81.6 -166.4 0
v -81.6 -165.6 0
v -80.8 -165.6 0
v -81.6 -166.4 0
v -82.4 -166.4 0
v -82.4 -165.6 0
v -81.6 -165.6 0
v -82.4 -166.4 0
v -83.2 -166.4 0
v -83.2 -165.6 0
v -82.4 -165.6 0
v -79.2 -167.2 0
v -80 -167.2 0
v -80 -166.4 0
v -79.2 -166.4 0
v -80 -167.2 0
v -80.8 -167.2 0
v -80.8 -166.4 0
v -80 -166.4 0
v -80.8 -167.2 0
v -81.6 -167.2 0
v -81.6 -166.4 0
v -80.8 -166.4 0
v -81.6 -167.2 0
v -82.4 -167.2 0
v -82.4 -166.4 0
v -81.6 -166.4 0
v -82.4 -167.2 0
v -83.2 -167.2 0
v -83.2 -166.4 0
v -82.4 -166.4 0
v -79.2 -168 0
v -80 -168 0
v -80 -167.2 0
v -79.2 -167.2 0
v -80 -168 0
v -80.8 -168 0
v -80.8 -167.2 0
v -80 -167.2 0
v -80.8 -168 0
v -81.6 -168 0
v -81.6 -167.2 0
v -80.8 -167.2 0
v -81.6 -168 0
v -82.4 -168 0
v -82.4 -167.2 0
v -81.6 -167.2 0
v -82.4 -168 0
v -83.2 -168 0
v -83.2 -167.2 0
v -82.4 -167.2 0
v -79.2 -168.8 0
v -80 -168.8 0
v -80 -168 0
v -79.2 -168 0
v -80 -168.8 0
v -80.8 -168.8 0
v -80.8 -168 0
v -80 -168 0
v -80.8 -168.8 0
v -81.6 -168.8 0
v -81.6 -168 0
v -80.8 -168 0
v -81.6 -168.8 0
v -82.4 -168.8 0
v -82.4 -168 0
v -81.6 -168 0
v -82.4 -168.8 0
v -83.2 -168.8 0
v -83.2 -168 0
v -82.4 -168 0

# Texture cooridinates (Count = 48)
vt 0 0.8596491
vt 0.196319 0.8596491
vt 0.196319 1
vt 0 1
vt 0.392638 0.8596491
vt 0.392638 1
vt 0.5889571 0.8596491
vt 0.5889571 1
vt 0.7852761 0.8596491
vt 0.7852761 1
vt 0.9815951 0.8596491
vt 0.9815951 1
vt 0 0.7192982
vt 0.196319 0.7192982
vt 0.392638 0.7192982
vt 0.5889571 0.7192982
vt 0.7852761 0.7192982
vt 0.9815951 0.7192982
vt 0 0.5789474
vt 0.196319 0.5789474
vt 0.392638 0.5789474
vt 0.5889571 0.5789474
vt 0.7852761 0.5789474
vt 0.9815951 0.5789474
vt 0 0.4385965
vt 0.196319 0.4385965
vt 0.392638 0.4385965
vt 0.5889571 0.4385965
vt 0.7852761 0.4385965
vt 0.9815951 0.4385965
vt 0 0.2982456
vt 0.196319 0.2982456
vt 0.392638 0.2982456
vt 0.5889571 0.2982456
vt 0.7852761 0.2982456
vt 0.9815951 0.2982456
vt 0 0.1578947
vt 0.196319 0.1578947
vt 0.392638 0.1578947
vt 0.5889571 0.1578947
vt 0.7852761 0.1578947
vt 0.9815951 0.1578947
vt 0 0.01754386
vt 0.196319 0.01754386
vt 0.392638 0.01754386
vt 0.5889571 0.01754386
vt 0.7852761 0.01754386
vt 0.9815951 0.01754386

# Normal
vn 0 0 -1

# Mesh description
g OverworldSimple_mesh_0038

# Faces
f 1/1/1 2/2/1 3/3/1 4/4/1
f 5/2/1 6/5/1 7/6/1 8/3/1
f 9/5/1 10/7/1 11/8/1 12/6/1
f 13/7/1 14/9/1 15/10/1 16/8/1
f 17/9/1 18/11/1 19/12/1 20/10/1
f 21/13/1 22/14/1 23/2/1 24/1/1
f 25/14/1 26/15/1 27/5/1 28/2/1
f 29/15/1 30/16/1 31/7/1 32/5/1
f 33/16/1 34/17/1 35/9/1 36/7/1
f 37/17/1 38/18/1 39/11/1 40/9/1
f 41/19/1 42/20/1 43/14/1 44/13/1
f 45/20/1 46/21/1 47/15/1 48/14/1
f 49/21/1 50/22/1 51/16/1 52/15/1
f 53/22/1 54/23/1 55/17/1 56/16/1
f 57/23/1 58/24/1 59/18/1 60/17/1
f 61/25/1 62/26/1 63/20/1 64/19/1
f 65/26/1 66/27/1 67/21/1 68/20/1
f 69/27/1 70/28/1 71/22/1 72/21/1
f 73/28/1 74/29/1 75/23/1 76/22/1
f 77/29/1 78/30/1 79/24/1 80/23/1
f 81/1/1 82/2/1 83/3/1 84/4/1
f 85/2/1 86/5/1 87/6/1 88/3/1
f 89/5/1 90/7/1 91/8/1 92/6/1
f 93/7/1 94/9/1 95/10/1 96/8/1
f 97/9/1 98/11/1 99/12/1 100/10/1
f 101/31/1 102/32/1 103/26/1 104/25/1
f 105/32/1 106/33/1 107/27/1 108/26/1
f 109/33/1 110/34/1 111/28/1 112/27/1
f 113/34/1 114/35/1 115/29/1 116/28/1
f 117/35/1 118/36/1 119/30/1 120/29/1
f 121/13/1 122/14/1 123/2/1 124/1/1
f 125/14/1 126/15/1 127/5/1 128/2/1
f 129/15/1 130/16/1 131/7/1 132/5/1
f 133/16/1 134/17/1 135/9/1 136/7/1
f 137/17/1 138/18/1 139/11/1 140/9/1
f 141/37/1 142/38/1 143/32/1 144/31/1
f 145/38/1 146/39/1 147/33/1 148/32/1
f 149/39/1 150/40/1 151/34/1 152/33/1
f 153/40/1 154/41/1 155/35/1 156/34/1
f 157/41/1 158/42/1 159/36/1 160/35/1
f 161/19/1 162/20/1 163/14/1 164/13/1
f 165/20/1 166/21/1 167/15/1 168/14/1
f 169/21/1 170/22/1 171/16/1 172/15/1
f 173/22/1 174/23/1 175/17/1 176/16/1
f 177/23/1 178/24/1 179/18/1 180/17/1
f 181/43/1 182/44/1 183/38/1 184/37/1
f 185/44/1 186/45/1 187/39/1 188/38/1
f 189/45/1 190/46/1 191/40/1 192/39/1
f 193/46/1 194/47/1 195/41/1 196/40/1
f 197/47/1 198/48/1 199/42/1 200/41/1
f 201/25/1 202/26/1 203/20/1 204/19/1
f 205/26/1 206/27/1 207/21/1 208/20/1
f 209/27/1 210/28/1 211/22/1 212/21/1
f 213/28/1 214/29/1 215/23/1 216/22/1
f 217/29/1 218/30/1 219/24/1 220/23/1
f 221/31/1 222/32/1 223/26/1 224/25/1
f 225/32/1 226/33/1 227/27/1 228/26/1
f 229/33/1 230/34/1 231/28/1 232/27/1
f 233/34/1 234/35/1 235/29/1 236/28/1
f 237/35/1 238/36/1 239/30/1 240/29/1
f 241/37/1 242/38/1 243/32/1 244/31/1
f 245/38/1 246/39/1 247/33/1 248/32/1
f 249/39/1 250/40/1 251/34/1 252/33/1
f 253/40/1 254/41/1 255/35/1 256/34/1
f 257/41/1 258/42/1 259/36/1 260/35/1
f 261/43/1 262/44/1 263/38/1 264/37/1
f 265/44/1 266/45/1 267/39/1 268/38/1
f 269/45/1 270/46/1 271/40/1 272/39/1
f 273/46/1 274/47/1 275/41/1 276/40/1
f 277/47/1 278/48/1 279/42/1 280/41/1

