# Tiled2Unity generated file. Do not modify by hand.
# Wavefront file for 'OverworldSimple_mesh_0022.obj'

# Vertices (Count = 380)
v -139.2 -107.2 0
v -140 -107.2 0
v -140 -106.4 0
v -139.2 -106.4 0
v -140 -107.2 0
v -140.8 -107.2 0
v -140.8 -106.4 0
v -140 -106.4 0
v -137.6 -108 0
v -138.4 -108 0
v -138.4 -107.2 0
v -137.6 -107.2 0
v -138.4 -108 0
v -139.2 -108 0
v -139.2 -107.2 0
v -138.4 -107.2 0
v -139.2 -108 0
v -140 -108 0
v -140 -107.2 0
v -139.2 -107.2 0
v -140 -108 0
v -140.8 -108 0
v -140.8 -107.2 0
v -140 -107.2 0
v -140.8 -108 0
v -141.6 -108 0
v -141.6 -107.2 0
v -140.8 -107.2 0
v -141.6 -108 0
v -142.4 -108 0
v -142.4 -107.2 0
v -141.6 -107.2 0
v -137.6 -108.8 0
v -138.4 -108.8 0
v -138.4 -108 0
v -137.6 -108 0
v -139.2 -108.8 0
v -140 -108.8 0
v -140 -108 0
v -139.2 -108 0
v -136 -109.6 0
v -136.8 -109.6 0
v -136.8 -108.8 0
v -136 -108.8 0
v -136.8 -109.6 0
v -137.6 -109.6 0
v -137.6 -108.8 0
v -136.8 -108.8 0
v -137.6 -109.6 0
v -138.4 -109.6 0
v -138.4 -108.8 0
v -137.6 -108.8 0
v -138.4 -109.6 0
v -139.2 -109.6 0
v -139.2 -108.8 0
v -138.4 -108.8 0
v -135.2 -110.4 0
v -136 -110.4 0
v -136 -109.6 0
v -135.2 -109.6 0
v -136 -110.4 0
v -136.8 -110.4 0
v -136.8 -109.6 0
v -136 -109.6 0
v -137.6 -110.4 0
v -138.4 -110.4 0
v -138.4 -109.6 0
v -137.6 -109.6 0
v -127.2 -111.2 0
v -128 -111.2 0
v -128 -110.4 0
v -127.2 -110.4 0
v -134.4 -111.2 0
v -135.2 -111.2 0
v -135.2 -110.4 0
v -134.4 -110.4 0
v -135.2 -111.2 0
v -136 -111.2 0
v -136 -110.4 0
v -135.2 -110.4 0
v -136.8 -111.2 0
v -137.6 -111.2 0
v -137.6 -110.4 0
v -136.8 -110.4 0
v -127.2 -112 0
v -128 -112 0
v -128 -111.2 0
v -127.2 -111.2 0
v -128 -112 0
v -128.8 -112 0
v -128.8 -111.2 0
v -128 -111.2 0
v -128.8 -112 0
v -129.6 -112 0
v -129.6 -111.2 0
v -128.8 -111.2 0
v -129.6 -112 0
v -130.4 -112 0
v -130.4 -111.2 0
v -129.6 -111.2 0
v -130.4 -112 0
v -131.2 -112 0
v -131.2 -111.2 0
v -130.4 -111.2 0
v -131.2 -112 0
v -132 -112 0
v -132 -111.2 0
v -131.2 -111.2 0
v -132 -112 0
v -132.8 -112 0
v -132.8 -111.2 0
v -132 -111.2 0
v -132.8 -112 0
v -133.6 -112 0
v -133.6 -111.2 0
v -132.8 -111.2 0
v -133.6 -112 0
v -134.4 -112 0
v -134.4 -111.2 0
v -133.6 -111.2 0
v -134.4 -112 0
v -135.2 -112 0
v -135.2 -111.2 0
v -134.4 -111.2 0
v -135.2 -112 0
v -136 -112 0
v -136 -111.2 0
v -135.2 -111.2 0
v -136 -112 0
v -136.8 -112 0
v -136.8 -111.2 0
v -136 -111.2 0
v -136.8 -112 0
v -137.6 -112 0
v -137.6 -111.2 0
v -136.8 -111.2 0
v -127.2 -112.8 0
v -128 -112.8 0
v -128 -112 0
v -127.2 -112 0
v -128 -112.8 0
v -128.8 -112.8 0
v -128.8 -112 0
v -128 -112 0
v -128.8 -112.8 0
v -129.6 -112.8 0
v -129.6 -112 0
v -128.8 -112 0
v -129.6 -112.8 0
v -130.4 -112.8 0
v -130.4 -112 0
v -129.6 -112 0
v -130.4 -112.8 0
v -131.2 -112.8 0
v -131.2 -112 0
v -130.4 -112 0
v -131.2 -112.8 0
v -132 -112.8 0
v -132 -112 0
v -131.2 -112 0
v -132 -112.8 0
v -132.8 -112.8 0
v -132.8 -112 0
v -132 -112 0
v -132.8 -112.8 0
v -133.6 -112.8 0
v -133.6 -112 0
v -132.8 -112 0
v -133.6 -112.8 0
v -134.4 -112.8 0
v -134.4 -112 0
v -133.6 -112 0
v -134.4 -112.8 0
v -135.2 -112.8 0
v -135.2 -112 0
v -134.4 -112 0
v -135.2 -112.8 0
v -136 -112.8 0
v -136 -112 0
v -135.2 -112 0
v -136 -112.8 0
v -136.8 -112.8 0
v -136.8 -112 0
v -136 -112 0
v -136.8 -112.8 0
v -137.6 -112.8 0
v -137.6 -112 0
v -136.8 -112 0
v -128 -113.6 0
v -128.8 -113.6 0
v -128.8 -112.8 0
v -128 -112.8 0
v -128.8 -113.6 0
v -129.6 -113.6 0
v -129.6 -112.8 0
v -128.8 -112.8 0
v -129.6 -113.6 0
v -130.4 -113.6 0
v -130.4 -112.8 0
v -129.6 -112.8 0
v -130.4 -113.6 0
v -131.2 -113.6 0
v -131.2 -112.8 0
v -130.4 -112.8 0
v -131.2 -113.6 0
v -132 -113.6 0
v -132 -112.8 0
v -131.2 -112.8 0
v -132 -113.6 0
v -132.8 -113.6 0
v -132.8 -112.8 0
v -132 -112.8 0
v -127.2 -114.4 0
v -128 -114.4 0
v -128 -113.6 0
v -127.2 -113.6 0
v -128.8 -114.4 0
v -129.6 -114.4 0
v -129.6 -113.6 0
v -128.8 -113.6 0
v -129.6 -114.4 0
v -130.4 -114.4 0
v -130.4 -113.6 0
v -129.6 -113.6 0
v -126.4 -115.2 0
v -127.2 -115.2 0
v -127.2 -114.4 0
v -126.4 -114.4 0
v -127.2 -115.2 0
v -128 -115.2 0
v -128 -114.4 0
v -127.2 -114.4 0
v -128 -115.2 0
v -128.8 -115.2 0
v -128.8 -114.4 0
v -128 -114.4 0
v -126.4 -116 0
v -127.2 -116 0
v -127.2 -115.2 0
v -126.4 -115.2 0
v -127.2 -116 0
v -128 -116 0
v -128 -115.2 0
v -127.2 -115.2 0
v -126.4 -116.8 0
v -127.2 -116.8 0
v -127.2 -116 0
v -126.4 -116 0
v -127.2 -116.8 0
v -128 -116.8 0
v -128 -116 0
v -127.2 -116 0
v -125.6 -117.6 0
v -126.4 -117.6 0
v -126.4 -116.8 0
v -125.6 -116.8 0
v -126.4 -117.6 0
v -127.2 -117.6 0
v -127.2 -116.8 0
v -126.4 -116.8 0
v -127.2 -117.6 0
v -128 -117.6 0
v -128 -116.8 0
v -127.2 -116.8 0
v -124.8 -118.4 0
v -125.6 -118.4 0
v -125.6 -117.6 0
v -124.8 -117.6 0
v -125.6 -118.4 0
v -126.4 -118.4 0
v -126.4 -117.6 0
v -125.6 -117.6 0
v -126.4 -118.4 0
v -127.2 -118.4 0
v -127.2 -117.6 0
v -126.4 -117.6 0
v -124.8 -119.2 0
v -125.6 -119.2 0
v -125.6 -118.4 0
v -124.8 -118.4 0
v -126.4 -119.2 0
v -127.2 -119.2 0
v -127.2 -118.4 0
v -126.4 -118.4 0
v -124 -120 0
v -124.8 -120 0
v -124.8 -119.2 0
v -124 -119.2 0
v -124.8 -120 0
v -125.6 -120 0
v -125.6 -119.2 0
v -124.8 -119.2 0
v -125.6 -120 0
v -126.4 -120 0
v -126.4 -119.2 0
v -125.6 -119.2 0
v -123.2 -120.8 0
v -124 -120.8 0
v -124 -120 0
v -123.2 -120 0
v -124 -120.8 0
v -124.8 -120.8 0
v -124.8 -120 0
v -124 -120 0
v -124.8 -120.8 0
v -125.6 -120.8 0
v -125.6 -120 0
v -124.8 -120 0
v -122.4 -121.6 0
v -123.2 -121.6 0
v -123.2 -120.8 0
v -122.4 -120.8 0
v -123.2 -121.6 0
v -124 -121.6 0
v -124 -120.8 0
v -123.2 -120.8 0
v -124 -121.6 0
v -124.8 -121.6 0
v -124.8 -120.8 0
v -124 -120.8 0
v -122.4 -122.4 0
v -123.2 -122.4 0
v -123.2 -121.6 0
v -122.4 -121.6 0
v -123.2 -122.4 0
v -124 -122.4 0
v -124 -121.6 0
v -123.2 -121.6 0
v -121.6 -123.2 0
v -122.4 -123.2 0
v -122.4 -122.4 0
v -121.6 -122.4 0
v -122.4 -123.2 0
v -123.2 -123.2 0
v -123.2 -122.4 0
v -122.4 -122.4 0
v -123.2 -123.2 0
v -124 -123.2 0
v -124 -122.4 0
v -123.2 -122.4 0
v -120.8 -124 0
v -121.6 -124 0
v -121.6 -123.2 0
v -120.8 -123.2 0
v -121.6 -124 0
v -122.4 -124 0
v -122.4 -123.2 0
v -121.6 -123.2 0
v -122.4 -124 0
v -123.2 -124 0
v -123.2 -123.2 0
v -122.4 -123.2 0
v -120.8 -124.8 0
v -121.6 -124.8 0
v -121.6 -124 0
v -120.8 -124 0
v -121.6 -124.8 0
v -122.4 -124.8 0
v -122.4 -124 0
v -121.6 -124 0
v -120.8 -125.6 0
v -121.6 -125.6 0
v -121.6 -124.8 0
v -120.8 -124.8 0
v -121.6 -125.6 0
v -122.4 -125.6 0
v -122.4 -124.8 0
v -121.6 -124.8 0
v -120.8 -126.4 0
v -121.6 -126.4 0
v -121.6 -125.6 0
v -120.8 -125.6 0
v -121.6 -126.4 0
v -122.4 -126.4 0
v -122.4 -125.6 0
v -121.6 -125.6 0
v -121.6 -127.2 0
v -122.4 -127.2 0
v -122.4 -126.4 0
v -121.6 -126.4 0

# Texture cooridinates (Count = 44)
vt 0.45 0.7777778
vt 0.5 0.7777778
vt 0.5 0.8888889
vt 0.45 0.8888889
vt 0.55 0.8888889
vt 0.6 0.8888889
vt 0.6 1
vt 0.55 1
vt 0.55 0.7777778
vt 0.6 0.7777778
vt 0.5 1
vt 0.45 1
vt 0.55 0.5555556
vt 0.6 0.5555556
vt 0.6 0.6666667
vt 0.55 0.6666667
vt 0.5 0.6666667
vt 0.65 0.8888889
vt 0.7 0.8888889
vt 0.7 1
vt 0.65 1
vt 0.65 0.7777778
vt 0.7 0.7777778
vt 0.1 0.5555556
vt 0.15 0.5555556
vt 0.15 0.6666667
vt 0.1 0.6666667
vt 0.8 0.8888889
vt 0.85 0.8888889
vt 0.85 1
vt 0.8 1
vt 0.9 0.8888889
vt 0.9 1
vt 0.75 0.7777778
vt 0.8 0.7777778
vt 0.75 0.8888889
vt 0.65 0.6666667
vt 0.7 0.6666667
vt 0.85 0.7777778
vt 0.9 0.7777778
vt 0.75 0.6666667
vt 0.8 0.6666667
vt 0.4 0.7777778
vt 0.4 0.8888889

# Normal
vn 0 0 -1

# Mesh description
g OverworldSimple_mesh_0022

# Faces
f 1/1/1 2/2/1 3/3/1 4/4/1
f 5/5/1 6/6/1 7/7/1 8/8/1
f 9/1/1 10/2/1 11/3/1 12/4/1
f 13/9/1 14/10/1 15/6/1 16/5/1
f 17/5/1 18/6/1 19/7/1 20/8/1
f 21/4/1 22/3/1 23/11/1 24/12/1
f 25/4/1 26/3/1 27/11/1 28/12/1
f 29/4/1 30/3/1 31/11/1 32/12/1
f 33/13/1 34/14/1 35/15/1 36/16/1
f 37/17/1 38/16/1 39/9/1 40/2/1
f 41/1/1 42/2/1 43/3/1 44/4/1
f 45/9/1 46/10/1 47/6/1 48/5/1
f 49/5/1 50/6/1 51/7/1 52/8/1
f 53/17/1 54/16/1 55/9/1 56/2/1
f 57/1/1 58/2/1 59/3/1 60/4/1
f 61/5/1 62/6/1 63/7/1 64/8/1
f 65/17/1 66/16/1 67/9/1 68/2/1
f 69/18/1 70/19/1 71/20/1 72/21/1
f 73/1/1 74/2/1 75/3/1 76/4/1
f 77/5/1 78/6/1 79/7/1 80/8/1
f 81/17/1 82/16/1 83/9/1 84/2/1
f 85/22/1 86/23/1 87/19/1 88/18/1
f 89/24/1 90/25/1 91/26/1 92/27/1
f 93/24/1 94/25/1 95/26/1 96/27/1
f 97/24/1 98/25/1 99/26/1 100/27/1
f 101/28/1 102/29/1 103/30/1 104/31/1
f 105/29/1 106/32/1 107/33/1 108/30/1
f 109/28/1 110/29/1 111/30/1 112/31/1
f 113/29/1 114/32/1 115/33/1 116/30/1
f 117/28/1 118/29/1 119/30/1 120/31/1
f 121/29/1 122/32/1 123/33/1 124/30/1
f 125/24/1 126/25/1 127/26/1 128/27/1
f 129/24/1 130/25/1 131/26/1 132/27/1
f 133/34/1 134/35/1 135/28/1 136/36/1
f 137/37/1 138/38/1 139/23/1 140/22/1
f 141/24/1 142/25/1 143/26/1 144/27/1
f 145/24/1 146/25/1 147/26/1 148/27/1
f 149/24/1 150/25/1 151/26/1 152/27/1
f 153/35/1 154/39/1 155/29/1 156/28/1
f 157/39/1 158/40/1 159/32/1 160/29/1
f 161/35/1 162/39/1 163/29/1 164/28/1
f 165/39/1 166/40/1 167/32/1 168/29/1
f 169/35/1 170/39/1 171/29/1 172/28/1
f 173/39/1 174/40/1 175/32/1 176/29/1
f 177/24/1 178/25/1 179/26/1 180/27/1
f 181/24/1 182/25/1 183/26/1 184/27/1
f 185/41/1 186/42/1 187/35/1 188/34/1
f 189/1/1 190/2/1 191/3/1 192/4/1
f 193/9/1 194/10/1 195/6/1 196/5/1
f 197/5/1 198/6/1 199/7/1 200/8/1
f 201/4/1 202/3/1 203/11/1 204/12/1
f 205/4/1 206/3/1 207/11/1 208/12/1
f 209/17/1 210/16/1 211/9/1 212/2/1
f 213/1/1 214/2/1 215/3/1 216/4/1
f 217/4/1 218/3/1 219/11/1 220/12/1
f 221/17/1 222/16/1 223/9/1 224/2/1
f 225/1/1 226/2/1 227/3/1 228/4/1
f 229/5/1 230/6/1 231/7/1 232/8/1
f 233/17/1 234/16/1 235/9/1 236/2/1
f 237/13/1 238/14/1 239/15/1 240/16/1
f 241/43/1 242/1/1 243/4/1 244/44/1
f 245/13/1 246/14/1 247/15/1 248/16/1
f 249/43/1 250/1/1 251/4/1 252/44/1
f 253/1/1 254/2/1 255/3/1 256/4/1
f 257/5/1 258/6/1 259/7/1 260/8/1
f 261/17/1 262/16/1 263/9/1 264/2/1
f 265/1/1 266/2/1 267/3/1 268/4/1
f 269/5/1 270/6/1 271/7/1 272/8/1
f 273/43/1 274/1/1 275/4/1 276/44/1
f 277/13/1 278/14/1 279/15/1 280/16/1
f 281/17/1 282/16/1 283/9/1 284/2/1
f 285/1/1 286/2/1 287/3/1 288/4/1
f 289/5/1 290/6/1 291/7/1 292/8/1
f 293/17/1 294/16/1 295/9/1 296/2/1
f 297/1/1 298/2/1 299/3/1 300/4/1
f 301/5/1 302/6/1 303/7/1 304/8/1
f 305/17/1 306/16/1 307/9/1 308/2/1
f 309/1/1 310/2/1 311/3/1 312/4/1
f 313/5/1 314/6/1 315/7/1 316/8/1
f 317/17/1 318/16/1 319/9/1 320/2/1
f 321/13/1 322/14/1 323/15/1 324/16/1
f 325/43/1 326/1/1 327/4/1 328/44/1
f 329/1/1 330/2/1 331/3/1 332/4/1
f 333/5/1 334/6/1 335/7/1 336/8/1
f 337/17/1 338/16/1 339/9/1 340/2/1
f 341/1/1 342/2/1 343/3/1 344/4/1
f 345/5/1 346/6/1 347/7/1 348/8/1
f 349/17/1 350/16/1 351/9/1 352/2/1
f 353/13/1 354/14/1 355/15/1 356/16/1
f 357/43/1 358/1/1 359/4/1 360/44/1
f 361/13/1 362/14/1 363/15/1 364/16/1
f 365/43/1 366/1/1 367/4/1 368/44/1
f 369/5/1 370/6/1 371/7/1 372/8/1
f 373/43/1 374/1/1 375/4/1 376/44/1
f 377/43/1 378/1/1 379/4/1 380/44/1

