# Tiled2Unity generated file. Do not modify by hand.
# Wavefront file for 'OverworldSimple_mesh_0028.obj'

# Vertices (Count = 420)
v -89.6 -24.8 0
v -90.4 -24.8 0
v -90.4 -24 0
v -89.6 -24 0
v -90.4 -24.8 0
v -91.2 -24.8 0
v -91.2 -24 0
v -90.4 -24 0
v -91.2 -24.8 0
v -92 -24.8 0
v -92 -24 0
v -91.2 -24 0
v -92 -24.8 0
v -92.8 -24.8 0
v -92.8 -24 0
v -92 -24 0
v -92.8 -24.8 0
v -93.6 -24.8 0
v -93.6 -24 0
v -92.8 -24 0
v -89.6 -25.6 0
v -90.4 -25.6 0
v -90.4 -24.8 0
v -89.6 -24.8 0
v -90.4 -25.6 0
v -91.2 -25.6 0
v -91.2 -24.8 0
v -90.4 -24.8 0
v -91.2 -25.6 0
v -92 -25.6 0
v -92 -24.8 0
v -91.2 -24.8 0
v -92 -25.6 0
v -92.8 -25.6 0
v -92.8 -24.8 0
v -92 -24.8 0
v -92.8 -25.6 0
v -93.6 -25.6 0
v -93.6 -24.8 0
v -92.8 -24.8 0
v -89.6 -26.4 0
v -90.4 -26.4 0
v -90.4 -25.6 0
v -89.6 -25.6 0
v -90.4 -26.4 0
v -91.2 -26.4 0
v -91.2 -25.6 0
v -90.4 -25.6 0
v -91.2 -26.4 0
v -92 -26.4 0
v -92 -25.6 0
v -91.2 -25.6 0
v -92 -26.4 0
v -92.8 -26.4 0
v -92.8 -25.6 0
v -92 -25.6 0
v -92.8 -26.4 0
v -93.6 -26.4 0
v -93.6 -25.6 0
v -92.8 -25.6 0
v -89.6 -27.2 0
v -90.4 -27.2 0
v -90.4 -26.4 0
v -89.6 -26.4 0
v -90.4 -27.2 0
v -91.2 -27.2 0
v -91.2 -26.4 0
v -90.4 -26.4 0
v -91.2 -27.2 0
v -92 -27.2 0
v -92 -26.4 0
v -91.2 -26.4 0
v -92 -27.2 0
v -92.8 -27.2 0
v -92.8 -26.4 0
v -92 -26.4 0
v -92.8 -27.2 0
v -93.6 -27.2 0
v -93.6 -26.4 0
v -92.8 -26.4 0
v -89.6 -28 0
v -90.4 -28 0
v -90.4 -27.2 0
v -89.6 -27.2 0
v -90.4 -28 0
v -91.2 -28 0
v -91.2 -27.2 0
v -90.4 -27.2 0
v -91.2 -28 0
v -92 -28 0
v -92 -27.2 0
v -91.2 -27.2 0
v -92 -28 0
v -92.8 -28 0
v -92.8 -27.2 0
v -92 -27.2 0
v -92.8 -28 0
v -93.6 -28 0
v -93.6 -27.2 0
v -92.8 -27.2 0
v -89.6 -28.8 0
v -90.4 -28.8 0
v -90.4 -28 0
v -89.6 -28 0
v -90.4 -28.8 0
v -91.2 -28.8 0
v -91.2 -28 0
v -90.4 -28 0
v -91.2 -28.8 0
v -92 -28.8 0
v -92 -28 0
v -91.2 -28 0
v -92 -28.8 0
v -92.8 -28.8 0
v -92.8 -28 0
v -92 -28 0
v -92.8 -28.8 0
v -93.6 -28.8 0
v -93.6 -28 0
v -92.8 -28 0
v -89.6 -29.6 0
v -90.4 -29.6 0
v -90.4 -28.8 0
v -89.6 -28.8 0
v -90.4 -29.6 0
v -91.2 -29.6 0
v -91.2 -28.8 0
v -90.4 -28.8 0
v -91.2 -29.6 0
v -92 -29.6 0
v -92 -28.8 0
v -91.2 -28.8 0
v -92 -29.6 0
v -92.8 -29.6 0
v -92.8 -28.8 0
v -92 -28.8 0
v -92.8 -29.6 0
v -93.6 -29.6 0
v -93.6 -28.8 0
v -92.8 -28.8 0
v -84.8 -31.2 0
v -85.6 -31.2 0
v -85.6 -30.4 0
v -84.8 -30.4 0
v -85.6 -31.2 0
v -86.4 -31.2 0
v -86.4 -30.4 0
v -85.6 -30.4 0
v -86.4 -31.2 0
v -87.2 -31.2 0
v -87.2 -30.4 0
v -86.4 -30.4 0
v -87.2 -31.2 0
v -88 -31.2 0
v -88 -30.4 0
v -87.2 -30.4 0
v -88 -31.2 0
v -88.8 -31.2 0
v -88.8 -30.4 0
v -88 -30.4 0
v -84.8 -32 0
v -85.6 -32 0
v -85.6 -31.2 0
v -84.8 -31.2 0
v -85.6 -32 0
v -86.4 -32 0
v -86.4 -31.2 0
v -85.6 -31.2 0
v -86.4 -32 0
v -87.2 -32 0
v -87.2 -31.2 0
v -86.4 -31.2 0
v -87.2 -32 0
v -88 -32 0
v -88 -31.2 0
v -87.2 -31.2 0
v -88 -32 0
v -88.8 -32 0
v -88.8 -31.2 0
v -88 -31.2 0
v -84.8 -32.8 0
v -85.6 -32.8 0
v -85.6 -32 0
v -84.8 -32 0
v -85.6 -32.8 0
v -86.4 -32.8 0
v -86.4 -32 0
v -85.6 -32 0
v -86.4 -32.8 0
v -87.2 -32.8 0
v -87.2 -32 0
v -86.4 -32 0
v -87.2 -32.8 0
v -88 -32.8 0
v -88 -32 0
v -87.2 -32 0
v -88 -32.8 0
v -88.8 -32.8 0
v -88.8 -32 0
v -88 -32 0
v -84.8 -33.6 0
v -85.6 -33.6 0
v -85.6 -32.8 0
v -84.8 -32.8 0
v -85.6 -33.6 0
v -86.4 -33.6 0
v -86.4 -32.8 0
v -85.6 -32.8 0
v -86.4 -33.6 0
v -87.2 -33.6 0
v -87.2 -32.8 0
v -86.4 -32.8 0
v -87.2 -33.6 0
v -88 -33.6 0
v -88 -32.8 0
v -87.2 -32.8 0
v -88 -33.6 0
v -88.8 -33.6 0
v -88.8 -32.8 0
v -88 -32.8 0
v -84.8 -34.4 0
v -85.6 -34.4 0
v -85.6 -33.6 0
v -84.8 -33.6 0
v -85.6 -34.4 0
v -86.4 -34.4 0
v -86.4 -33.6 0
v -85.6 -33.6 0
v -86.4 -34.4 0
v -87.2 -34.4 0
v -87.2 -33.6 0
v -86.4 -33.6 0
v -87.2 -34.4 0
v -88 -34.4 0
v -88 -33.6 0
v -87.2 -33.6 0
v -88 -34.4 0
v -88.8 -34.4 0
v -88.8 -33.6 0
v -88 -33.6 0
v -84.8 -35.2 0
v -85.6 -35.2 0
v -85.6 -34.4 0
v -84.8 -34.4 0
v -85.6 -35.2 0
v -86.4 -35.2 0
v -86.4 -34.4 0
v -85.6 -34.4 0
v -86.4 -35.2 0
v -87.2 -35.2 0
v -87.2 -34.4 0
v -86.4 -34.4 0
v -87.2 -35.2 0
v -88 -35.2 0
v -88 -34.4 0
v -87.2 -34.4 0
v -88 -35.2 0
v -88.8 -35.2 0
v -88.8 -34.4 0
v -88 -34.4 0
v -84.8 -36 0
v -85.6 -36 0
v -85.6 -35.2 0
v -84.8 -35.2 0
v -85.6 -36 0
v -86.4 -36 0
v -86.4 -35.2 0
v -85.6 -35.2 0
v -86.4 -36 0
v -87.2 -36 0
v -87.2 -35.2 0
v -86.4 -35.2 0
v -87.2 -36 0
v -88 -36 0
v -88 -35.2 0
v -87.2 -35.2 0
v -88 -36 0
v -88.8 -36 0
v -88.8 -35.2 0
v -88 -35.2 0
v -98.4 -36 0
v -99.2 -36 0
v -99.2 -35.2 0
v -98.4 -35.2 0
v -99.2 -36 0
v -100 -36 0
v -100 -35.2 0
v -99.2 -35.2 0
v -100 -36 0
v -100.8 -36 0
v -100.8 -35.2 0
v -100 -35.2 0
v -100.8 -36 0
v -101.6 -36 0
v -101.6 -35.2 0
v -100.8 -35.2 0
v -101.6 -36 0
v -102.4 -36 0
v -102.4 -35.2 0
v -101.6 -35.2 0
v -98.4 -36.8 0
v -99.2 -36.8 0
v -99.2 -36 0
v -98.4 -36 0
v -99.2 -36.8 0
v -100 -36.8 0
v -100 -36 0
v -99.2 -36 0
v -100 -36.8 0
v -100.8 -36.8 0
v -100.8 -36 0
v -100 -36 0
v -100.8 -36.8 0
v -101.6 -36.8 0
v -101.6 -36 0
v -100.8 -36 0
v -101.6 -36.8 0
v -102.4 -36.8 0
v -102.4 -36 0
v -101.6 -36 0
v -98.4 -37.6 0
v -99.2 -37.6 0
v -99.2 -36.8 0
v -98.4 -36.8 0
v -99.2 -37.6 0
v -100 -37.6 0
v -100 -36.8 0
v -99.2 -36.8 0
v -100 -37.6 0
v -100.8 -37.6 0
v -100.8 -36.8 0
v -100 -36.8 0
v -100.8 -37.6 0
v -101.6 -37.6 0
v -101.6 -36.8 0
v -100.8 -36.8 0
v -101.6 -37.6 0
v -102.4 -37.6 0
v -102.4 -36.8 0
v -101.6 -36.8 0
v -98.4 -38.4 0
v -99.2 -38.4 0
v -99.2 -37.6 0
v -98.4 -37.6 0
v -99.2 -38.4 0
v -100 -38.4 0
v -100 -37.6 0
v -99.2 -37.6 0
v -100 -38.4 0
v -100.8 -38.4 0
v -100.8 -37.6 0
v -100 -37.6 0
v -100.8 -38.4 0
v -101.6 -38.4 0
v -101.6 -37.6 0
v -100.8 -37.6 0
v -101.6 -38.4 0
v -102.4 -38.4 0
v -102.4 -37.6 0
v -101.6 -37.6 0
v -98.4 -39.2 0
v -99.2 -39.2 0
v -99.2 -38.4 0
v -98.4 -38.4 0
v -99.2 -39.2 0
v -100 -39.2 0
v -100 -38.4 0
v -99.2 -38.4 0
v -100 -39.2 0
v -100.8 -39.2 0
v -100.8 -38.4 0
v -100 -38.4 0
v -100.8 -39.2 0
v -101.6 -39.2 0
v -101.6 -38.4 0
v -100.8 -38.4 0
v -101.6 -39.2 0
v -102.4 -39.2 0
v -102.4 -38.4 0
v -101.6 -38.4 0
v -98.4 -40 0
v -99.2 -40 0
v -99.2 -39.2 0
v -98.4 -39.2 0
v -99.2 -40 0
v -100 -40 0
v -100 -39.2 0
v -99.2 -39.2 0
v -100 -40 0
v -100.8 -40 0
v -100.8 -39.2 0
v -100 -39.2 0
v -100.8 -40 0
v -101.6 -40 0
v -101.6 -39.2 0
v -100.8 -39.2 0
v -101.6 -40 0
v -102.4 -40 0
v -102.4 -39.2 0
v -101.6 -39.2 0
v -98.4 -40.8 0
v -99.2 -40.8 0
v -99.2 -40 0
v -98.4 -40 0
v -99.2 -40.8 0
v -100 -40.8 0
v -100 -40 0
v -99.2 -40 0
v -100 -40.8 0
v -100.8 -40.8 0
v -100.8 -40 0
v -100 -40 0
v -100.8 -40.8 0
v -101.6 -40.8 0
v -101.6 -40 0
v -100.8 -40 0
v -101.6 -40.8 0
v -102.4 -40.8 0
v -102.4 -40 0
v -101.6 -40 0

# Texture cooridinates (Count = 48)
vt 0 0.8596491
vt 0.196319 0.8596491
vt 0.196319 1
vt 0 1
vt 0.392638 0.8596491
vt 0.392638 1
vt 0.5889571 0.8596491
vt 0.5889571 1
vt 0.7852761 0.8596491
vt 0.7852761 1
vt 0.9815951 0.8596491
vt 0.9815951 1
vt 0 0.7192982
vt 0.196319 0.7192982
vt 0.392638 0.7192982
vt 0.5889571 0.7192982
vt 0.7852761 0.7192982
vt 0.9815951 0.7192982
vt 0 0.5789474
vt 0.196319 0.5789474
vt 0.392638 0.5789474
vt 0.5889571 0.5789474
vt 0.7852761 0.5789474
vt 0.9815951 0.5789474
vt 0 0.4385965
vt 0.196319 0.4385965
vt 0.392638 0.4385965
vt 0.5889571 0.4385965
vt 0.7852761 0.4385965
vt 0.9815951 0.4385965
vt 0 0.2982456
vt 0.196319 0.2982456
vt 0.392638 0.2982456
vt 0.5889571 0.2982456
vt 0.7852761 0.2982456
vt 0.9815951 0.2982456
vt 0 0.1578947
vt 0.196319 0.1578947
vt 0.392638 0.1578947
vt 0.5889571 0.1578947
vt 0.7852761 0.1578947
vt 0.9815951 0.1578947
vt 0 0.01754386
vt 0.196319 0.01754386
vt 0.392638 0.01754386
vt 0.5889571 0.01754386
vt 0.7852761 0.01754386
vt 0.9815951 0.01754386

# Normal
vn 0 0 -1

# Mesh description
g OverworldSimple_mesh_0028

# Faces
f 1/1/1 2/2/1 3/3/1 4/4/1
f 5/2/1 6/5/1 7/6/1 8/3/1
f 9/5/1 10/7/1 11/8/1 12/6/1
f 13/7/1 14/9/1 15/10/1 16/8/1
f 17/9/1 18/11/1 19/12/1 20/10/1
f 21/13/1 22/14/1 23/2/1 24/1/1
f 25/14/1 26/15/1 27/5/1 28/2/1
f 29/15/1 30/16/1 31/7/1 32/5/1
f 33/16/1 34/17/1 35/9/1 36/7/1
f 37/17/1 38/18/1 39/11/1 40/9/1
f 41/19/1 42/20/1 43/14/1 44/13/1
f 45/20/1 46/21/1 47/15/1 48/14/1
f 49/21/1 50/22/1 51/16/1 52/15/1
f 53/22/1 54/23/1 55/17/1 56/16/1
f 57/23/1 58/24/1 59/18/1 60/17/1
f 61/25/1 62/26/1 63/20/1 64/19/1
f 65/26/1 66/27/1 67/21/1 68/20/1
f 69/27/1 70/28/1 71/22/1 72/21/1
f 73/28/1 74/29/1 75/23/1 76/22/1
f 77/29/1 78/30/1 79/24/1 80/23/1
f 81/31/1 82/32/1 83/26/1 84/25/1
f 85/32/1 86/33/1 87/27/1 88/26/1
f 89/33/1 90/34/1 91/28/1 92/27/1
f 93/34/1 94/35/1 95/29/1 96/28/1
f 97/35/1 98/36/1 99/30/1 100/29/1
f 101/37/1 102/38/1 103/32/1 104/31/1
f 105/38/1 106/39/1 107/33/1 108/32/1
f 109/39/1 110/40/1 111/34/1 112/33/1
f 113/40/1 114/41/1 115/35/1 116/34/1
f 117/41/1 118/42/1 119/36/1 120/35/1
f 121/43/1 122/44/1 123/38/1 124/37/1
f 125/44/1 126/45/1 127/39/1 128/38/1
f 129/45/1 130/46/1 131/40/1 132/39/1
f 133/46/1 134/47/1 135/41/1 136/40/1
f 137/47/1 138/48/1 139/42/1 140/41/1
f 141/1/1 142/2/1 143/3/1 144/4/1
f 145/2/1 146/5/1 147/6/1 148/3/1
f 149/5/1 150/7/1 151/8/1 152/6/1
f 153/7/1 154/9/1 155/10/1 156/8/1
f 157/9/1 158/11/1 159/12/1 160/10/1
f 161/13/1 162/14/1 163/2/1 164/1/1
f 165/14/1 166/15/1 167/5/1 168/2/1
f 169/15/1 170/16/1 171/7/1 172/5/1
f 173/16/1 174/17/1 175/9/1 176/7/1
f 177/17/1 178/18/1 179/11/1 180/9/1
f 181/19/1 182/20/1 183/14/1 184/13/1
f 185/20/1 186/21/1 187/15/1 188/14/1
f 189/21/1 190/22/1 191/16/1 192/15/1
f 193/22/1 194/23/1 195/17/1 196/16/1
f 197/23/1 198/24/1 199/18/1 200/17/1
f 201/25/1 202/26/1 203/20/1 204/19/1
f 205/26/1 206/27/1 207/21/1 208/20/1
f 209/27/1 210/28/1 211/22/1 212/21/1
f 213/28/1 214/29/1 215/23/1 216/22/1
f 217/29/1 218/30/1 219/24/1 220/23/1
f 221/31/1 222/32/1 223/26/1 224/25/1
f 225/32/1 226/33/1 227/27/1 228/26/1
f 229/33/1 230/34/1 231/28/1 232/27/1
f 233/34/1 234/35/1 235/29/1 236/28/1
f 237/35/1 238/36/1 239/30/1 240/29/1
f 241/37/1 242/38/1 243/32/1 244/31/1
f 245/38/1 246/39/1 247/33/1 248/32/1
f 249/39/1 250/40/1 251/34/1 252/33/1
f 253/40/1 254/41/1 255/35/1 256/34/1
f 257/41/1 258/42/1 259/36/1 260/35/1
f 261/43/1 262/44/1 263/38/1 264/37/1
f 265/44/1 266/45/1 267/39/1 268/38/1
f 269/45/1 270/46/1 271/40/1 272/39/1
f 273/46/1 274/47/1 275/41/1 276/40/1
f 277/47/1 278/48/1 279/42/1 280/41/1
f 281/1/1 282/2/1 283/3/1 284/4/1
f 285/2/1 286/5/1 287/6/1 288/3/1
f 289/5/1 290/7/1 291/8/1 292/6/1
f 293/7/1 294/9/1 295/10/1 296/8/1
f 297/9/1 298/11/1 299/12/1 300/10/1
f 301/13/1 302/14/1 303/2/1 304/1/1
f 305/14/1 306/15/1 307/5/1 308/2/1
f 309/15/1 310/16/1 311/7/1 312/5/1
f 313/16/1 314/17/1 315/9/1 316/7/1
f 317/17/1 318/18/1 319/11/1 320/9/1
f 321/19/1 322/20/1 323/14/1 324/13/1
f 325/20/1 326/21/1 327/15/1 328/14/1
f 329/21/1 330/22/1 331/16/1 332/15/1
f 333/22/1 334/23/1 335/17/1 336/16/1
f 337/23/1 338/24/1 339/18/1 340/17/1
f 341/25/1 342/26/1 343/20/1 344/19/1
f 345/26/1 346/27/1 347/21/1 348/20/1
f 349/27/1 350/28/1 351/22/1 352/21/1
f 353/28/1 354/29/1 355/23/1 356/22/1
f 357/29/1 358/30/1 359/24/1 360/23/1
f 361/31/1 362/32/1 363/26/1 364/25/1
f 365/32/1 366/33/1 367/27/1 368/26/1
f 369/33/1 370/34/1 371/28/1 372/27/1
f 373/34/1 374/35/1 375/29/1 376/28/1
f 377/35/1 378/36/1 379/30/1 380/29/1
f 381/37/1 382/38/1 383/32/1 384/31/1
f 385/38/1 386/39/1 387/33/1 388/32/1
f 389/39/1 390/40/1 391/34/1 392/33/1
f 393/40/1 394/41/1 395/35/1 396/34/1
f 397/41/1 398/42/1 399/36/1 400/35/1
f 401/43/1 402/44/1 403/38/1 404/37/1
f 405/44/1 406/45/1 407/39/1 408/38/1
f 409/45/1 410/46/1 411/40/1 412/39/1
f 413/46/1 414/47/1 415/41/1 416/40/1
f 417/47/1 418/48/1 419/42/1 420/41/1

