# Tiled2Unity generated file. Do not modify by hand.
# Wavefront file for 'OverworldSimple_mesh_0036.obj'

# Vertices (Count = 16)
v -136.8 -124 0
v -137.6 -124 0
v -137.6 -123.2 0
v -136.8 -123.2 0
v -137.6 -124 0
v -138.4 -124 0
v -138.4 -123.2 0
v -137.6 -123.2 0
v -144 -124 0
v -144.8 -124 0
v -144.8 -123.2 0
v -144 -123.2 0
v -144.8 -124 0
v -145.6 -124 0
v -145.6 -123.2 0
v -144.8 -123.2 0

# Texture cooridinates (Count = 4)
vt 0.71875 0.5
vt 0.75 0.5
vt 0.75 0.53125
vt 0.71875 0.53125

# Normal
vn 0 0 -1

# Mesh description
g OverworldSimple_mesh_0036

# Faces
f 1/1/1 2/2/1 3/3/1 4/4/1
f 5/1/1 6/2/1 7/3/1 8/4/1
f 9/1/1 10/2/1 11/3/1 12/4/1
f 13/1/1 14/2/1 15/3/1 16/4/1

