# Tiled2Unity generated file. Do not modify by hand.
# Wavefront file for 'OverworldSimple_mesh_0025.obj'

# Vertices (Count = 96)
v -139.2 -108 0
v -140 -108 0
v -140 -107.2 0
v -139.2 -107.2 0
v -138.4 -108.8 0
v -139.2 -108.8 0
v -139.2 -108 0
v -138.4 -108 0
v -137.6 -109.6 0
v -138.4 -109.6 0
v -138.4 -108.8 0
v -137.6 -108.8 0
v -127.2 -111.2 0
v -128 -111.2 0
v -128 -110.4 0
v -127.2 -110.4 0
v -128 -111.2 0
v -128.8 -111.2 0
v -128.8 -110.4 0
v -128 -110.4 0
v -128.8 -111.2 0
v -129.6 -111.2 0
v -129.6 -110.4 0
v -128.8 -110.4 0
v -129.6 -111.2 0
v -130.4 -111.2 0
v -130.4 -110.4 0
v -129.6 -110.4 0
v -130.4 -111.2 0
v -131.2 -111.2 0
v -131.2 -110.4 0
v -130.4 -110.4 0
v -131.2 -111.2 0
v -132 -111.2 0
v -132 -110.4 0
v -131.2 -110.4 0
v -132 -111.2 0
v -132.8 -111.2 0
v -132.8 -110.4 0
v -132 -110.4 0
v -132.8 -111.2 0
v -133.6 -111.2 0
v -133.6 -110.4 0
v -132.8 -110.4 0
v -133.6 -111.2 0
v -134.4 -111.2 0
v -134.4 -110.4 0
v -133.6 -110.4 0
v -134.4 -111.2 0
v -135.2 -111.2 0
v -135.2 -110.4 0
v -134.4 -110.4 0
v -135.2 -111.2 0
v -136 -111.2 0
v -136 -110.4 0
v -135.2 -110.4 0
v -136 -111.2 0
v -136.8 -111.2 0
v -136.8 -110.4 0
v -136 -110.4 0
v -136.8 -111.2 0
v -137.6 -111.2 0
v -137.6 -110.4 0
v -136.8 -110.4 0
v -126.4 -117.6 0
v -127.2 -117.6 0
v -127.2 -116.8 0
v -126.4 -116.8 0
v -125.6 -119.2 0
v -126.4 -119.2 0
v -126.4 -118.4 0
v -125.6 -118.4 0
v -124.8 -120 0
v -125.6 -120 0
v -125.6 -119.2 0
v -124.8 -119.2 0
v -124 -120.8 0
v -124.8 -120.8 0
v -124.8 -120 0
v -124 -120 0
v -123.2 -121.6 0
v -124 -121.6 0
v -124 -120.8 0
v -123.2 -120.8 0
v -122.4 -123.2 0
v -123.2 -123.2 0
v -123.2 -122.4 0
v -122.4 -122.4 0
v -121.6 -124 0
v -122.4 -124 0
v -122.4 -123.2 0
v -121.6 -123.2 0
v -122.4 -128.8 0
v -123.2 -128.8 0
v -123.2 -128 0
v -122.4 -128 0

# Texture cooridinates (Count = 16)
vt 0.4 0.8888889
vt 0.45 0.8888889
vt 0.45 1
vt 0.4 1
vt 0.65 0.8888889
vt 0.7 0.8888889
vt 0.7 1
vt 0.65 1
vt 0.75 0.8888889
vt 0.75 1
vt 0.8 0.8888889
vt 0.8 1
vt 0.55 0.6666667
vt 0.6 0.6666667
vt 0.6 0.7777778
vt 0.55 0.7777778

# Normal
vn 0 0 -1

# Mesh description
g OverworldSimple_mesh_0025

# Faces
f 1/1/1 2/2/1 3/3/1 4/4/1
f 5/1/1 6/2/1 7/3/1 8/4/1
f 9/1/1 10/2/1 11/3/1 12/4/1
f 13/5/1 14/6/1 15/7/1 16/8/1
f 17/6/1 18/9/1 19/10/1 20/7/1
f 21/6/1 22/9/1 23/10/1 24/7/1
f 25/6/1 26/9/1 27/10/1 28/7/1
f 29/6/1 30/9/1 31/10/1 32/7/1
f 33/6/1 34/9/1 35/10/1 36/7/1
f 37/6/1 38/9/1 39/10/1 40/7/1
f 41/6/1 42/9/1 43/10/1 44/7/1
f 45/6/1 46/9/1 47/10/1 48/7/1
f 49/6/1 50/9/1 51/10/1 52/7/1
f 53/6/1 54/9/1 55/10/1 56/7/1
f 57/6/1 58/9/1 59/10/1 60/7/1
f 61/9/1 62/11/1 63/12/1 64/10/1
f 65/1/1 66/2/1 67/3/1 68/4/1
f 69/1/1 70/2/1 71/3/1 72/4/1
f 73/1/1 74/2/1 75/3/1 76/4/1
f 77/1/1 78/2/1 79/3/1 80/4/1
f 81/1/1 82/2/1 83/3/1 84/4/1
f 85/1/1 86/2/1 87/3/1 88/4/1
f 89/1/1 90/2/1 91/3/1 92/4/1
f 93/13/1 94/14/1 95/15/1 96/16/1

