# Tiled2Unity generated file. Do not modify by hand.
# Wavefront file for 'CharBedroom_mesh_0002.obj'

# Vertices (Count = 224)
v -0.8 -1.6 0
v -1.6 -1.6 0
v -1.6 -0.8 0
v -0.8 -0.8 0
v -1.6 -1.6 0
v -2.4 -1.6 0
v -2.4 -0.8 0
v -1.6 -0.8 0
v -2.4 -1.6 0
v -3.2 -1.6 0
v -3.2 -0.8 0
v -2.4 -0.8 0
v -3.2 -1.6 0
v -4 -1.6 0
v -4 -0.8 0
v -3.2 -0.8 0
v -4 -1.6 0
v -4.8 -1.6 0
v -4.8 -0.8 0
v -4 -0.8 0
v -4.8 -1.6 0
v -5.6 -1.6 0
v -5.6 -0.8 0
v -4.8 -0.8 0
v -5.6 -1.6 0
v -6.4 -1.6 0
v -6.4 -0.8 0
v -5.6 -0.8 0
v -6.4 -1.6 0
v -7.2 -1.6 0
v -7.2 -0.8 0
v -6.4 -0.8 0
v -7.2 -1.6 0
v -8 -1.6 0
v -8 -0.8 0
v -7.2 -0.8 0
v -15.2 -1.6 0
v -16 -1.6 0
v -16 -0.8 0
v -15.2 -0.8 0
v -16 -1.6 0
v -16.8 -1.6 0
v -16.8 -0.8 0
v -16 -0.8 0
v -16.8 -1.6 0
v -17.6 -1.6 0
v -17.6 -0.8 0
v -16.8 -0.8 0
v -0.8 -2.4 0
v -1.6 -2.4 0
v -1.6 -1.6 0
v -0.8 -1.6 0
v -1.6 -2.4 0
v -2.4 -2.4 0
v -2.4 -1.6 0
v -1.6 -1.6 0
v -2.4 -2.4 0
v -3.2 -2.4 0
v -3.2 -1.6 0
v -2.4 -1.6 0
v -3.2 -2.4 0
v -4 -2.4 0
v -4 -1.6 0
v -3.2 -1.6 0
v -4 -2.4 0
v -4.8 -2.4 0
v -4.8 -1.6 0
v -4 -1.6 0
v -4.8 -2.4 0
v -5.6 -2.4 0
v -5.6 -1.6 0
v -4.8 -1.6 0
v -5.6 -2.4 0
v -6.4 -2.4 0
v -6.4 -1.6 0
v -5.6 -1.6 0
v -6.4 -2.4 0
v -7.2 -2.4 0
v -7.2 -1.6 0
v -6.4 -1.6 0
v -7.2 -2.4 0
v -8 -2.4 0
v -8 -1.6 0
v -7.2 -1.6 0
v -15.2 -2.4 0
v -16 -2.4 0
v -16 -1.6 0
v -15.2 -1.6 0
v -16 -2.4 0
v -16.8 -2.4 0
v -16.8 -1.6 0
v -16 -1.6 0
v -16.8 -2.4 0
v -17.6 -2.4 0
v -17.6 -1.6 0
v -16.8 -1.6 0
v -2.4 -7.2 0
v -3.2 -7.2 0
v -3.2 -6.4 0
v -2.4 -6.4 0
v -3.2 -7.2 0
v -4 -7.2 0
v -4 -6.4 0
v -3.2 -6.4 0
v -4 -7.2 0
v -4.8 -7.2 0
v -4.8 -6.4 0
v -4 -6.4 0
v -4.8 -7.2 0
v -5.6 -7.2 0
v -5.6 -6.4 0
v -4.8 -6.4 0
v -5.6 -7.2 0
v -6.4 -7.2 0
v -6.4 -6.4 0
v -5.6 -6.4 0
v -6.4 -7.2 0
v -7.2 -7.2 0
v -7.2 -6.4 0
v -6.4 -6.4 0
v -7.2 -7.2 0
v -8 -7.2 0
v -8 -6.4 0
v -7.2 -6.4 0
v -8 -7.2 0
v -8.8 -7.2 0
v -8.8 -6.4 0
v -8 -6.4 0
v -8.8 -7.2 0
v -9.6 -7.2 0
v -9.6 -6.4 0
v -8.8 -6.4 0
v -9.6 -7.2 0
v -10.4 -7.2 0
v -10.4 -6.4 0
v -9.6 -6.4 0
v -10.4 -7.2 0
v -11.2 -7.2 0
v -11.2 -6.4 0
v -10.4 -6.4 0
v -11.2 -7.2 0
v -12 -7.2 0
v -12 -6.4 0
v -11.2 -6.4 0
v -12 -7.2 0
v -12.8 -7.2 0
v -12.8 -6.4 0
v -12 -6.4 0
v -12.8 -7.2 0
v -13.6 -7.2 0
v -13.6 -6.4 0
v -12.8 -6.4 0
v -13.6 -7.2 0
v -14.4 -7.2 0
v -14.4 -6.4 0
v -13.6 -6.4 0
v -14.4 -7.2 0
v -15.2 -7.2 0
v -15.2 -6.4 0
v -14.4 -6.4 0
v -2.4 -8 0
v -3.2 -8 0
v -3.2 -7.2 0
v -2.4 -7.2 0
v -3.2 -8 0
v -4 -8 0
v -4 -7.2 0
v -3.2 -7.2 0
v -4 -8 0
v -4.8 -8 0
v -4.8 -7.2 0
v -4 -7.2 0
v -4.8 -8 0
v -5.6 -8 0
v -5.6 -7.2 0
v -4.8 -7.2 0
v -5.6 -8 0
v -6.4 -8 0
v -6.4 -7.2 0
v -5.6 -7.2 0
v -6.4 -8 0
v -7.2 -8 0
v -7.2 -7.2 0
v -6.4 -7.2 0
v -7.2 -8 0
v -8 -8 0
v -8 -7.2 0
v -7.2 -7.2 0
v -8 -8 0
v -8.8 -8 0
v -8.8 -7.2 0
v -8 -7.2 0
v -8.8 -8 0
v -9.6 -8 0
v -9.6 -7.2 0
v -8.8 -7.2 0
v -9.6 -8 0
v -10.4 -8 0
v -10.4 -7.2 0
v -9.6 -7.2 0
v -10.4 -8 0
v -11.2 -8 0
v -11.2 -7.2 0
v -10.4 -7.2 0
v -11.2 -8 0
v -12 -8 0
v -12 -7.2 0
v -11.2 -7.2 0
v -12 -8 0
v -12.8 -8 0
v -12.8 -7.2 0
v -12 -7.2 0
v -12.8 -8 0
v -13.6 -8 0
v -13.6 -7.2 0
v -12.8 -7.2 0
v -13.6 -8 0
v -14.4 -8 0
v -14.4 -7.2 0
v -13.6 -7.2 0
v -14.4 -8 0
v -15.2 -8 0
v -15.2 -7.2 0
v -14.4 -7.2 0

# Texture cooridinates (Count = 12)
vt 0.7661142 0.5
vt 0.8250461 0.5
vt 0.8250461 0.75
vt 0.7661142 0.75
vt 0.05893186 0.5
vt 0.1178637 0.5
vt 0.1178637 0.75
vt 0.05893186 0.75
vt 0.7661142 0.25
vt 0.8250461 0.25
vt 0.05893186 0.25
vt 0.1178637 0.25

# Normal
vn 0 0 -1

# Mesh description
g CharBedroom_mesh_0002

# Faces
f 1/1/1 2/2/1 3/3/1 4/4/1
f 5/5/1 6/6/1 7/7/1 8/8/1
f 9/5/1 10/6/1 11/7/1 12/8/1
f 13/5/1 14/6/1 15/7/1 16/8/1
f 17/5/1 18/6/1 19/7/1 20/8/1
f 21/5/1 22/6/1 23/7/1 24/8/1
f 25/5/1 26/6/1 27/7/1 28/8/1
f 29/5/1 30/6/1 31/7/1 32/8/1
f 33/5/1 34/6/1 35/7/1 36/8/1
f 37/5/1 38/6/1 39/7/1 40/8/1
f 41/5/1 42/6/1 43/7/1 44/8/1
f 45/5/1 46/6/1 47/7/1 48/8/1
f 49/9/1 50/10/1 51/2/1 52/1/1
f 53/11/1 54/12/1 55/6/1 56/5/1
f 57/11/1 58/12/1 59/6/1 60/5/1
f 61/11/1 62/12/1 63/6/1 64/5/1
f 65/11/1 66/12/1 67/6/1 68/5/1
f 69/11/1 70/12/1 71/6/1 72/5/1
f 73/11/1 74/12/1 75/6/1 76/5/1
f 77/11/1 78/12/1 79/6/1 80/5/1
f 81/11/1 82/12/1 83/6/1 84/5/1
f 85/11/1 86/12/1 87/6/1 88/5/1
f 89/11/1 90/12/1 91/6/1 92/5/1
f 93/11/1 94/12/1 95/6/1 96/5/1
f 97/5/1 98/6/1 99/7/1 100/8/1
f 101/5/1 102/6/1 103/7/1 104/8/1
f 105/5/1 106/6/1 107/7/1 108/8/1
f 109/5/1 110/6/1 111/7/1 112/8/1
f 113/5/1 114/6/1 115/7/1 116/8/1
f 117/5/1 118/6/1 119/7/1 120/8/1
f 121/5/1 122/6/1 123/7/1 124/8/1
f 125/5/1 126/6/1 127/7/1 128/8/1
f 129/5/1 130/6/1 131/7/1 132/8/1
f 133/5/1 134/6/1 135/7/1 136/8/1
f 137/5/1 138/6/1 139/7/1 140/8/1
f 141/5/1 142/6/1 143/7/1 144/8/1
f 145/5/1 146/6/1 147/7/1 148/8/1
f 149/5/1 150/6/1 151/7/1 152/8/1
f 153/5/1 154/6/1 155/7/1 156/8/1
f 157/5/1 158/6/1 159/7/1 160/8/1
f 161/11/1 162/12/1 163/6/1 164/5/1
f 165/11/1 166/12/1 167/6/1 168/5/1
f 169/11/1 170/12/1 171/6/1 172/5/1
f 173/11/1 174/12/1 175/6/1 176/5/1
f 177/11/1 178/12/1 179/6/1 180/5/1
f 181/11/1 182/12/1 183/6/1 184/5/1
f 185/11/1 186/12/1 187/6/1 188/5/1
f 189/11/1 190/12/1 191/6/1 192/5/1
f 193/11/1 194/12/1 195/6/1 196/5/1
f 197/11/1 198/12/1 199/6/1 200/5/1
f 201/11/1 202/12/1 203/6/1 204/5/1
f 205/11/1 206/12/1 207/6/1 208/5/1
f 209/11/1 210/12/1 211/6/1 212/5/1
f 213/11/1 214/12/1 215/6/1 216/5/1
f 217/11/1 218/12/1 219/6/1 220/5/1
f 221/11/1 222/12/1 223/6/1 224/5/1

