# Tiled2Unity generated file. Do not modify by hand.
# Wavefront file for 'CharHouse_mesh_0002.obj'

# Vertices (Count = 612)
v 0 -0.8 0
v -0.8 -0.8 0
v -0.8 0 0
v 0 0 0
v -0.8 -0.8 0
v -1.6 -0.8 0
v -1.6 0 0
v -0.8 0 0
v -1.6 -0.8 0
v -2.4 -0.8 0
v -2.4 0 0
v -1.6 0 0
v -2.4 -0.8 0
v -3.2 -0.8 0
v -3.2 0 0
v -2.4 0 0
v -3.2 -0.8 0
v -4 -0.8 0
v -4 0 0
v -3.2 0 0
v -4 -0.8 0
v -4.8 -0.8 0
v -4.8 0 0
v -4 0 0
v -4.8 -0.8 0
v -5.6 -0.8 0
v -5.6 0 0
v -4.8 0 0
v -5.6 -0.8 0
v -6.4 -0.8 0
v -6.4 0 0
v -5.6 0 0
v -6.4 -0.8 0
v -7.2 -0.8 0
v -7.2 0 0
v -6.4 0 0
v -7.2 -0.8 0
v -8 -0.8 0
v -8 0 0
v -7.2 0 0
v -8 -0.8 0
v -8.8 -0.8 0
v -8.8 0 0
v -8 0 0
v -8.8 -0.8 0
v -9.6 -0.8 0
v -9.6 0 0
v -8.8 0 0
v -9.6 -0.8 0
v -10.4 -0.8 0
v -10.4 0 0
v -9.6 0 0
v -10.4 -0.8 0
v -11.2 -0.8 0
v -11.2 0 0
v -10.4 0 0
v -11.2 -0.8 0
v -12 -0.8 0
v -12 0 0
v -11.2 0 0
v -12 -0.8 0
v -12.8 -0.8 0
v -12.8 0 0
v -12 0 0
v -12.8 -0.8 0
v -13.6 -0.8 0
v -13.6 0 0
v -12.8 0 0
v -13.6 -0.8 0
v -14.4 -0.8 0
v -14.4 0 0
v -13.6 0 0
v -14.4 -0.8 0
v -15.2 -0.8 0
v -15.2 0 0
v -14.4 0 0
v -15.2 -0.8 0
v -16 -0.8 0
v -16 0 0
v -15.2 0 0
v -16 -0.8 0
v -16.8 -0.8 0
v -16.8 0 0
v -16 0 0
v -16.8 -0.8 0
v -17.6 -0.8 0
v -17.6 0 0
v -16.8 0 0
v -17.6 -0.8 0
v -18.4 -0.8 0
v -18.4 0 0
v -17.6 0 0
v 0 -1.6 0
v -0.8 -1.6 0
v -0.8 -0.8 0
v 0 -0.8 0
v -8 -1.6 0
v -8.8 -1.6 0
v -8.8 -0.8 0
v -8 -0.8 0
v -8.8 -1.6 0
v -9.6 -1.6 0
v -9.6 -0.8 0
v -8.8 -0.8 0
v -9.6 -1.6 0
v -10.4 -1.6 0
v -10.4 -0.8 0
v -9.6 -0.8 0
v -10.4 -1.6 0
v -11.2 -1.6 0
v -11.2 -0.8 0
v -10.4 -0.8 0
v -11.2 -1.6 0
v -12 -1.6 0
v -12 -0.8 0
v -11.2 -0.8 0
v -12 -1.6 0
v -12.8 -1.6 0
v -12.8 -0.8 0
v -12 -0.8 0
v -12.8 -1.6 0
v -13.6 -1.6 0
v -13.6 -0.8 0
v -12.8 -0.8 0
v -13.6 -1.6 0
v -14.4 -1.6 0
v -14.4 -0.8 0
v -13.6 -0.8 0
v -14.4 -1.6 0
v -15.2 -1.6 0
v -15.2 -0.8 0
v -14.4 -0.8 0
v -17.6 -1.6 0
v -18.4 -1.6 0
v -18.4 -0.8 0
v -17.6 -0.8 0
v 0 -2.4 0
v -0.8 -2.4 0
v -0.8 -1.6 0
v 0 -1.6 0
v -8 -2.4 0
v -8.8 -2.4 0
v -8.8 -1.6 0
v -8 -1.6 0
v -8.8 -2.4 0
v -9.6 -2.4 0
v -9.6 -1.6 0
v -8.8 -1.6 0
v -9.6 -2.4 0
v -10.4 -2.4 0
v -10.4 -1.6 0
v -9.6 -1.6 0
v -10.4 -2.4 0
v -11.2 -2.4 0
v -11.2 -1.6 0
v -10.4 -1.6 0
v -11.2 -2.4 0
v -12 -2.4 0
v -12 -1.6 0
v -11.2 -1.6 0
v -12 -2.4 0
v -12.8 -2.4 0
v -12.8 -1.6 0
v -12 -1.6 0
v -12.8 -2.4 0
v -13.6 -2.4 0
v -13.6 -1.6 0
v -12.8 -1.6 0
v -13.6 -2.4 0
v -14.4 -2.4 0
v -14.4 -1.6 0
v -13.6 -1.6 0
v -14.4 -2.4 0
v -15.2 -2.4 0
v -15.2 -1.6 0
v -14.4 -1.6 0
v -17.6 -2.4 0
v -18.4 -2.4 0
v -18.4 -1.6 0
v -17.6 -1.6 0
v 0 -3.2 0
v -0.8 -3.2 0
v -0.8 -2.4 0
v 0 -2.4 0
v -8 -3.2 0
v -8.8 -3.2 0
v -8.8 -2.4 0
v -8 -2.4 0
v -8.8 -3.2 0
v -9.6 -3.2 0
v -9.6 -2.4 0
v -8.8 -2.4 0
v -9.6 -3.2 0
v -10.4 -3.2 0
v -10.4 -2.4 0
v -9.6 -2.4 0
v -10.4 -3.2 0
v -11.2 -3.2 0
v -11.2 -2.4 0
v -10.4 -2.4 0
v -11.2 -3.2 0
v -12 -3.2 0
v -12 -2.4 0
v -11.2 -2.4 0
v -12 -3.2 0
v -12.8 -3.2 0
v -12.8 -2.4 0
v -12 -2.4 0
v -12.8 -3.2 0
v -13.6 -3.2 0
v -13.6 -2.4 0
v -12.8 -2.4 0
v -13.6 -3.2 0
v -14.4 -3.2 0
v -14.4 -2.4 0
v -13.6 -2.4 0
v -14.4 -3.2 0
v -15.2 -3.2 0
v -15.2 -2.4 0
v -14.4 -2.4 0
v -17.6 -3.2 0
v -18.4 -3.2 0
v -18.4 -2.4 0
v -17.6 -2.4 0
v 0 -4 0
v -0.8 -4 0
v -0.8 -3.2 0
v 0 -3.2 0
v -8 -4 0
v -8.8 -4 0
v -8.8 -3.2 0
v -8 -3.2 0
v -8.8 -4 0
v -9.6 -4 0
v -9.6 -3.2 0
v -8.8 -3.2 0
v -9.6 -4 0
v -10.4 -4 0
v -10.4 -3.2 0
v -9.6 -3.2 0
v -10.4 -4 0
v -11.2 -4 0
v -11.2 -3.2 0
v -10.4 -3.2 0
v -11.2 -4 0
v -12 -4 0
v -12 -3.2 0
v -11.2 -3.2 0
v -12 -4 0
v -12.8 -4 0
v -12.8 -3.2 0
v -12 -3.2 0
v -12.8 -4 0
v -13.6 -4 0
v -13.6 -3.2 0
v -12.8 -3.2 0
v -13.6 -4 0
v -14.4 -4 0
v -14.4 -3.2 0
v -13.6 -3.2 0
v -14.4 -4 0
v -15.2 -4 0
v -15.2 -3.2 0
v -14.4 -3.2 0
v -17.6 -4 0
v -18.4 -4 0
v -18.4 -3.2 0
v -17.6 -3.2 0
v 0 -4.8 0
v -0.8 -4.8 0
v -0.8 -4 0
v 0 -4 0
v -8 -4.8 0
v -8.8 -4.8 0
v -8.8 -4 0
v -8 -4 0
v -8.8 -4.8 0
v -9.6 -4.8 0
v -9.6 -4 0
v -8.8 -4 0
v -9.6 -4.8 0
v -10.4 -4.8 0
v -10.4 -4 0
v -9.6 -4 0
v -10.4 -4.8 0
v -11.2 -4.8 0
v -11.2 -4 0
v -10.4 -4 0
v -11.2 -4.8 0
v -12 -4.8 0
v -12 -4 0
v -11.2 -4 0
v -12 -4.8 0
v -12.8 -4.8 0
v -12.8 -4 0
v -12 -4 0
v -12.8 -4.8 0
v -13.6 -4.8 0
v -13.6 -4 0
v -12.8 -4 0
v -13.6 -4.8 0
v -14.4 -4.8 0
v -14.4 -4 0
v -13.6 -4 0
v -14.4 -4.8 0
v -15.2 -4.8 0
v -15.2 -4 0
v -14.4 -4 0
v -17.6 -4.8 0
v -18.4 -4.8 0
v -18.4 -4 0
v -17.6 -4 0
v 0 -5.6 0
v -0.8 -5.6 0
v -0.8 -4.8 0
v 0 -4.8 0
v -2.4 -5.6 0
v -3.2 -5.6 0
v -3.2 -4.8 0
v -2.4 -4.8 0
v -3.2 -5.6 0
v -4 -5.6 0
v -4 -4.8 0
v -3.2 -4.8 0
v -4 -5.6 0
v -4.8 -5.6 0
v -4.8 -4.8 0
v -4 -4.8 0
v -4.8 -5.6 0
v -5.6 -5.6 0
v -5.6 -4.8 0
v -4.8 -4.8 0
v -5.6 -5.6 0
v -6.4 -5.6 0
v -6.4 -4.8 0
v -5.6 -4.8 0
v -6.4 -5.6 0
v -7.2 -5.6 0
v -7.2 -4.8 0
v -6.4 -4.8 0
v -7.2 -5.6 0
v -8 -5.6 0
v -8 -4.8 0
v -7.2 -4.8 0
v -8 -5.6 0
v -8.8 -5.6 0
v -8.8 -4.8 0
v -8 -4.8 0
v -8.8 -5.6 0
v -9.6 -5.6 0
v -9.6 -4.8 0
v -8.8 -4.8 0
v -9.6 -5.6 0
v -10.4 -5.6 0
v -10.4 -4.8 0
v -9.6 -4.8 0
v -10.4 -5.6 0
v -11.2 -5.6 0
v -11.2 -4.8 0
v -10.4 -4.8 0
v -11.2 -5.6 0
v -12 -5.6 0
v -12 -4.8 0
v -11.2 -4.8 0
v -12 -5.6 0
v -12.8 -5.6 0
v -12.8 -4.8 0
v -12 -4.8 0
v -12.8 -5.6 0
v -13.6 -5.6 0
v -13.6 -4.8 0
v -12.8 -4.8 0
v -13.6 -5.6 0
v -14.4 -5.6 0
v -14.4 -4.8 0
v -13.6 -4.8 0
v -14.4 -5.6 0
v -15.2 -5.6 0
v -15.2 -4.8 0
v -14.4 -4.8 0
v -17.6 -5.6 0
v -18.4 -5.6 0
v -18.4 -4.8 0
v -17.6 -4.8 0
v 0 -6.4 0
v -0.8 -6.4 0
v -0.8 -5.6 0
v 0 -5.6 0
v -2.4 -6.4 0
v -3.2 -6.4 0
v -3.2 -5.6 0
v -2.4 -5.6 0
v -3.2 -6.4 0
v -4 -6.4 0
v -4 -5.6 0
v -3.2 -5.6 0
v -4 -6.4 0
v -4.8 -6.4 0
v -4.8 -5.6 0
v -4 -5.6 0
v -4.8 -6.4 0
v -5.6 -6.4 0
v -5.6 -5.6 0
v -4.8 -5.6 0
v -5.6 -6.4 0
v -6.4 -6.4 0
v -6.4 -5.6 0
v -5.6 -5.6 0
v -6.4 -6.4 0
v -7.2 -6.4 0
v -7.2 -5.6 0
v -6.4 -5.6 0
v -7.2 -6.4 0
v -8 -6.4 0
v -8 -5.6 0
v -7.2 -5.6 0
v -8 -6.4 0
v -8.8 -6.4 0
v -8.8 -5.6 0
v -8 -5.6 0
v -8.8 -6.4 0
v -9.6 -6.4 0
v -9.6 -5.6 0
v -8.8 -5.6 0
v -9.6 -6.4 0
v -10.4 -6.4 0
v -10.4 -5.6 0
v -9.6 -5.6 0
v -10.4 -6.4 0
v -11.2 -6.4 0
v -11.2 -5.6 0
v -10.4 -5.6 0
v -11.2 -6.4 0
v -12 -6.4 0
v -12 -5.6 0
v -11.2 -5.6 0
v -12 -6.4 0
v -12.8 -6.4 0
v -12.8 -5.6 0
v -12 -5.6 0
v -12.8 -6.4 0
v -13.6 -6.4 0
v -13.6 -5.6 0
v -12.8 -5.6 0
v -13.6 -6.4 0
v -14.4 -6.4 0
v -14.4 -5.6 0
v -13.6 -5.6 0
v -14.4 -6.4 0
v -15.2 -6.4 0
v -15.2 -5.6 0
v -14.4 -5.6 0
v -17.6 -6.4 0
v -18.4 -6.4 0
v -18.4 -5.6 0
v -17.6 -5.6 0
v 0 -7.2 0
v -0.8 -7.2 0
v -0.8 -6.4 0
v 0 -6.4 0
v -9.6 -7.2 0
v -10.4 -7.2 0
v -10.4 -6.4 0
v -9.6 -6.4 0
v -10.4 -7.2 0
v -11.2 -7.2 0
v -11.2 -6.4 0
v -10.4 -6.4 0
v -11.2 -7.2 0
v -12 -7.2 0
v -12 -6.4 0
v -11.2 -6.4 0
v -12 -7.2 0
v -12.8 -7.2 0
v -12.8 -6.4 0
v -12 -6.4 0
v -17.6 -7.2 0
v -18.4 -7.2 0
v -18.4 -6.4 0
v -17.6 -6.4 0
v 0 -8 0
v -0.8 -8 0
v -0.8 -7.2 0
v 0 -7.2 0
v -9.6 -8 0
v -10.4 -8 0
v -10.4 -7.2 0
v -9.6 -7.2 0
v -10.4 -8 0
v -11.2 -8 0
v -11.2 -7.2 0
v -10.4 -7.2 0
v -11.2 -8 0
v -12 -8 0
v -12 -7.2 0
v -11.2 -7.2 0
v -12 -8 0
v -12.8 -8 0
v -12.8 -7.2 0
v -12 -7.2 0
v -17.6 -8 0
v -18.4 -8 0
v -18.4 -7.2 0
v -17.6 -7.2 0
v 0 -8.8 0
v -0.8 -8.8 0
v -0.8 -8 0
v 0 -8 0
v -17.6 -8.8 0
v -18.4 -8.8 0
v -18.4 -8 0
v -17.6 -8 0
v 0 -9.6 0
v -0.8 -9.6 0
v -0.8 -8.8 0
v 0 -8.8 0
v -17.6 -9.6 0
v -18.4 -9.6 0
v -18.4 -8.8 0
v -17.6 -8.8 0
v 0 -10.4 0
v -0.8 -10.4 0
v -0.8 -9.6 0
v 0 -9.6 0
v -0.8 -10.4 0
v -1.6 -10.4 0
v -1.6 -9.6 0
v -0.8 -9.6 0
v -1.6 -10.4 0
v -2.4 -10.4 0
v -2.4 -9.6 0
v -1.6 -9.6 0
v -2.4 -10.4 0
v -3.2 -10.4 0
v -3.2 -9.6 0
v -2.4 -9.6 0
v -3.2 -10.4 0
v -4 -10.4 0
v -4 -9.6 0
v -3.2 -9.6 0
v -4 -10.4 0
v -4.8 -10.4 0
v -4.8 -9.6 0
v -4 -9.6 0
v -4.8 -10.4 0
v -5.6 -10.4 0
v -5.6 -9.6 0
v -4.8 -9.6 0
v -5.6 -10.4 0
v -6.4 -10.4 0
v -6.4 -9.6 0
v -5.6 -9.6 0
v -6.4 -10.4 0
v -7.2 -10.4 0
v -7.2 -9.6 0
v -6.4 -9.6 0
v -7.2 -10.4 0
v -8 -10.4 0
v -8 -9.6 0
v -7.2 -9.6 0
v -8 -10.4 0
v -8.8 -10.4 0
v -8.8 -9.6 0
v -8 -9.6 0
v -8.8 -10.4 0
v -9.6 -10.4 0
v -9.6 -9.6 0
v -8.8 -9.6 0
v -9.6 -10.4 0
v -10.4 -10.4 0
v -10.4 -9.6 0
v -9.6 -9.6 0
v -10.4 -10.4 0
v -11.2 -10.4 0
v -11.2 -9.6 0
v -10.4 -9.6 0
v -11.2 -10.4 0
v -12 -10.4 0
v -12 -9.6 0
v -11.2 -9.6 0
v -12 -10.4 0
v -12.8 -10.4 0
v -12.8 -9.6 0
v -12 -9.6 0
v -12.8 -10.4 0
v -13.6 -10.4 0
v -13.6 -9.6 0
v -12.8 -9.6 0
v -13.6 -10.4 0
v -14.4 -10.4 0
v -14.4 -9.6 0
v -13.6 -9.6 0
v -14.4 -10.4 0
v -15.2 -10.4 0
v -15.2 -9.6 0
v -14.4 -9.6 0
v -15.2 -10.4 0
v -16 -10.4 0
v -16 -9.6 0
v -15.2 -9.6 0
v -16 -10.4 0
v -16.8 -10.4 0
v -16.8 -9.6 0
v -16 -9.6 0
v -16.8 -10.4 0
v -17.6 -10.4 0
v -17.6 -9.6 0
v -16.8 -9.6 0
v -17.6 -10.4 0
v -18.4 -10.4 0
v -18.4 -9.6 0
v -17.6 -9.6 0

# Texture cooridinates (Count = 21)
vt 0.0625 0.8125
vt 0.125 0.8125
vt 0.125 0.875
vt 0.0625 0.875
vt 0.1875 0.8125
vt 0.25 0.8125
vt 0.25 0.875
vt 0.1875 0.875
vt 0 0.8125
vt 0 0.875
vt 0.3125 0.875
vt 0.3125 0.9375
vt 0.25 0.9375
vt 0.1875 0.9375
vt 0.125 0.9375
vt 0.1875 1
vt 0.125 1
vt 0.25 1
vt 0.0625 0.9375
vt 0 0.9375
vt 0.3125 0.8125

# Normal
vn 0 0 -1

# Mesh description
g CharHouse_mesh_0002

# Faces
f 1/1/1 2/2/1 3/3/1 4/4/1
f 5/5/1 6/6/1 7/7/1 8/8/1
f 9/5/1 10/6/1 11/7/1 12/8/1
f 13/5/1 14/6/1 15/7/1 16/8/1
f 17/5/1 18/6/1 19/7/1 20/8/1
f 21/5/1 22/6/1 23/7/1 24/8/1
f 25/5/1 26/6/1 27/7/1 28/8/1
f 29/5/1 30/6/1 31/7/1 32/8/1
f 33/5/1 34/6/1 35/7/1 36/8/1
f 37/5/1 38/6/1 39/7/1 40/8/1
f 41/9/1 42/1/1 43/4/1 44/10/1
f 45/1/1 46/2/1 47/3/1 48/4/1
f 49/5/1 50/6/1 51/7/1 52/8/1
f 53/5/1 54/6/1 55/7/1 56/8/1
f 57/5/1 58/6/1 59/7/1 60/8/1
f 61/5/1 62/6/1 63/7/1 64/8/1
f 65/5/1 66/6/1 67/7/1 68/8/1
f 69/9/1 70/1/1 71/4/1 72/10/1
f 73/1/1 74/2/1 75/3/1 76/4/1
f 77/5/1 78/6/1 79/7/1 80/8/1
f 81/5/1 82/6/1 83/7/1 84/8/1
f 85/5/1 86/6/1 87/7/1 88/8/1
f 89/9/1 90/1/1 91/4/1 92/10/1
f 93/7/1 94/11/1 95/12/1 96/13/1
f 97/3/1 98/8/1 99/14/1 100/15/1
f 101/7/1 102/11/1 103/12/1 104/13/1
f 105/8/1 106/7/1 107/13/1 108/14/1
f 109/8/1 110/7/1 111/13/1 112/14/1
f 113/8/1 114/7/1 115/13/1 116/14/1
f 117/8/1 118/7/1 119/13/1 120/14/1
f 121/8/1 122/7/1 123/13/1 124/14/1
f 125/3/1 126/8/1 127/14/1 128/15/1
f 129/7/1 130/11/1 131/12/1 132/13/1
f 133/3/1 134/8/1 135/14/1 136/15/1
f 137/7/1 138/11/1 139/12/1 140/13/1
f 141/3/1 142/8/1 143/14/1 144/15/1
f 145/7/1 146/11/1 147/12/1 148/13/1
f 149/8/1 150/7/1 151/13/1 152/14/1
f 153/8/1 154/7/1 155/13/1 156/14/1
f 157/8/1 158/7/1 159/13/1 160/14/1
f 161/8/1 162/7/1 163/13/1 164/14/1
f 165/8/1 166/7/1 167/13/1 168/14/1
f 169/3/1 170/8/1 171/14/1 172/15/1
f 173/7/1 174/11/1 175/12/1 176/13/1
f 177/3/1 178/8/1 179/14/1 180/15/1
f 181/7/1 182/11/1 183/12/1 184/13/1
f 185/3/1 186/8/1 187/14/1 188/15/1
f 189/7/1 190/11/1 191/12/1 192/13/1
f 193/8/1 194/7/1 195/13/1 196/14/1
f 197/8/1 198/7/1 199/13/1 200/14/1
f 201/8/1 202/7/1 203/13/1 204/14/1
f 205/8/1 206/7/1 207/13/1 208/14/1
f 209/8/1 210/7/1 211/13/1 212/14/1
f 213/3/1 214/8/1 215/14/1 216/15/1
f 217/7/1 218/11/1 219/12/1 220/13/1
f 221/3/1 222/8/1 223/14/1 224/15/1
f 225/7/1 226/11/1 227/12/1 228/13/1
f 229/3/1 230/8/1 231/14/1 232/15/1
f 233/7/1 234/11/1 235/12/1 236/13/1
f 237/8/1 238/7/1 239/13/1 240/14/1
f 241/8/1 242/7/1 243/13/1 244/14/1
f 245/8/1 246/7/1 247/13/1 248/14/1
f 249/8/1 250/7/1 251/13/1 252/14/1
f 253/8/1 254/7/1 255/13/1 256/14/1
f 257/3/1 258/8/1 259/14/1 260/15/1
f 261/7/1 262/11/1 263/12/1 264/13/1
f 265/3/1 266/8/1 267/14/1 268/15/1
f 269/7/1 270/11/1 271/12/1 272/13/1
f 273/3/1 274/8/1 275/14/1 276/15/1
f 277/7/1 278/11/1 279/12/1 280/13/1
f 281/8/1 282/7/1 283/13/1 284/14/1
f 285/8/1 286/7/1 287/13/1 288/14/1
f 289/8/1 290/7/1 291/13/1 292/14/1
f 293/8/1 294/7/1 295/13/1 296/14/1
f 297/8/1 298/7/1 299/13/1 300/14/1
f 301/3/1 302/8/1 303/14/1 304/15/1
f 305/7/1 306/11/1 307/12/1 308/13/1
f 309/3/1 310/8/1 311/14/1 312/15/1
f 313/7/1 314/11/1 315/12/1 316/13/1
f 317/15/1 318/14/1 319/16/1 320/17/1
f 321/14/1 322/13/1 323/18/1 324/16/1
f 325/14/1 326/13/1 327/18/1 328/16/1
f 329/14/1 330/13/1 331/18/1 332/16/1
f 333/14/1 334/13/1 335/18/1 336/16/1
f 337/14/1 338/13/1 339/18/1 340/16/1
f 341/14/1 342/13/1 343/18/1 344/16/1
f 345/10/1 346/4/1 347/19/1 348/20/1
f 349/7/1 350/11/1 351/12/1 352/13/1
f 353/8/1 354/7/1 355/13/1 356/14/1
f 357/8/1 358/7/1 359/13/1 360/14/1
f 361/8/1 362/7/1 363/13/1 364/14/1
f 365/8/1 366/7/1 367/13/1 368/14/1
f 369/8/1 370/7/1 371/13/1 372/14/1
f 373/3/1 374/8/1 375/14/1 376/15/1
f 377/7/1 378/11/1 379/12/1 380/13/1
f 381/3/1 382/8/1 383/14/1 384/15/1
f 385/7/1 386/11/1 387/12/1 388/13/1
f 389/2/1 390/5/1 391/8/1 392/3/1
f 393/5/1 394/6/1 395/7/1 396/8/1
f 397/5/1 398/6/1 399/7/1 400/8/1
f 401/5/1 402/6/1 403/7/1 404/8/1
f 405/5/1 406/6/1 407/7/1 408/8/1
f 409/5/1 410/6/1 411/7/1 412/8/1
f 413/5/1 414/6/1 415/7/1 416/8/1
f 417/5/1 418/6/1 419/7/1 420/8/1
f 421/6/1 422/21/1 423/11/1 424/7/1
f 425/5/1 426/6/1 427/7/1 428/8/1
f 429/5/1 430/6/1 431/7/1 432/8/1
f 433/5/1 434/6/1 435/7/1 436/8/1
f 437/5/1 438/6/1 439/7/1 440/8/1
f 441/5/1 442/6/1 443/7/1 444/8/1
f 445/2/1 446/5/1 447/8/1 448/3/1
f 449/6/1 450/21/1 451/11/1 452/7/1
f 453/3/1 454/8/1 455/14/1 456/15/1
f 457/7/1 458/11/1 459/12/1 460/13/1
f 461/8/1 462/7/1 463/13/1 464/14/1
f 465/8/1 466/7/1 467/13/1 468/14/1
f 469/8/1 470/7/1 471/13/1 472/14/1
f 473/8/1 474/7/1 475/13/1 476/14/1
f 477/3/1 478/8/1 479/14/1 480/15/1
f 481/7/1 482/11/1 483/12/1 484/13/1
f 485/8/1 486/7/1 487/13/1 488/14/1
f 489/8/1 490/7/1 491/13/1 492/14/1
f 493/8/1 494/7/1 495/13/1 496/14/1
f 497/8/1 498/7/1 499/13/1 500/14/1
f 501/3/1 502/8/1 503/14/1 504/15/1
f 505/7/1 506/11/1 507/12/1 508/13/1
f 509/3/1 510/8/1 511/14/1 512/15/1
f 513/7/1 514/11/1 515/12/1 516/13/1
f 517/3/1 518/8/1 519/14/1 520/15/1
f 521/4/1 522/3/1 523/15/1 524/19/1
f 525/14/1 526/13/1 527/18/1 528/16/1
f 529/14/1 530/13/1 531/18/1 532/16/1
f 533/14/1 534/13/1 535/18/1 536/16/1
f 537/14/1 538/13/1 539/18/1 540/16/1
f 541/14/1 542/13/1 543/18/1 544/16/1
f 545/14/1 546/13/1 547/18/1 548/16/1
f 549/14/1 550/13/1 551/18/1 552/16/1
f 553/14/1 554/13/1 555/18/1 556/16/1
f 557/14/1 558/13/1 559/18/1 560/16/1
f 561/14/1 562/13/1 563/18/1 564/16/1
f 565/14/1 566/13/1 567/18/1 568/16/1
f 569/14/1 570/13/1 571/18/1 572/16/1
f 573/14/1 574/13/1 575/18/1 576/16/1
f 577/14/1 578/13/1 579/18/1 580/16/1
f 581/14/1 582/13/1 583/18/1 584/16/1
f 585/14/1 586/13/1 587/18/1 588/16/1
f 589/14/1 590/13/1 591/18/1 592/16/1
f 593/14/1 594/13/1 595/18/1 596/16/1
f 597/14/1 598/13/1 599/18/1 600/16/1
f 601/14/1 602/13/1 603/18/1 604/16/1
f 605/14/1 606/13/1 607/18/1 608/16/1
f 609/10/1 610/4/1 611/19/1 612/20/1

