# Tiled2Unity generated file. Do not modify by hand.
# Wavefront file for 'CharHouse_mesh_0003.obj'

# Vertices (Count = 364)
v -0.8 -1.6 0
v -1.6 -1.6 0
v -1.6 -0.8 0
v -0.8 -0.8 0
v -1.6 -1.6 0
v -2.4 -1.6 0
v -2.4 -0.8 0
v -1.6 -0.8 0
v -2.4 -1.6 0
v -3.2 -1.6 0
v -3.2 -0.8 0
v -2.4 -0.8 0
v -3.2 -1.6 0
v -4 -1.6 0
v -4 -0.8 0
v -3.2 -0.8 0
v -4 -1.6 0
v -4.8 -1.6 0
v -4.8 -0.8 0
v -4 -0.8 0
v -4.8 -1.6 0
v -5.6 -1.6 0
v -5.6 -0.8 0
v -4.8 -0.8 0
v -5.6 -1.6 0
v -6.4 -1.6 0
v -6.4 -0.8 0
v -5.6 -0.8 0
v -6.4 -1.6 0
v -7.2 -1.6 0
v -7.2 -0.8 0
v -6.4 -0.8 0
v -7.2 -1.6 0
v -8 -1.6 0
v -8 -0.8 0
v -7.2 -0.8 0
v -9.6 -1.6 0
v -10.4 -1.6 0
v -10.4 -0.8 0
v -9.6 -0.8 0
v -10.4 -1.6 0
v -11.2 -1.6 0
v -11.2 -0.8 0
v -10.4 -0.8 0
v -11.2 -1.6 0
v -12 -1.6 0
v -12 -0.8 0
v -11.2 -0.8 0
v -12 -1.6 0
v -12.8 -1.6 0
v -12.8 -0.8 0
v -12 -0.8 0
v -12.8 -1.6 0
v -13.6 -1.6 0
v -13.6 -0.8 0
v -12.8 -0.8 0
v -15.2 -1.6 0
v -16 -1.6 0
v -16 -0.8 0
v -15.2 -0.8 0
v -16 -1.6 0
v -16.8 -1.6 0
v -16.8 -0.8 0
v -16 -0.8 0
v -16.8 -1.6 0
v -17.6 -1.6 0
v -17.6 -0.8 0
v -16.8 -0.8 0
v -0.8 -2.4 0
v -1.6 -2.4 0
v -1.6 -1.6 0
v -0.8 -1.6 0
v -1.6 -2.4 0
v -2.4 -2.4 0
v -2.4 -1.6 0
v -1.6 -1.6 0
v -2.4 -2.4 0
v -3.2 -2.4 0
v -3.2 -1.6 0
v -2.4 -1.6 0
v -3.2 -2.4 0
v -4 -2.4 0
v -4 -1.6 0
v -3.2 -1.6 0
v -4 -2.4 0
v -4.8 -2.4 0
v -4.8 -1.6 0
v -4 -1.6 0
v -4.8 -2.4 0
v -5.6 -2.4 0
v -5.6 -1.6 0
v -4.8 -1.6 0
v -5.6 -2.4 0
v -6.4 -2.4 0
v -6.4 -1.6 0
v -5.6 -1.6 0
v -6.4 -2.4 0
v -7.2 -2.4 0
v -7.2 -1.6 0
v -6.4 -1.6 0
v -7.2 -2.4 0
v -8 -2.4 0
v -8 -1.6 0
v -7.2 -1.6 0
v -9.6 -2.4 0
v -10.4 -2.4 0
v -10.4 -1.6 0
v -9.6 -1.6 0
v -10.4 -2.4 0
v -11.2 -2.4 0
v -11.2 -1.6 0
v -10.4 -1.6 0
v -11.2 -2.4 0
v -12 -2.4 0
v -12 -1.6 0
v -11.2 -1.6 0
v -12 -2.4 0
v -12.8 -2.4 0
v -12.8 -1.6 0
v -12 -1.6 0
v -12.8 -2.4 0
v -13.6 -2.4 0
v -13.6 -1.6 0
v -12.8 -1.6 0
v -15.2 -2.4 0
v -16 -2.4 0
v -16 -1.6 0
v -15.2 -1.6 0
v -16 -2.4 0
v -16.8 -2.4 0
v -16.8 -1.6 0
v -16 -1.6 0
v -16.8 -2.4 0
v -17.6 -2.4 0
v -17.6 -1.6 0
v -16.8 -1.6 0
v -9.6 -3.2 0
v -10.4 -3.2 0
v -10.4 -2.4 0
v -9.6 -2.4 0
v -10.4 -3.2 0
v -11.2 -3.2 0
v -11.2 -2.4 0
v -10.4 -2.4 0
v -11.2 -3.2 0
v -12 -3.2 0
v -12 -2.4 0
v -11.2 -2.4 0
v -12 -3.2 0
v -12.8 -3.2 0
v -12.8 -2.4 0
v -12 -2.4 0
v -12.8 -3.2 0
v -13.6 -3.2 0
v -13.6 -2.4 0
v -12.8 -2.4 0
v -9.6 -4 0
v -10.4 -4 0
v -10.4 -3.2 0
v -9.6 -3.2 0
v -10.4 -4 0
v -11.2 -4 0
v -11.2 -3.2 0
v -10.4 -3.2 0
v -11.2 -4 0
v -12 -4 0
v -12 -3.2 0
v -11.2 -3.2 0
v -12 -4 0
v -12.8 -4 0
v -12.8 -3.2 0
v -12 -3.2 0
v -12.8 -4 0
v -13.6 -4 0
v -13.6 -3.2 0
v -12.8 -3.2 0
v -9.6 -4.8 0
v -10.4 -4.8 0
v -10.4 -4 0
v -9.6 -4 0
v -10.4 -4.8 0
v -11.2 -4.8 0
v -11.2 -4 0
v -10.4 -4 0
v -11.2 -4.8 0
v -12 -4.8 0
v -12 -4 0
v -11.2 -4 0
v -12 -4.8 0
v -12.8 -4.8 0
v -12.8 -4 0
v -12 -4 0
v -12.8 -4.8 0
v -13.6 -4.8 0
v -13.6 -4 0
v -12.8 -4 0
v -9.6 -5.6 0
v -10.4 -5.6 0
v -10.4 -4.8 0
v -9.6 -4.8 0
v -10.4 -5.6 0
v -11.2 -5.6 0
v -11.2 -4.8 0
v -10.4 -4.8 0
v -11.2 -5.6 0
v -12 -5.6 0
v -12 -4.8 0
v -11.2 -4.8 0
v -12 -5.6 0
v -12.8 -5.6 0
v -12.8 -4.8 0
v -12 -4.8 0
v -12.8 -5.6 0
v -13.6 -5.6 0
v -13.6 -4.8 0
v -12.8 -4.8 0
v -9.6 -6.4 0
v -10.4 -6.4 0
v -10.4 -5.6 0
v -9.6 -5.6 0
v -10.4 -6.4 0
v -11.2 -6.4 0
v -11.2 -5.6 0
v -10.4 -5.6 0
v -11.2 -6.4 0
v -12 -6.4 0
v -12 -5.6 0
v -11.2 -5.6 0
v -12 -6.4 0
v -12.8 -6.4 0
v -12.8 -5.6 0
v -12 -5.6 0
v -12.8 -6.4 0
v -13.6 -6.4 0
v -13.6 -5.6 0
v -12.8 -5.6 0
v -2.4 -7.2 0
v -3.2 -7.2 0
v -3.2 -6.4 0
v -2.4 -6.4 0
v -3.2 -7.2 0
v -4 -7.2 0
v -4 -6.4 0
v -3.2 -6.4 0
v -4 -7.2 0
v -4.8 -7.2 0
v -4.8 -6.4 0
v -4 -6.4 0
v -4.8 -7.2 0
v -5.6 -7.2 0
v -5.6 -6.4 0
v -4.8 -6.4 0
v -5.6 -7.2 0
v -6.4 -7.2 0
v -6.4 -6.4 0
v -5.6 -6.4 0
v -6.4 -7.2 0
v -7.2 -7.2 0
v -7.2 -6.4 0
v -6.4 -6.4 0
v -7.2 -7.2 0
v -8 -7.2 0
v -8 -6.4 0
v -7.2 -6.4 0
v -8 -7.2 0
v -8.8 -7.2 0
v -8.8 -6.4 0
v -8 -6.4 0
v -8.8 -7.2 0
v -9.6 -7.2 0
v -9.6 -6.4 0
v -8.8 -6.4 0
v -9.6 -7.2 0
v -10.4 -7.2 0
v -10.4 -6.4 0
v -9.6 -6.4 0
v -10.4 -7.2 0
v -11.2 -7.2 0
v -11.2 -6.4 0
v -10.4 -6.4 0
v -11.2 -7.2 0
v -12 -7.2 0
v -12 -6.4 0
v -11.2 -6.4 0
v -12 -7.2 0
v -12.8 -7.2 0
v -12.8 -6.4 0
v -12 -6.4 0
v -12.8 -7.2 0
v -13.6 -7.2 0
v -13.6 -6.4 0
v -12.8 -6.4 0
v -13.6 -7.2 0
v -14.4 -7.2 0
v -14.4 -6.4 0
v -13.6 -6.4 0
v -14.4 -7.2 0
v -15.2 -7.2 0
v -15.2 -6.4 0
v -14.4 -6.4 0
v -2.4 -8 0
v -3.2 -8 0
v -3.2 -7.2 0
v -2.4 -7.2 0
v -3.2 -8 0
v -4 -8 0
v -4 -7.2 0
v -3.2 -7.2 0
v -4 -8 0
v -4.8 -8 0
v -4.8 -7.2 0
v -4 -7.2 0
v -4.8 -8 0
v -5.6 -8 0
v -5.6 -7.2 0
v -4.8 -7.2 0
v -5.6 -8 0
v -6.4 -8 0
v -6.4 -7.2 0
v -5.6 -7.2 0
v -6.4 -8 0
v -7.2 -8 0
v -7.2 -7.2 0
v -6.4 -7.2 0
v -7.2 -8 0
v -8 -8 0
v -8 -7.2 0
v -7.2 -7.2 0
v -8 -8 0
v -8.8 -8 0
v -8.8 -7.2 0
v -8 -7.2 0
v -8.8 -8 0
v -9.6 -8 0
v -9.6 -7.2 0
v -8.8 -7.2 0
v -9.6 -8 0
v -10.4 -8 0
v -10.4 -7.2 0
v -9.6 -7.2 0
v -10.4 -8 0
v -11.2 -8 0
v -11.2 -7.2 0
v -10.4 -7.2 0
v -11.2 -8 0
v -12 -8 0
v -12 -7.2 0
v -11.2 -7.2 0
v -12 -8 0
v -12.8 -8 0
v -12.8 -7.2 0
v -12 -7.2 0
v -12.8 -8 0
v -13.6 -8 0
v -13.6 -7.2 0
v -12.8 -7.2 0
v -13.6 -8 0
v -14.4 -8 0
v -14.4 -7.2 0
v -13.6 -7.2 0
v -14.4 -8 0
v -15.2 -8 0
v -15.2 -7.2 0
v -14.4 -7.2 0

# Texture cooridinates (Count = 19)
vt 0.05893186 0.25
vt 0.1178637 0.25
vt 0.1178637 0.5
vt 0.05893186 0.5
vt 0.1767956 0.25
vt 0.1767956 0.5
vt 0.1178637 0.75
vt 0.1767956 0.75
vt 0.1767956 1
vt 0.1178637 1
vt 0.05893186 0
vt 0.1178637 0
vt 0.1767956 0
vt 0.2357274 0.25
vt 0.2946593 0.25
vt 0.2946593 0.5
vt 0.2357274 0.5
vt 0.2357274 0
vt 0.2946593 0

# Normal
vn 0 0 -1

# Mesh description
g CharHouse_mesh_0003

# Faces
f 1/1/1 2/2/1 3/3/1 4/4/1
f 5/1/1 6/2/1 7/3/1 8/4/1
f 9/2/1 10/5/1 11/6/1 12/3/1
f 13/1/1 14/2/1 15/3/1 16/4/1
f 17/1/1 18/2/1 19/3/1 20/4/1
f 21/1/1 22/2/1 23/3/1 24/4/1
f 25/2/1 26/5/1 27/6/1 28/3/1
f 29/1/1 30/2/1 31/3/1 32/4/1
f 33/1/1 34/2/1 35/3/1 36/4/1
f 37/7/1 38/8/1 39/9/1 40/10/1
f 41/7/1 42/8/1 43/9/1 44/10/1
f 45/7/1 46/8/1 47/9/1 48/10/1
f 49/7/1 50/8/1 51/9/1 52/10/1
f 53/7/1 54/8/1 55/9/1 56/10/1
f 57/1/1 58/2/1 59/3/1 60/4/1
f 61/2/1 62/5/1 63/6/1 64/3/1
f 65/1/1 66/2/1 67/3/1 68/4/1
f 69/11/1 70/12/1 71/2/1 72/1/1
f 73/11/1 74/12/1 75/2/1 76/1/1
f 77/12/1 78/13/1 79/5/1 80/2/1
f 81/11/1 82/12/1 83/2/1 84/1/1
f 85/11/1 86/12/1 87/2/1 88/1/1
f 89/11/1 90/12/1 91/2/1 92/1/1
f 93/12/1 94/13/1 95/5/1 96/2/1
f 97/11/1 98/12/1 99/2/1 100/1/1
f 101/11/1 102/12/1 103/2/1 104/1/1
f 105/7/1 106/8/1 107/9/1 108/10/1
f 109/7/1 110/8/1 111/9/1 112/10/1
f 113/7/1 114/8/1 115/9/1 116/10/1
f 117/7/1 118/8/1 119/9/1 120/10/1
f 121/7/1 122/8/1 123/9/1 124/10/1
f 125/11/1 126/12/1 127/2/1 128/1/1
f 129/12/1 130/13/1 131/5/1 132/2/1
f 133/11/1 134/12/1 135/2/1 136/1/1
f 137/7/1 138/8/1 139/9/1 140/10/1
f 141/7/1 142/8/1 143/9/1 144/10/1
f 145/7/1 146/8/1 147/9/1 148/10/1
f 149/7/1 150/8/1 151/9/1 152/10/1
f 153/7/1 154/8/1 155/9/1 156/10/1
f 157/7/1 158/8/1 159/9/1 160/10/1
f 161/7/1 162/8/1 163/9/1 164/10/1
f 165/7/1 166/8/1 167/9/1 168/10/1
f 169/7/1 170/8/1 171/9/1 172/10/1
f 173/7/1 174/8/1 175/9/1 176/10/1
f 177/7/1 178/8/1 179/9/1 180/10/1
f 181/7/1 182/8/1 183/9/1 184/10/1
f 185/7/1 186/8/1 187/9/1 188/10/1
f 189/7/1 190/8/1 191/9/1 192/10/1
f 193/7/1 194/8/1 195/9/1 196/10/1
f 197/7/1 198/8/1 199/9/1 200/10/1
f 201/7/1 202/8/1 203/9/1 204/10/1
f 205/7/1 206/8/1 207/9/1 208/10/1
f 209/7/1 210/8/1 211/9/1 212/10/1
f 213/7/1 214/8/1 215/9/1 216/10/1
f 217/7/1 218/8/1 219/9/1 220/10/1
f 221/7/1 222/8/1 223/9/1 224/10/1
f 225/7/1 226/8/1 227/9/1 228/10/1
f 229/7/1 230/8/1 231/9/1 232/10/1
f 233/7/1 234/8/1 235/9/1 236/10/1
f 237/1/1 238/2/1 239/3/1 240/4/1
f 241/1/1 242/2/1 243/3/1 244/4/1
f 245/1/1 246/2/1 247/3/1 248/4/1
f 249/1/1 250/2/1 251/3/1 252/4/1
f 253/1/1 254/2/1 255/3/1 256/4/1
f 257/1/1 258/2/1 259/3/1 260/4/1
f 261/1/1 262/2/1 263/3/1 264/4/1
f 265/1/1 266/2/1 267/3/1 268/4/1
f 269/1/1 270/2/1 271/3/1 272/4/1
f 273/1/1 274/2/1 275/3/1 276/4/1
f 277/1/1 278/2/1 279/3/1 280/4/1
f 281/14/1 282/15/1 283/16/1 284/17/1
f 285/1/1 286/2/1 287/3/1 288/4/1
f 289/1/1 290/2/1 291/3/1 292/4/1
f 293/1/1 294/2/1 295/3/1 296/4/1
f 297/1/1 298/2/1 299/3/1 300/4/1
f 301/11/1 302/12/1 303/2/1 304/1/1
f 305/11/1 306/12/1 307/2/1 308/1/1
f 309/11/1 310/12/1 311/2/1 312/1/1
f 313/11/1 314/12/1 315/2/1 316/1/1
f 317/11/1 318/12/1 319/2/1 320/1/1
f 321/11/1 322/12/1 323/2/1 324/1/1
f 325/11/1 326/12/1 327/2/1 328/1/1
f 329/11/1 330/12/1 331/2/1 332/1/1
f 333/11/1 334/12/1 335/2/1 336/1/1
f 337/11/1 338/12/1 339/2/1 340/1/1
f 341/11/1 342/12/1 343/2/1 344/1/1
f 345/18/1 346/19/1 347/15/1 348/14/1
f 349/11/1 350/12/1 351/2/1 352/1/1
f 353/11/1 354/12/1 355/2/1 356/1/1
f 357/11/1 358/12/1 359/2/1 360/1/1
f 361/11/1 362/12/1 363/2/1 364/1/1

