# Tiled2Unity generated file. Do not modify by hand.
# Wavefront file for 'CharHouse_mesh_0005.obj'

# Vertices (Count = 132)
v -0.8 -2.4 0
v -1.6 -2.4 0
v -1.6 -1.6 0
v -0.8 -1.6 0
v -1.6 -2.4 0
v -2.4 -2.4 0
v -2.4 -1.6 0
v -1.6 -1.6 0
v -2.4 -2.4 0
v -3.2 -2.4 0
v -3.2 -1.6 0
v -2.4 -1.6 0
v -7.2 -2.4 0
v -8 -2.4 0
v -8 -1.6 0
v -7.2 -1.6 0
v -15.2 -2.4 0
v -16 -2.4 0
v -16 -1.6 0
v -15.2 -1.6 0
v -16 -2.4 0
v -16.8 -2.4 0
v -16.8 -1.6 0
v -16 -1.6 0
v -16.8 -2.4 0
v -17.6 -2.4 0
v -17.6 -1.6 0
v -16.8 -1.6 0
v -0.8 -3.2 0
v -1.6 -3.2 0
v -1.6 -2.4 0
v -0.8 -2.4 0
v -1.6 -3.2 0
v -2.4 -3.2 0
v -2.4 -2.4 0
v -1.6 -2.4 0
v -2.4 -3.2 0
v -3.2 -3.2 0
v -3.2 -2.4 0
v -2.4 -2.4 0
v -7.2 -3.2 0
v -8 -3.2 0
v -8 -2.4 0
v -7.2 -2.4 0
v -15.2 -3.2 0
v -16 -3.2 0
v -16 -2.4 0
v -15.2 -2.4 0
v -16 -3.2 0
v -16.8 -3.2 0
v -16.8 -2.4 0
v -16 -2.4 0
v -16.8 -3.2 0
v -17.6 -3.2 0
v -17.6 -2.4 0
v -16.8 -2.4 0
v -4.8 -4 0
v -5.6 -4 0
v -5.6 -3.2 0
v -4.8 -3.2 0
v -5.6 -4 0
v -6.4 -4 0
v -6.4 -3.2 0
v -5.6 -3.2 0
v -15.2 -6.4 0
v -16 -6.4 0
v -16 -5.6 0
v -15.2 -5.6 0
v -4.8 -7.2 0
v -5.6 -7.2 0
v -5.6 -6.4 0
v -4.8 -6.4 0
v -5.6 -7.2 0
v -6.4 -7.2 0
v -6.4 -6.4 0
v -5.6 -6.4 0
v -8.8 -7.2 0
v -9.6 -7.2 0
v -9.6 -6.4 0
v -8.8 -6.4 0
v -13.6 -7.2 0
v -14.4 -7.2 0
v -14.4 -6.4 0
v -13.6 -6.4 0
v -15.2 -7.2 0
v -16 -7.2 0
v -16 -6.4 0
v -15.2 -6.4 0
v -4 -8 0
v -4.8 -8 0
v -4.8 -7.2 0
v -4 -7.2 0
v -4.8 -8 0
v -5.6 -8 0
v -5.6 -7.2 0
v -4.8 -7.2 0
v -5.6 -8 0
v -6.4 -8 0
v -6.4 -7.2 0
v -5.6 -7.2 0
v -6.4 -8 0
v -7.2 -8 0
v -7.2 -7.2 0
v -6.4 -7.2 0
v -7.2 -8 0
v -8 -8 0
v -8 -7.2 0
v -7.2 -7.2 0
v -15.2 -8 0
v -16 -8 0
v -16 -7.2 0
v -15.2 -7.2 0
v -4 -8.8 0
v -4.8 -8.8 0
v -4.8 -8 0
v -4 -8 0
v -4.8 -8.8 0
v -5.6 -8.8 0
v -5.6 -8 0
v -4.8 -8 0
v -5.6 -8.8 0
v -6.4 -8.8 0
v -6.4 -8 0
v -5.6 -8 0
v -6.4 -8.8 0
v -7.2 -8.8 0
v -7.2 -8 0
v -6.4 -8 0
v -7.2 -8.8 0
v -8 -8.8 0
v -8 -8 0
v -7.2 -8 0

# Texture cooridinates (Count = 56)
vt 0.25 0.75
vt 0.3125 0.75
vt 0.3125 0.8125
vt 0.25 0.8125
vt 0.3125 0.5625
vt 0.375 0.5625
vt 0.375 0.625
vt 0.3125 0.625
vt 0.125 0.75
vt 0.1875 0.75
vt 0.1875 0.8125
vt 0.125 0.8125
vt 0.75 0.9375
vt 0.8125 0.9375
vt 0.8125 1
vt 0.75 1
vt 0.25 0.5625
vt 0.25 0.625
vt 0.25 0.6875
vt 0.3125 0.6875
vt 0.1875 0.6875
vt 0.125 0.6875
vt 0.75 0.875
vt 0.8125 0.875
vt 0.25 0.5
vt 0.3125 0.5
vt 0.8125 0.8125
vt 0.875 0.8125
vt 0.875 0.875
vt 0.375 0.75
vt 0.375 0.8125
vt 0.4375 0.75
vt 0.5 0.75
vt 0.5 0.8125
vt 0.4375 0.8125
vt 0.5 0.875
vt 0.5625 0.875
vt 0.5625 0.9375
vt 0.5 0.9375
vt 0.4375 0.9375
vt 0.5 1
vt 0.4375 1
vt 0.5625 1
vt 0.375 0.6875
vt 0.125 0.5625
vt 0.1875 0.5625
vt 0.1875 0.625
vt 0.125 0.625
vt 0 0.5625
vt 0.0625 0.5625
vt 0.0625 0.625
vt 0 0.625
vt 0.125 0.5
vt 0.1875 0.5
vt 0 0.5
vt 0.0625 0.5

# Normal
vn 0 0 -1

# Mesh description
g CharHouse_mesh_0005

# Faces
f 1/1/1 2/2/1 3/3/1 4/4/1
f 5/5/1 6/6/1 7/7/1 8/8/1
f 9/9/1 10/10/1 11/11/1 12/12/1
f 13/13/1 14/14/1 15/15/1 16/16/1
f 17/17/1 18/5/1 19/8/1 20/18/1
f 21/13/1 22/14/1 23/15/1 24/16/1
f 25/17/1 26/5/1 27/8/1 28/18/1
f 29/19/1 30/20/1 31/2/1 32/1/1
f 33/21/1 34/19/1 35/1/1 36/10/1
f 37/22/1 38/21/1 39/10/1 40/9/1
f 41/23/1 42/24/1 43/14/1 44/13/1
f 45/25/1 46/26/1 47/5/1 48/17/1
f 49/23/1 50/24/1 51/14/1 52/13/1
f 53/25/1 54/26/1 55/5/1 56/17/1
f 57/27/1 58/28/1 59/29/1 60/24/1
f 61/27/1 62/28/1 63/29/1 64/24/1
f 65/2/1 66/30/1 67/31/1 68/3/1
f 69/32/1 70/33/1 71/34/1 72/35/1
f 73/36/1 74/37/1 75/38/1 76/39/1
f 77/40/1 78/39/1 79/41/1 80/42/1
f 81/39/1 82/38/1 83/43/1 84/41/1
f 85/20/1 86/44/1 87/30/1 88/2/1
f 89/45/1 90/46/1 91/47/1 92/48/1
f 93/49/1 94/50/1 95/51/1 96/52/1
f 97/50/1 98/45/1 99/48/1 100/51/1
f 101/49/1 102/50/1 103/51/1 104/52/1
f 105/46/1 106/17/1 107/18/1 108/47/1
f 109/8/1 110/7/1 111/44/1 112/20/1
f 113/53/1 114/54/1 115/46/1 116/45/1
f 117/55/1 118/56/1 119/50/1 120/49/1
f 121/56/1 122/53/1 123/45/1 124/50/1
f 125/55/1 126/56/1 127/50/1 128/49/1
f 129/54/1 130/25/1 131/17/1 132/46/1

