# Tiled2Unity generated file. Do not modify by hand.
# Wavefront file for 'Cave2_mesh_0004.obj'

# Vertices (Count = 8)
v -8 -6.4 0
v -8.8 -6.4 0
v -8.8 -5.6 0
v -8 -5.6 0
v -17.6 -28 0
v -18.4 -28 0
v -18.4 -27.2 0
v -17.6 -27.2 0

# Texture cooridinates (Count = 8)
vt 0.484375 0.6666667
vt 0.5 0.6666667
vt 0.5 0.6875
vt 0.484375 0.6875
vt 0.65625 0.6666667
vt 0.671875 0.6666667
vt 0.671875 0.6875
vt 0.65625 0.6875

# Normal
vn 0 0 -1

# Mesh description
g Cave2_mesh_0004

# Faces
f 1/1/1 2/2/1 3/3/1 4/4/1
f 5/5/1 6/6/1 7/7/1 8/8/1

